<svg width="590" height="275" xmlns="http://www.w3.org/2000/svg">
 <g>
  <title>Layer 1</title>
  <g stroke="null" id="svg_1">
   <g stroke="null" id="Page-1" fill="none" fill-rule="evenodd">
    <g stroke="#C2B59C" id="Group" fill="#C2B59C">
     <path stroke="null" d="m20.96484,23.10571l53.82754,0l-2.28778,90.27027l-25.26262,-1.56733l0,51.96025l23.2042,0l-2.32306,88.33244l-47.15826,0.29109l0,-229.28673l-0.00001,0z" id="Path-1"/>
     <path stroke="null" d="m84.72128,22.98367l54.28847,-0.00809l-2.71342,91.56709l-51.6662,-1.50337l0.09116,-90.05563z" id="Path-2"/>
     <path stroke="null" d="m153.19077,23.04102l48.02132,0.3345l-0.06464,92.80139l-50.1886,-1.02995l2.23192,-92.10594z" id="Path-3"/>
     <path stroke="null" d="m84.71393,163.83652l49.6813,0l-1.97681,88.50374l-47.67876,0.38377l-0.02573,-88.88751z" id="Path-4"/>
     <path stroke="null" d="m149.31212,163.94902l52.1389,-0.3683l-0.18819,88.53458l-54.50168,0.08167l2.55096,-88.24794z" id="Path-5"/>
    </g>
   </g>
   <g stroke="null" id="svg_11">
    <path stroke="null" fill="#5A4A42" d="m248.26616,57.08038c0,0.22518 -0.01694,0.42403 -0.05089,0.59716c-0.03566,0.17312 -0.09068,0.32109 -0.16731,0.44276c-0.07718,0.12047 -0.16609,0.2123 -0.26842,0.27196c-0.10239,0.06083 -0.21408,0.09124 -0.33278,0.09124l-15.51569,0c-0.30707,0 -0.62291,-0.11699 -0.94748,-0.35093c-0.32402,-0.23395 -0.48605,-0.66209 -0.48605,-1.28616l0,-30.34878c0,-0.62347 0.16203,-1.05219 0.48605,-1.28673c0.32454,-0.23396 0.64041,-0.34976 0.94748,-0.34976l15.2852,0c0.11876,0 0.23048,0.0304 0.33281,0.09007c0.10239,0.06141 0.1866,0.15266 0.2562,0.27314c0.06725,0.12223 0.11813,0.27313 0.15382,0.45503c0.03392,0.1813 0.05086,0.39363 0.05086,0.63634c0,0.22576 -0.01694,0.42405 -0.05086,0.59716c-0.03569,0.1743 -0.08658,0.31702 -0.15382,0.42932c-0.0696,0.11347 -0.15381,0.20003 -0.2562,0.25969c-0.10233,0.06082 -0.21405,0.09123 -0.33281,0.09123l-13.5955,0l0,11.82218l11.72687,0c0.13506,0 0.25613,0.03041 0.35847,0.09123c0.10236,0.06083 0.18663,0.14739 0.25618,0.25969c0.06667,0.11347 0.11819,0.25969 0.15327,0.44159c0.03334,0.18248 0.05148,0.39479 0.05148,0.63751c0,0.22401 -0.01817,0.41936 -0.05148,0.58372c-0.03508,0.16493 -0.08661,0.29887 -0.15327,0.40239c-0.06955,0.10469 -0.15382,0.18306 -0.25618,0.23394c-0.10234,0.05265 -0.22342,0.07838 -0.35847,0.07838l-11.72687,0l0,13.40775l13.82599,0c0.1187,0 0.23039,0.03042 0.33278,0.0901c0.10233,0.06141 0.19124,0.14798 0.26842,0.26143c0.07663,0.11172 0.13165,0.25968 0.16731,0.44101c0.03336,0.18189 0.05089,0.39362 0.05089,0.63634" id="svg_12"/>
    <path stroke="null" fill="#5A4A42" d="m279.00388,57.41845c0.10239,0.25968 0.14859,0.47141 0.14035,0.63634c-0.00876,0.16553 -0.0719,0.2901 -0.19119,0.37667c-0.11993,0.08656 -0.30359,0.14388 -0.55157,0.16961c-0.24741,0.02515 -0.55798,0.03859 -0.93347,0.03859s-0.66559,-0.01344 -0.87033,-0.03859c-0.20468,-0.02573 -0.36319,-0.06492 -0.47491,-0.11697c-0.11111,-0.05264 -0.18304,-0.12106 -0.21698,-0.2088c-0.03564,-0.0854 -0.07657,-0.19009 -0.12805,-0.31057l-10.39566,-29.64811l-0.02573,0l-10.11258,29.64811c-0.03391,0.12048 -0.0766,0.22517 -0.12805,0.31057c-0.05084,0.08774 -0.13626,0.15617 -0.2562,0.2088c-0.11932,0.05206 -0.28131,0.09124 -0.48605,0.11697c-0.20471,0.02515 -0.48657,0.03859 -0.84512,0.03859c-0.37552,0 -0.68256,-0.01695 -0.9212,-0.05205c-0.2392,-0.03451 -0.41817,-0.09065 -0.53809,-0.16844c-0.11935,-0.0778 -0.17896,-0.19008 -0.17896,-0.33749c0,-0.14798 0.05089,-0.36847 0.15321,-0.66323l11.49522,-31.98646c0.05151,-0.13804 0.12805,-0.255 0.23047,-0.34977c0.10233,-0.09533 0.23569,-0.16961 0.39771,-0.2205c0.16202,-0.05263 0.35852,-0.09182 0.58899,-0.11755c0.23044,-0.02632 0.49008,-0.0386 0.78024,-0.0386c0.20468,0 0.39243,0.0035 0.5632,0.01228c0.17081,0.00936 0.32404,0.02632 0.46088,0.05205c0.13623,0.02574 0.25558,0.05616 0.35794,0.09182c0.10233,0.03392 0.1965,0.07779 0.28192,0.12927c0.08539,0.05205 0.15326,0.11638 0.20471,0.19475c0.0509,0.0778 0.09357,0.16085 0.12811,0.24625l11.47119,31.98646z" id="svg_13"/>
    <path stroke="null" fill="#5A4A42" d="m308.41864,57.41845c0.10291,0.25968 0.15143,0.47141 0.14151,0.63634c-0.0076,0.16553 -0.07309,0.2901 -0.19302,0.37667c-0.11929,0.08656 -0.30179,0.14388 -0.54803,0.16961c-0.24915,0.02515 -0.56085,0.03859 -0.93695,0.03859c-0.37549,0 -0.66559,-0.01344 -0.8703,-0.03859c-0.20529,-0.02573 -0.3609,-0.06492 -0.47318,-0.11697c-0.11169,-0.05264 -0.18304,-0.12106 -0.21695,-0.2088c-0.03455,-0.0854 -0.07843,-0.19009 -0.12927,-0.31057l-10.3945,-29.64811l-0.02518,0l-10.1131,29.64811c-0.03391,0.12048 -0.07663,0.22517 -0.12811,0.31057c-0.05084,0.08774 -0.13623,0.15617 -0.25616,0.2088c-0.11926,0.05206 -0.28134,0.09124 -0.48605,0.11697c-0.20526,0.02515 -0.48663,0.03859 -0.84509,0.03859c-0.37558,0 -0.68259,-0.01695 -0.92178,-0.05205c-0.23868,-0.03451 -0.41824,-0.09065 -0.53757,-0.16844c-0.11929,-0.0778 -0.17896,-0.19008 -0.17896,-0.33749c0,-0.14798 0.05093,-0.36847 0.15326,-0.66323l11.49521,-31.98646c0.05148,-0.13804 0.12808,-0.255 0.23044,-0.34977c0.10294,-0.09533 0.23572,-0.16961 0.39774,-0.2205c0.16202,-0.05263 0.35852,-0.09182 0.58896,-0.11755c0.23041,-0.02632 0.49014,-0.0386 0.78021,-0.0386c0.20532,0 0.39307,0.0035 0.56326,0.01228c0.17075,0.00936 0.32455,0.02632 0.46085,0.05205c0.13684,0.02574 0.25616,0.05616 0.35852,0.09182c0.10236,0.03392 0.19656,0.07779 0.28137,0.12927c0.08536,0.05205 0.15384,0.11638 0.20526,0.19475c0.05145,0.0778 0.09357,0.16085 0.12811,0.24625l11.46945,31.98646l0.00006,0z" id="svg_14"/>
    <path stroke="null" fill="#5A4A42" d="m337.27536,57.96414c0,0.10352 -0.02692,0.19886 -0.07776,0.28542c-0.05151,0.08657 -0.13632,0.15616 -0.2562,0.20821c-0.11932,0.05148 -0.28076,0.09475 -0.48547,0.12927c-0.20526,0.03567 -0.45328,0.05263 -0.74335,0.05263c-0.30649,0 -0.55853,-0.01696 -0.75336,-0.05263c-0.19769,-0.03452 -0.35556,-0.07779 -0.47546,-0.12927c-0.11993,-0.05205 -0.20529,-0.12165 -0.2562,-0.20821s-0.07544,-0.18189 -0.07544,-0.28542l0,-15.66832l-16.53802,0l0,15.66832c0,0.10352 -0.02692,0.19886 -0.07895,0.28542c-0.05093,0.08657 -0.13574,0.15616 -0.2562,0.20821c-0.11935,0.05148 -0.27783,0.09475 -0.4726,0.12927c-0.19824,0.03567 -0.44919,0.05263 -0.75623,0.05263c-0.29016,0 -0.53696,-0.01696 -0.74164,-0.05263c-0.20474,-0.03452 -0.36789,-0.07779 -0.48782,-0.12927c-0.11929,-0.05205 -0.20468,-0.12165 -0.25558,-0.20821c-0.05203,-0.08656 -0.07599,-0.18189 -0.07599,-0.28542l0,-32.5836c0,-0.10353 0.02396,-0.19885 0.07599,-0.2866c0.0509,-0.08655 0.13574,-0.15439 0.25558,-0.20704c0.11993,-0.05264 0.28308,-0.09534 0.48782,-0.13043c0.20468,-0.03451 0.45096,-0.05146 0.74164,-0.05146c0.30704,0 0.55798,0.01696 0.75623,0.05146c0.19476,0.03509 0.35324,0.07779 0.4726,0.13043c0.1199,0.05264 0.20526,0.12049 0.2562,0.20704c0.05203,0.08775 0.07895,0.18307 0.07895,0.2866l0,14.08328l16.53802,0l0,-14.08328c0,-0.10353 0.02396,-0.19885 0.07544,-0.2866c0.05145,-0.08655 0.13626,-0.15439 0.2562,-0.20704c0.11929,-0.05264 0.27777,-0.09534 0.47546,-0.13043c0.19482,-0.03451 0.44687,-0.05146 0.75336,-0.05146c0.29007,0 0.53867,0.01696 0.74335,0.05146c0.20471,0.03509 0.36615,0.07779 0.48547,0.13043c0.11929,0.05264 0.20468,0.12049 0.2562,0.20704c0.05084,0.08775 0.07776,0.18307 0.07776,0.2866l0,32.5836z" id="svg_15"/>
    <path stroke="null" fill="#5A4A42" d="m370.7363,56.95113c0,0.31115 -0.04617,0.57084 -0.13919,0.77905c-0.09476,0.20763 -0.21405,0.37667 -0.35794,0.5071c-0.14621,0.12925 -0.30704,0.22108 -0.48779,0.27197c-0.1778,0.05263 -0.34625,0.07837 -0.49948,0.07837l-0.63925,0c-0.34158,0 -0.65277,-0.04328 -0.93408,-0.12925c-0.28247,-0.08656 -0.5556,-0.23805 -0.8194,-0.45503c-0.26492,-0.217 -0.52814,-0.50708 -0.7937,-0.8703c-0.26605,-0.36438 -0.55853,-0.83169 -0.88315,-1.40313l-11.67419,-20.99482c-0.5802,-1.02296 -1.16562,-2.07515 -1.75519,-3.15776c-0.58841,-1.08204 -1.14697,-2.13422 -1.67511,-3.15601l-0.0275,0c0.01694,1.26392 0.0275,2.55884 0.0275,3.88418l0,3.88418l0,21.77446c0,0.10412 -0.0275,0.19887 -0.07837,0.28543c-0.05148,0.08655 -0.1369,0.15617 -0.25623,0.20879c-0.11929,0.0509 -0.27777,0.09475 -0.47314,0.12925c-0.19708,0.03511 -0.44916,0.05205 -0.75568,0.05205c-0.2901,0 -0.53632,-0.01694 -0.74164,-0.05205c-0.20468,-0.0345 -0.36789,-0.07835 -0.48776,-0.12925c-0.11929,-0.05264 -0.20468,-0.12224 -0.25562,-0.20879c-0.05142,-0.08655 -0.07605,-0.18131 -0.07605,-0.28543l0,-31.46648c0,-0.6229 0.16031,-1.0522 0.48547,-1.28674c0.32404,-0.23394 0.64105,-0.34975 0.94751,-0.34975l1.28033,0c0.41,0 0.75098,0.0345 1.02408,0.10353c0.27316,0.06959 0.51941,0.18657 0.74106,0.35151c0.22284,0.16434 0.43927,0.39831 0.6539,0.7007c0.21173,0.30412 0.44861,0.68897 0.70419,1.15572l8.93405,16.08417c0.56323,1.006 1.0972,1.97105 1.60196,2.89808c0.5018,0.92645 0.99194,1.83592 1.4704,2.72845c0.47723,0.89195 0.95041,1.77101 1.42123,2.63664c0.47083,0.86679 0.93408,1.74118 1.39493,2.62493l0.02634,0c-0.01636,-1.45576 -0.02634,-2.97118 -0.02634,-4.54742l0,-4.54745l0,-19.56595c0,-0.10353 0.02634,-0.19828 0.07843,-0.28484c0.05142,-0.08657 0.13565,-0.16085 0.25616,-0.22225c0.11932,-0.05967 0.27838,-0.10352 0.47256,-0.12927c0.19827,-0.02515 0.44977,-0.03859 0.75629,-0.03859c0.27368,0 0.51288,0.01344 0.71765,0.03859c0.20468,0.02575 0.36554,0.0696 0.48483,0.12927c0.11929,0.06141 0.20938,0.13568 0.27078,0.22225c0.05847,0.08656 0.08774,0.18131 0.08774,0.28484l0,31.46707l-0.00061,0z" id="svg_16"/>
    <path stroke="null" fill="#5A4A42" d="m383.53925,57.96414c0,0.10352 -0.02689,0.19886 -0.07773,0.28542c-0.05148,0.08657 -0.13687,0.15616 -0.25616,0.20821c-0.11874,0.05148 -0.27786,0.09475 -0.47321,0.12927c-0.19708,0.03567 -0.44858,0.05263 -0.75565,0.05263c-0.29013,0 -0.53638,-0.01696 -0.74109,-0.05263c-0.20587,-0.03452 -0.36844,-0.07779 -0.48776,-0.12927c-0.11929,-0.05205 -0.20529,-0.12165 -0.25616,-0.20821c-0.05087,-0.08656 -0.0755,-0.18189 -0.0755,-0.28542l0,-32.5836c0,-0.10353 0.0293,-0.19885 0.08777,-0.2866c0.06082,-0.08655 0.15329,-0.15439 0.28253,-0.20704c0.12625,-0.05264 0.2901,-0.09534 0.48486,-0.13043c0.19766,-0.03451 0.43158,-0.05146 0.70477,-0.05146c0.30704,0 0.55853,0.01696 0.75562,0.05146c0.1954,0.03509 0.35388,0.07779 0.47318,0.13043c0.11935,0.05264 0.20532,0.12049 0.25623,0.20704c0.05084,0.08775 0.07779,0.18307 0.07779,0.2866l0,32.5836l0.00052,0z" id="svg_17"/>
    <path stroke="null" fill="#5A4A42" d="m413.39093,57.91209c0,0.12165 -0.01636,0.22519 -0.05084,0.31232c-0.03458,0.08657 -0.11234,0.15967 -0.23163,0.2205s-0.28018,0.1082 -0.48492,0.1427c-0.20584,0.03511 -0.47079,0.05206 -0.79486,0.05206c-0.30698,0 -0.61697,-0.01696 -0.93399,-0.05206c-0.31702,-0.03449 -0.55856,-0.1076 -0.72879,-0.22107c-0.17081,-0.11172 -0.31705,-0.24624 -0.43689,-0.40239l-13.38846,-17.25335l0,17.25335c0,0.10353 -0.02689,0.19827 -0.07782,0.28543c-0.05203,0.08597 -0.13681,0.15557 -0.25616,0.2082c-0.11929,0.05149 -0.2778,0.09475 -0.47311,0.12927c-0.19772,0.03509 -0.44922,0.05206 -0.75568,0.05206c-0.29016,0 -0.53638,-0.01696 -0.74167,-0.05206c-0.20471,-0.03452 -0.36844,-0.07778 -0.48779,-0.12927c-0.11929,-0.05264 -0.20471,-0.12223 -0.25623,-0.2082c-0.05142,-0.08715 -0.07538,-0.1819 -0.07538,-0.28543l0,-32.58362c0,-0.1041 0.02396,-0.19885 0.07538,-0.28659c0.05151,-0.08656 0.13635,-0.15499 0.25623,-0.20763c0.11935,-0.05206 0.28308,-0.09475 0.48779,-0.13044c0.20529,-0.03392 0.45093,-0.05089 0.74167,-0.05089c0.30646,0 0.55795,0.01697 0.75568,0.05089c0.19531,0.03567 0.35324,0.07837 0.47311,0.13044c0.11935,0.05264 0.20471,0.12107 0.25616,0.20763c0.05093,0.08773 0.07782,0.18249 0.07782,0.28659l0,15.27821l12.82523,-15.27821c0.10233,-0.12107 0.21469,-0.22576 0.33453,-0.31232c0.11929,-0.08656 0.25558,-0.15618 0.40884,-0.20705c0.15439,-0.05264 0.33167,-0.09183 0.53696,-0.11756c0.20465,-0.02632 0.46024,-0.0386 0.76791,-0.0386s0.55624,0.01697 0.74341,0.05089c0.18713,0.03568 0.3363,0.08305 0.44916,0.14388c0.10938,0.06083 0.1825,0.12925 0.21695,0.20705c0.03394,0.07837 0.05096,0.16961 0.05096,0.27372c0,0.1901 -0.04858,0.37257 -0.14157,0.54453c-0.09244,0.17429 -0.25098,0.38192 -0.4726,0.62465l-12.05963,14.00493l12.87787,16.3965c0.23926,0.31115 0.38309,0.52814 0.43399,0.64862c0.05148,0.12224 0.07837,0.22576 0.07837,0.31233" id="svg_18"/>
    <path stroke="null" fill="#5A4A42" d="m442.45007,57.96414c0,0.10352 -0.0275,0.19886 -0.07837,0.28542c-0.05145,0.08657 -0.13629,0.15616 -0.25616,0.20821c-0.11935,0.05148 -0.28073,0.09475 -0.48544,0.12927c-0.20471,0.03567 -0.45328,0.05263 -0.74335,0.05263c-0.30652,0 -0.55859,-0.01696 -0.75284,-0.05263c-0.19827,-0.03452 -0.3562,-0.07779 -0.47549,-0.12927c-0.11987,-0.05205 -0.20465,-0.12165 -0.25616,-0.20821c-0.05148,-0.08656 -0.07544,-0.18189 -0.07544,-0.28542l0,-15.66832l-16.53806,0l0,15.66832c0,0.10352 -0.02689,0.19886 -0.07837,0.28542s-0.13626,0.15616 -0.25616,0.20821c-0.1199,0.05148 -0.27838,0.09475 -0.47314,0.12927c-0.19775,0.03567 -0.44925,0.05263 -0.75571,0.05263c-0.29007,0 -0.53693,-0.01696 -0.74219,-0.05263c-0.20474,-0.03452 -0.36792,-0.07779 -0.48721,-0.12927c-0.1199,-0.05205 -0.20526,-0.12165 -0.2562,-0.20821c-0.05145,-0.08656 -0.07541,-0.18189 -0.07541,-0.28542l0,-32.5836c0,-0.10353 0.02396,-0.19885 0.07541,-0.2866c0.05093,-0.08655 0.13571,-0.15439 0.2562,-0.20704c0.11929,-0.05264 0.28247,-0.09534 0.48721,-0.13043c0.20526,-0.03451 0.45148,-0.05146 0.74219,-0.05146c0.30646,0 0.55795,0.01696 0.75571,0.05146c0.19476,0.03509 0.35324,0.07779 0.47314,0.13043c0.11929,0.05264 0.20468,0.12049 0.25616,0.20704c0.05148,0.08775 0.07837,0.18307 0.07837,0.2866l0,14.08328l16.53806,0l0,-14.08328c0,-0.10353 0.02396,-0.19885 0.07544,-0.2866c0.05209,-0.08655 0.13629,-0.15439 0.25616,-0.20704c0.11929,-0.05264 0.27786,-0.09534 0.47549,-0.13043c0.19424,-0.03451 0.44632,-0.05146 0.75284,-0.05146c0.29007,0 0.53925,0.01696 0.74335,0.05146c0.20471,0.03509 0.36609,0.07779 0.48544,0.13043c0.11932,0.05264 0.20471,0.12049 0.25616,0.20704c0.05087,0.08775 0.07837,0.18307 0.07837,0.2866l0,32.5836z" id="svg_19"/>
    <path stroke="null" fill="#5A4A42" d="m248.26616,120.93866c0,0.22518 -0.01694,0.42403 -0.05089,0.59716c-0.03566,0.17313 -0.09068,0.32051 -0.16731,0.44275c-0.07718,0.12049 -0.16609,0.21174 -0.26842,0.27197c-0.10239,0.06084 -0.21408,0.09127 -0.33278,0.09127l-15.51569,0c-0.30707,0 -0.62291,-0.11699 -0.94748,-0.35096c-0.32402,-0.23454 -0.48605,-0.66209 -0.48605,-1.28615l0,-30.34879c0,-0.62347 0.16203,-1.05219 0.48605,-1.28672c0.32454,-0.23397 0.64041,-0.34979 0.94748,-0.34979l15.2852,0c0.11876,0 0.23048,0.03044 0.33281,0.0901c0.10239,0.06081 0.1866,0.15263 0.2562,0.27312c0.06725,0.12225 0.11813,0.27315 0.15382,0.45506c0.03392,0.1813 0.05086,0.39361 0.05086,0.63632c0,0.22519 -0.01694,0.42404 -0.05086,0.59717c-0.03569,0.1743 -0.08658,0.31702 -0.15382,0.4293c-0.0696,0.11288 -0.15381,0.20004 -0.2562,0.25969c-0.10233,0.06084 -0.21405,0.09124 -0.33281,0.09124l-13.5955,0l0,11.82214l11.72687,0c0.13506,0 0.25613,0.03044 0.35847,0.09126c0.10236,0.06084 0.18663,0.14739 0.25618,0.25968c0.06667,0.11348 0.11819,0.25968 0.15327,0.4416c0.03334,0.18248 0.05148,0.39478 0.05148,0.63751c0,0.22399 -0.01817,0.41936 -0.05148,0.58369c-0.03508,0.16494 -0.08661,0.2989 -0.15327,0.40243c-0.06955,0.10469 -0.15382,0.18247 -0.25618,0.23394c-0.10234,0.05264 -0.22342,0.07836 -0.35847,0.07836l-11.72687,0l0,13.40778l13.82599,0c0.1187,0 0.23039,0.03043 0.33278,0.09007c0.10233,0.06141 0.19124,0.14738 0.26842,0.26083c0.07663,0.11232 0.13165,0.2597 0.16731,0.44158c0.03336,0.18134 0.05089,0.39364 0.05089,0.63638" id="svg_20"/>
    <path stroke="null" fill="#5A4A42" d="m265.1633,109.09016l0,12.7328c0,0.10354 -0.02576,0.19829 -0.07663,0.28484c-0.05148,0.08658 -0.13687,0.15615 -0.25616,0.20882c-0.11932,0.05087 -0.28192,0.09476 -0.4866,0.12926c-0.20468,0.03507 -0.45215,0.05206 -0.74222,0.05206c-0.30704,0 -0.55853,-0.01698 -0.75455,-0.05206c-0.1965,-0.0345 -0.35849,-0.07838 -0.48657,-0.12926c-0.12808,-0.05267 -0.21817,-0.12224 -0.26959,-0.20882c-0.05093,-0.08656 -0.07663,-0.1813 -0.07663,-0.28484l0,-12.7328l-9.52417,-19.30627c-0.11932,-0.25968 -0.18776,-0.46673 -0.20473,-0.62289c-0.01695,-0.15618 0.02107,-0.27665 0.11581,-0.36322c0.09302,-0.08653 0.25148,-0.14796 0.47316,-0.18307c0.22226,-0.03392 0.50357,-0.05088 0.84512,-0.05088c0.37552,0 0.67905,0.01228 0.90955,0.03862c0.22983,0.02573 0.41635,0.06491 0.56256,0.11755c0.14453,0.05089 0.25156,0.12048 0.32001,0.20705c0.06784,0.08659 0.13623,0.19126 0.20468,0.31173l5.06918,10.47109c0.47778,0.98787 0.95218,2.01082 1.4212,3.06653c0.46967,1.05687 0.94287,2.12254 1.42065,3.19637l0.05093,0c0.44397,-1.02296 0.896,-2.05293 1.35687,-3.09285c0.46094,-1.03876 0.93057,-2.06872 1.40845,-3.09166l5.12119,-10.54948c0.05145,-0.12047 0.10995,-0.22514 0.17957,-0.31173c0.06668,-0.08657 0.16083,-0.15616 0.28134,-0.20705c0.1181,-0.05264 0.27661,-0.09179 0.47311,-0.11755c0.19595,-0.02632 0.43866,-0.03862 0.73056,-0.03862c0.40939,0 0.74274,0.01696 0.99835,0.0509c0.25616,0.0351 0.43515,0.10001 0.53754,0.19533c0.10229,0.09476 0.14386,0.22052 0.12805,0.37667c-0.01752,0.15616 -0.08655,0.35561 -0.20532,0.59715l-9.52472,19.30627z" id="svg_21"/>
    <path stroke="null" fill="#5A4A42" d="m286.99625,92.12341l-0.02573,0l-6.24707,18.08445l12.67429,0l-6.40149,-18.08445zm13.7493,29.15272c0.10297,0.25969 0.14856,0.47198 0.14157,0.63634c-0.00995,0.16611 -0.06842,0.2901 -0.18069,0.37666c-0.10999,0.08717 -0.28024,0.1439 -0.51181,0.16963c-0.22986,0.02573 -0.52463,0.03918 -0.88315,0.03918s-0.64395,-0.01344 -0.85858,-0.03918c-0.21347,-0.02573 -0.37961,-0.06434 -0.49951,-0.11698c-0.11993,-0.05265 -0.20764,-0.12108 -0.26849,-0.2088c-0.06021,-0.0848 -0.11462,-0.19009 -0.1655,-0.31058l-3.17471,-8.96445l-14.54306,0l-3.0466,8.9118c-0.03455,0.12226 -0.08539,0.22578 -0.15381,0.31233c-0.06848,0.08658 -0.16202,0.15967 -0.28192,0.22051c-0.11932,0.06139 -0.28604,0.10879 -0.49832,0.1427c-0.21466,0.03509 -0.48254,0.05264 -0.80716,0.05264c-0.35852,0 -0.65677,-0.01755 -0.896,-0.05264c-0.23862,-0.03391 -0.4147,-0.09475 -0.52405,-0.1819c-0.11227,-0.08598 -0.17197,-0.20705 -0.17899,-0.3632c-0.00998,-0.15617 0.03748,-0.36437 0.13977,-0.62406l11.59756,-31.98644c0.05093,-0.13745 0.12808,-0.25502 0.23041,-0.34976s0.23575,-0.16962 0.3978,-0.22052c0.16196,-0.05261 0.35846,-0.09122 0.58838,-0.11696c0.23041,-0.0269 0.49011,-0.03919 0.78018,-0.03919c0.30765,0 0.57672,0.01229 0.80716,0.03919c0.23044,0.02573 0.42697,0.06435 0.58899,0.11696c0.16199,0.0509 0.29007,0.12576 0.38425,0.22052c0.09357,0.09474 0.16553,0.21231 0.21695,0.34976l11.59933,31.98644z" id="svg_22"/>
    <path stroke="null" fill="#5A4A42" d="m323.37747,90.12254c0,0.24272 -0.01697,0.45327 -0.0509,0.63636c-0.03506,0.1813 -0.08536,0.32928 -0.15378,0.44099c-0.06845,0.11346 -0.15445,0.20002 -0.25623,0.2597c-0.10233,0.0614 -0.22162,0.0918 -0.35849,0.0918l-12.67139,0l0,30.271c0,0.10353 -0.02695,0.19885 -0.07843,0.28543c-0.05084,0.08656 -0.13623,0.15557 -0.25558,0.20821c-0.1199,0.05147 -0.27838,0.09534 -0.47375,0.12926c-0.19766,0.03509 -0.44858,0.05264 -0.75568,0.05264c-0.29007,0 -0.53632,-0.01755 -0.74161,-0.05264c-0.20529,-0.03392 -0.36786,-0.0778 -0.48721,-0.12926c-0.11984,-0.05264 -0.20587,-0.12165 -0.25616,-0.20821c-0.05148,-0.08658 -0.07544,-0.1819 -0.07544,-0.28543l0,-31.46707c0,-0.62289 0.1608,-1.05221 0.48486,-1.28614c0.32462,-0.23396 0.6416,-0.34978 0.94867,-0.34978l14.36111,0c0.13684,0 0.25616,0.03044 0.35855,0.09009c0.10233,0.06082 0.18771,0.14737 0.25613,0.25969c0.06787,0.11346 0.11874,0.25968 0.15387,0.44275c0.03448,0.1813 0.05145,0.38541 0.05145,0.61061" id="svg_23"/>
    <path stroke="null" fill="#5A4A42" d="m345.34436,90.12254c0,0.24272 -0.01755,0.45327 -0.052,0.63636c-0.03397,0.1813 -0.08545,0.32928 -0.15384,0.44099c-0.06787,0.11346 -0.15326,0.20002 -0.25562,0.2597c-0.10294,0.0614 -0.22226,0.0918 -0.35849,0.0918l-12.67203,0l0,30.271c0,0.10353 -0.02631,0.19885 -0.07779,0.28543c-0.05087,0.08656 -0.13626,0.15557 -0.25616,0.20821c-0.1199,0.05147 -0.27841,0.09534 -0.47314,0.12926c-0.19772,0.03509 -0.44922,0.05264 -0.75571,0.05264c-0.2901,0 -0.53693,-0.01755 -0.74225,-0.05264c-0.20468,-0.03392 -0.36783,-0.0778 -0.48773,-0.12926c-0.11871,-0.05264 -0.20471,-0.12165 -0.2562,-0.20821c-0.05087,-0.08658 -0.07483,-0.1819 -0.07483,-0.28543l0,-31.46707c0,-0.62289 0.15964,-1.05221 0.48486,-1.28614c0.32401,-0.23396 0.64102,-0.34978 0.94864,-0.34978l14.36111,0c0.13629,0 0.2562,0.03044 0.35852,0.09009c0.10239,0.06082 0.18716,0.14737 0.25565,0.25969c0.06839,0.11346 0.11987,0.25968 0.15378,0.44275c0.03568,0.1813 0.05322,0.38541 0.05322,0.61061" id="svg_24"/>
    <path stroke="null" fill="#5A4A42" d="m368.46341,120.93866c0,0.22518 -0.01691,0.42403 -0.05145,0.59716s-0.09006,0.32051 -0.1655,0.44275c-0.07782,0.12049 -0.16849,0.21174 -0.27078,0.27197c-0.10239,0.06084 -0.21173,0.09127 -0.33163,0.09127l-15.51392,0c-0.30707,0 -0.62405,-0.11699 -0.94809,-0.35096c-0.32516,-0.23454 -0.48544,-0.66209 -0.48544,-1.28615l0,-30.34879c0,-0.62347 0.16028,-1.05219 0.48544,-1.28672c0.32404,-0.23397 0.64102,-0.34979 0.94809,-0.34979l15.28293,0c0.11987,0 0.2316,0.03044 0.33337,0.0901c0.10291,0.06081 0.18774,0.15263 0.25613,0.27312c0.06845,0.12225 0.11929,0.27315 0.15384,0.45506c0.03452,0.1813 0.05087,0.39361 0.05087,0.63632c0,0.22519 -0.01636,0.42404 -0.05087,0.59717c-0.03455,0.1743 -0.08539,0.31702 -0.15384,0.4293c-0.06839,0.11288 -0.15378,0.20004 -0.25613,0.25969c-0.10236,0.06084 -0.2135,0.09124 -0.33337,0.09124l-13.59323,0l0,11.82214l11.72571,0c0.13684,0 0.25613,0.03044 0.35852,0.09126s0.18716,0.14739 0.25613,0.25968c0.06787,0.11348 0.11938,0.25968 0.15384,0.4416c0.03452,0.18248 0.05148,0.39478 0.05148,0.63751c0,0.22399 -0.01697,0.41936 -0.05148,0.58369c-0.03445,0.16494 -0.08539,0.2989 -0.15384,0.40243c-0.06842,0.10469 -0.15384,0.18247 -0.25613,0.23394c-0.10239,0.05264 -0.22168,0.07836 -0.35852,0.07836l-11.72571,0l0,13.40778l13.82483,0c0.1199,0 0.22986,0.03043 0.33163,0.09007c0.10233,0.06141 0.19296,0.14738 0.27078,0.26083c0.07544,0.11232 0.13159,0.2597 0.16553,0.44158c0.03391,0.18134 0.05081,0.39364 0.05081,0.63638" id="svg_25"/>
    <path stroke="null" fill="#5A4A42" d="m399.20294,121.27613c0.10233,0.25969 0.14859,0.47198 0.14151,0.63634c-0.0105,0.16611 -0.07306,0.2901 -0.19299,0.37666c-0.11929,0.08717 -0.30295,0.1439 -0.5509,0.16963c-0.24625,0.02573 -0.55856,0.03918 -0.93408,0.03918c-0.3761,0 -0.66617,-0.01344 -0.8703,-0.03918s-0.36322,-0.06434 -0.47318,-0.11698c-0.11172,-0.05265 -0.18481,-0.12108 -0.2193,-0.2088c-0.03452,-0.0848 -0.07544,-0.19009 -0.12692,-0.31058l-10.39392,-29.6481l-0.02692,0l-10.11133,29.6481c-0.0369,0.12049 -0.0784,0.22578 -0.12927,0.31058c-0.05151,0.08772 -0.13687,0.15615 -0.25616,0.2088c-0.11935,0.05264 -0.28015,0.09125 -0.48492,0.11698c-0.20468,0.02573 -0.48779,0.03918 -0.84628,0.03918c-0.37546,0 -0.68195,-0.01755 -0.9212,-0.05264c-0.23862,-0.03391 -0.41995,-0.09007 -0.53632,-0.16845c-0.12228,-0.07777 -0.18073,-0.1901 -0.18073,-0.33747s0.05084,-0.36789 0.15381,-0.66325l11.49576,-31.98644c0.05145,-0.13745 0.12698,-0.25502 0.22989,-0.34976c0.10233,-0.09476 0.2334,-0.16962 0.39774,-0.22052c0.1608,-0.05261 0.35797,-0.09122 0.58719,-0.11696c0.23163,-0.0269 0.49252,-0.03919 0.78259,-0.03919c0.20529,0 0.39246,0.00352 0.5632,0.01229c0.17087,0.00995 0.32523,0.0269 0.46152,0.05264c0.13626,0.02513 0.2561,0.05556 0.35791,0.09122c0.10239,0.03394 0.19482,0.0778 0.28021,0.12928c0.08536,0.05206 0.15378,0.11697 0.20526,0.19476c0.0509,0.07837 0.09476,0.16084 0.12927,0.24625l11.46887,31.98647l0,-0.00002z" id="svg_26"/>
    <path stroke="null" fill="#5A4A42" d="m408.3949,121.8224c0,0.10353 -0.02695,0.19885 -0.07837,0.28543c-0.05087,0.08656 -0.13574,0.15557 -0.25558,0.20821c-0.11932,0.05089 -0.27841,0.09534 -0.47372,0.12926c-0.19769,0.03509 -0.44864,0.05264 -0.75571,0.05264c-0.29007,0 -0.53638,-0.01755 -0.74161,-0.05264c-0.20529,-0.03392 -0.36789,-0.07838 -0.48718,-0.12926c-0.11993,-0.05264 -0.2059,-0.12165 -0.2562,-0.20821c-0.05151,-0.08658 -0.07547,-0.1819 -0.07547,-0.28543l0,-32.5836c0,-0.10352 0.02924,-0.19885 0.08777,-0.2866c0.06079,-0.08656 0.1532,-0.15499 0.28241,-0.20763c0.12695,-0.05206 0.29016,-0.09476 0.48492,-0.12986c0.19769,-0.03449 0.43164,-0.05145 0.70477,-0.05145c0.3071,0 0.55798,0.01696 0.75565,0.05145c0.19537,0.0351 0.35391,0.0778 0.47372,0.12986c0.11935,0.05264 0.20474,0.12107 0.25565,0.20763c0.05148,0.08775 0.07837,0.18308 0.07837,0.2866l0,32.5836l0.00058,0z" id="svg_27"/>
    <path stroke="null" fill="#5A4A42" d="m438.24652,121.76975c0,0.12167 -0.01694,0.22578 -0.05084,0.31233c-0.0351,0.08597 -0.11234,0.15909 -0.23163,0.22051c-0.1199,0.06083 -0.28012,0.10819 -0.48544,0.1427c-0.20474,0.03509 -0.47025,0.05206 -0.79428,0.05206c-0.30704,0 -0.61758,-0.01698 -0.93405,-0.05206c-0.31757,-0.03451 -0.55798,-0.10762 -0.72873,-0.22107c-0.17084,-0.11173 -0.31708,-0.24568 -0.43692,-0.40183l-13.38907,-17.25334l0,17.25334c0,0.10353 -0.02634,0.19885 -0.07776,0.28484c-0.05093,0.08656 -0.13574,0.15616 -0.25565,0.20879c-0.11987,0.05089 -0.27896,0.09476 -0.47375,0.12926c-0.19763,0.03509 -0.44858,0.05206 -0.75623,0.05206c-0.2901,0 -0.53632,-0.01698 -0.74103,-0.05206c-0.20532,-0.03451 -0.36853,-0.07838 -0.48782,-0.12926c-0.11929,-0.05264 -0.20526,-0.12224 -0.25616,-0.20879c-0.05087,-0.08599 -0.07544,-0.18131 -0.07544,-0.28484l0,-32.58418c0,-0.10354 0.02457,-0.19827 0.07544,-0.286c0.05151,-0.08657 0.13687,-0.15501 0.25616,-0.20764c0.11929,-0.05204 0.2825,-0.09531 0.48782,-0.13042c0.20471,-0.03392 0.45093,-0.0509 0.74103,-0.0509c0.30765,0 0.55859,0.01696 0.75623,0.0509c0.19479,0.0351 0.3533,0.07838 0.47375,0.13042c0.11935,0.05264 0.20471,0.12107 0.25565,0.20764c0.05142,0.08773 0.07776,0.18246 0.07776,0.286l0,15.27821l12.82642,-15.27821c0.10239,-0.1205 0.21347,-0.22518 0.33337,-0.31173c0.11929,-0.08658 0.25613,-0.15618 0.40939,-0.20708c0.15384,-0.05261 0.33167,-0.09183 0.53632,-0.11755c0.20593,-0.02631 0.46094,-0.0386 0.76855,-0.0386c0.30649,0 0.55505,0.01696 0.74341,0.0509c0.18771,0.0351 0.3363,0.08305 0.44919,0.14389c0.10992,0.06081 0.18307,0.12923 0.2164,0.20761c0.03452,0.07779 0.05148,0.16902 0.05148,0.27256c0,0.19069 -0.04855,0.37315 -0.14099,0.54511c-0.09302,0.17429 -0.25208,0.38192 -0.47375,0.62405l-12.05963,14.00551l12.87961,16.3959c0.23868,0.31117 0.3826,0.52816 0.43402,0.64864c0.05029,0.12223 0.07718,0.22576 0.07718,0.31232" id="svg_28"/>
    <path stroke="null" fill="#5A4A42" d="m467.30624,121.8224c0,0.10353 -0.02747,0.19885 -0.07837,0.28543c-0.05145,0.08656 -0.13629,0.15557 -0.2562,0.20821c-0.11929,0.05089 -0.2807,0.09534 -0.48541,0.12926c-0.20529,0.03509 -0.45328,0.05264 -0.74338,0.05264c-0.30649,0 -0.55795,-0.01755 -0.75336,-0.05264c-0.19769,-0.03392 -0.35562,-0.07838 -0.47546,-0.12926c-0.11935,-0.05264 -0.20471,-0.12165 -0.25623,-0.20821c-0.05087,-0.08658 -0.07544,-0.1819 -0.07544,-0.28543l0,-15.66833l-16.53806,0l0,15.66833c0,0.10353 -0.02689,0.19885 -0.07892,0.28543c-0.05087,0.08656 -0.13571,0.15557 -0.2562,0.20821c-0.11929,0.05089 -0.2778,0.09534 -0.47256,0.12926c-0.19827,0.03509 -0.44925,0.05264 -0.75629,0.05264c-0.2901,0 -0.53635,-0.01755 -0.74161,-0.05264c-0.20471,-0.03392 -0.36786,-0.07838 -0.48718,-0.12926c-0.11993,-0.05264 -0.20529,-0.12165 -0.25616,-0.20821c-0.05148,-0.08658 -0.07608,-0.1819 -0.07608,-0.28543l0,-32.5836c0,-0.10352 0.0246,-0.19885 0.07608,-0.2866c0.05087,-0.08656 0.13565,-0.15499 0.25616,-0.20763c0.11932,-0.05206 0.28247,-0.09476 0.48718,-0.12986c0.20526,-0.03449 0.45096,-0.05145 0.74161,-0.05145c0.30704,0 0.55801,0.01696 0.75629,0.05145c0.19476,0.0351 0.35327,0.0778 0.47256,0.12986c0.11987,0.05264 0.20532,0.12107 0.2562,0.20763c0.05203,0.08775 0.07892,0.18308 0.07892,0.2866l0,14.08328l16.53806,0l0,-14.08328c0,-0.10352 0.02457,-0.19885 0.07544,-0.2866c0.05209,-0.08656 0.13687,-0.15499 0.25623,-0.20763c0.11929,-0.05206 0.27777,-0.09476 0.47546,-0.12986c0.1954,-0.03449 0.44687,-0.05145 0.75336,-0.05145c0.2901,0 0.53864,0.01696 0.74338,0.05145c0.20471,0.0351 0.36612,0.0778 0.48541,0.12986c0.11932,0.05264 0.20474,0.12107 0.2562,0.20763c0.0509,0.08775 0.07837,0.18308 0.07837,0.2866l0,32.5836z" id="svg_29"/>
    <path stroke="null" fill="#5A4A42" d="m248.26616,184.79749c0,0.22517 -0.01694,0.4252 -0.05089,0.59775c-0.03566,0.17255 -0.09068,0.31934 -0.16731,0.44099c-0.07718,0.12227 -0.16609,0.21231 -0.26842,0.27316c-0.10239,0.06082 -0.21408,0.09006 -0.33278,0.09006l-15.51569,0c-0.30707,0 -0.62291,-0.11699 -0.94748,-0.35152c-0.32402,-0.23337 -0.48605,-0.66327 -0.48605,-1.28438l0,-30.3488c0,-0.62465 0.16203,-1.05455 0.48605,-1.2885c0.32454,-0.23335 0.64041,-0.35094 0.94748,-0.35094l15.2852,0c0.11876,0 0.23048,0.0322 0.33281,0.09302s0.1866,0.15089 0.2562,0.27022c0.06725,0.12222 0.11813,0.27313 0.15382,0.45619c0.03392,0.1825 0.05086,0.39482 0.05086,0.63637c0,0.224 -0.01694,0.42462 -0.05086,0.59714c-0.03569,0.17372 -0.08658,0.31758 -0.15382,0.42932c-0.0696,0.11169 -0.15381,0.20001 -0.2562,0.26028c-0.10233,0.06081 -0.21405,0.09004 -0.33281,0.09004l-13.5955,0l0,11.82335l11.72687,0c0.13506,0 0.25613,0.02982 0.35847,0.09007c0.10236,0.06081 0.18663,0.14621 0.25618,0.26085c0.06667,0.1123 0.11819,0.25851 0.15327,0.44157c0.03334,0.18071 0.05148,0.39246 0.05148,0.63634c0,0.224 -0.01817,0.41937 -0.05148,0.58488c-0.03508,0.16318 -0.08661,0.29829 -0.15327,0.40242c-0.06955,0.10292 -0.15382,0.1813 -0.25618,0.23393c-0.10234,0.05147 -0.22342,0.07896 -0.35847,0.07896l-11.72687,0l0,13.40541l13.82599,0c0.1187,0 0.23039,0.03159 0.33278,0.09184c0.10233,0.0614 0.19124,0.14679 0.26842,0.25851c0.07663,0.11464 0.13165,0.26086 0.16731,0.44159c0.03336,0.18423 0.05089,0.39595 0.05089,0.63985" id="svg_30"/>
    <path stroke="null" fill="#5A4A42" d="m276.30118,185.62918c0,0.11932 -0.01694,0.22461 -0.05148,0.30998c-0.03506,0.08717 -0.11169,0.16028 -0.23044,0.22168c-0.11929,0.06081 -0.28134,0.10703 -0.48602,0.14388c-0.20474,0.03392 -0.47083,0.05145 -0.7937,0.05145c-0.30704,0 -0.61935,-0.01753 -0.93521,-0.05145c-0.31522,-0.03685 -0.55972,-0.10995 -0.72876,-0.22168c-0.17194,-0.11229 -0.31699,-0.24681 -0.43573,-0.40297l-13.39078,-17.25276l0,17.25276c0,0.10294 -0.02518,0.20004 -0.07666,0.28543c-0.05084,0.08772 -0.13629,0.15614 -0.25616,0.20703c-0.11932,0.0544 -0.27777,0.09476 -0.47256,0.13219c-0.19653,0.03392 -0.44861,0.05145 -0.75629,0.05145c-0.29004,0 -0.53748,-0.01753 -0.74216,-0.05145c-0.20477,-0.03685 -0.36728,-0.07779 -0.48663,-0.13219c-0.11935,-0.05147 -0.20471,-0.11931 -0.25616,-0.20703c-0.0509,-0.08539 -0.07663,-0.18309 -0.07663,-0.28543l0,-32.58418c0,-0.10236 0.02573,-0.19771 0.07663,-0.28542c0.05145,-0.0854 0.13681,-0.15617 0.25616,-0.20706c0.11935,-0.05089 0.28186,-0.09476 0.48663,-0.12984c0.20471,-0.03394 0.45212,-0.05264 0.74216,-0.05264c0.30768,0 0.55975,0.01871 0.75629,0.05264c0.19479,0.03508 0.35324,0.07895 0.47256,0.12984c0.11987,0.05147 0.20532,0.12225 0.25616,0.20706c0.05148,0.08771 0.07666,0.18306 0.07666,0.28542l0,15.28055l12.82751,-15.28055c0.10297,-0.1199 0.21234,-0.22461 0.3334,-0.30939c0.11816,-0.08777 0.25616,-0.15677 0.40939,-0.2094c0.15384,-0.05208 0.33286,-0.09065 0.53754,-0.11758c0.20529,-0.02397 0.46091,-0.03801 0.76794,-0.03801c0.30765,0 0.55386,0.01872 0.74277,0.05264c0.18777,0.0351 0.33633,0.08128 0.44748,0.14153c0.1105,0.06084 0.18304,0.13219 0.21814,0.20999c0.03391,0.07779 0.05087,0.16843 0.05087,0.27078c0,0.19241 -0.04736,0.37259 -0.14096,0.5463c-0.09415,0.17369 -0.25262,0.38249 -0.47318,0.62347l-12.05963,14.00551l12.87903,16.39474c0.23865,0.31172 0.3837,0.52872 0.43521,0.65038c0.05084,0.11989 0.0766,0.22403 0.0766,0.31233" id="svg_31"/>
    <path stroke="null" fill="#5A4A42" d="m302.74762,185.62918c0,0.11932 -0.01697,0.22461 -0.05084,0.30998c-0.0351,0.08717 -0.11234,0.16028 -0.23224,0.22168c-0.11932,0.06081 -0.28018,0.10703 -0.48486,0.14388c-0.20468,0.03392 -0.47079,0.05145 -0.79425,0.05145c-0.30704,0 -0.61765,-0.01753 -0.93463,-0.05145c-0.31699,-0.03685 -0.55798,-0.10995 -0.72815,-0.22168c-0.17142,-0.11229 -0.31763,-0.24681 -0.43692,-0.40297l-13.39026,-17.25276l0,17.25276c0,0.10294 -0.02512,0.20004 -0.0766,0.28543c-0.05087,0.08772 -0.13626,0.15614 -0.25613,0.20703c-0.11932,0.0544 -0.27786,0.09476 -0.4726,0.13219c-0.19653,0.03392 -0.44864,0.05145 -0.75629,0.05145c-0.29007,0 -0.53751,-0.01753 -0.74219,-0.05145c-0.20471,-0.03685 -0.36728,-0.07779 -0.48663,-0.13219c-0.11932,-0.05147 -0.20471,-0.11931 -0.25616,-0.20703c-0.0509,-0.08539 -0.07663,-0.18309 -0.07663,-0.28543l0,-32.58418c0,-0.10236 0.02573,-0.19771 0.07663,-0.28542c0.05145,-0.0854 0.13684,-0.15617 0.25616,-0.20706c0.11935,-0.05089 0.28192,-0.09476 0.48663,-0.12984c0.20468,-0.03394 0.45212,-0.05264 0.74219,-0.05264c0.30765,0 0.55975,0.01871 0.75629,0.05264c0.19473,0.03508 0.35327,0.07895 0.4726,0.12984c0.11987,0.05147 0.20526,0.12225 0.25613,0.20706c0.05148,0.08771 0.0766,0.18306 0.0766,0.28542l0,15.28055l12.82645,-15.28055c0.10287,-0.1199 0.21463,-0.22461 0.33395,-0.30939c0.1199,-0.08777 0.25616,-0.15677 0.41,-0.2094c0.15381,-0.05208 0.3316,-0.09065 0.53632,-0.11758c0.20529,-0.02397 0.46094,-0.03801 0.76794,-0.03801c0.30762,0 0.55621,0.01872 0.74399,0.05264c0.18771,0.0351 0.3363,0.08128 0.44858,0.14153c0.10995,0.06084 0.18307,0.13219 0.21698,0.20999c0.03452,0.07779 0.05084,0.16843 0.05084,0.27078c0,0.19241 -0.04849,0.37259 -0.14029,0.5463c-0.09302,0.17369 -0.25208,0.38249 -0.47379,0.62347l-12.0596,14.00551l12.87903,16.39474c0.23865,0.31172 0.38251,0.52872 0.43396,0.65038c0.05084,0.11989 0.07779,0.22403 0.07779,0.31233" id="svg_32"/>
    <path stroke="null" fill="#5A4A42" d="m332.37,185.13379c0.10236,0.26088 0.14856,0.47375 0.14154,0.63695c-0.01053,0.16551 -0.07312,0.2901 -0.19302,0.37782c-0.11932,0.0854 -0.30234,0.14153 -0.55096,0.16846c-0.24625,0.0269 -0.55853,0.03915 -0.93405,0.03915c-0.37607,0 -0.66617,-0.01225 -0.87027,-0.03915s-0.36325,-0.06609 -0.4726,-0.11699c-0.1123,-0.05147 -0.18539,-0.12222 -0.21994,-0.20705c-0.03448,-0.08772 -0.07605,-0.19006 -0.12689,-0.31175l-10.39389,-29.64633l-0.02692,0l-10.11139,29.64633c-0.03687,0.12169 -0.07837,0.22403 -0.12924,0.31175c-0.05206,0.08539 -0.1369,0.15616 -0.25623,0.20705c-0.11929,0.0509 -0.28009,0.09006 -0.48483,0.11699c-0.20529,0.0269 -0.48776,0.03915 -0.84631,0.03915c-0.37549,0 -0.68256,-0.01753 -0.92117,-0.05144c-0.23862,-0.03687 -0.41995,-0.093 -0.53632,-0.17081c-0.12225,-0.07837 -0.18076,-0.19006 -0.18076,-0.33629s0.05087,-0.3679 0.15326,-0.66385l11.49637,-31.9847c0.05145,-0.13921 0.12692,-0.25616 0.22986,-0.35207c0.10239,-0.09477 0.23337,-0.16788 0.39767,-0.22168c0.16089,-0.0515 0.35794,-0.0901 0.58725,-0.11639c0.23163,-0.02515 0.49246,-0.0392 0.78259,-0.0392c0.20471,0 0.39246,0.00528 0.56326,0.01405c0.17078,0.0076 0.32513,0.02515 0.46143,0.05144c0.13629,0.02693 0.25623,0.05618 0.35797,0.0901c0.10236,0.03685 0.19531,0.07779 0.28015,0.13219c0.08539,0.05086 0.15442,0.11696 0.20587,0.19475c0.05087,0.07544 0.09531,0.15849 0.12927,0.24681l11.46829,31.9847z" id="svg_33"/>
    <path stroke="null" fill="#5A4A42" d="m361.22443,185.68065c0,0.10236 -0.02747,0.20004 -0.07837,0.28485c-0.05145,0.08772 -0.13626,0.15675 -0.2562,0.20703c-0.11929,0.05382 -0.28073,0.09534 -0.48541,0.13162c-0.20532,0.03508 -0.45328,0.05145 -0.74338,0.05145c-0.30652,0 -0.55801,-0.01637 -0.75336,-0.05145c-0.19766,-0.03629 -0.35556,-0.0778 -0.47549,-0.13162c-0.11993,-0.05089 -0.20471,-0.11931 -0.25616,-0.20703c-0.05148,-0.08539 -0.07544,-0.18306 -0.07544,-0.28485l0,-15.6689l-16.53809,0l0,15.6689c0,0.10236 -0.02689,0.20004 -0.07895,0.28485c-0.05087,0.08772 -0.13565,0.15675 -0.2562,0.20703c-0.11929,0.05382 -0.27777,0.09534 -0.47256,0.13162c-0.1983,0.03508 -0.44916,0.05145 -0.75626,0.05145c-0.2901,0 -0.53632,-0.01637 -0.74164,-0.05145c-0.20468,-0.03629 -0.36789,-0.0778 -0.48776,-0.13162c-0.11929,-0.05089 -0.20468,-0.11931 -0.25558,-0.20703c-0.05148,-0.08539 -0.07608,-0.18306 -0.07608,-0.28485l0,-32.58476c0,-0.10294 0.0246,-0.19769 0.07608,-0.28542c0.0509,-0.0854 0.13568,-0.15675 0.25558,-0.20705c0.11987,-0.05148 0.28308,-0.09535 0.48776,-0.12927c0.20532,-0.03392 0.45099,-0.0538 0.74164,-0.0538c0.3071,0 0.55795,0.01988 0.75626,0.0538c0.19479,0.03392 0.35327,0.07779 0.47256,0.12927c0.11993,0.05087 0.20532,0.12164 0.2562,0.20705c0.05206,0.08772 0.07895,0.18306 0.07895,0.28542l0,14.08272l16.53809,0l0,-14.08272c0,-0.10294 0.02396,-0.19769 0.07544,-0.28542c0.05203,-0.0854 0.13623,-0.15675 0.25616,-0.20705c0.11932,-0.05148 0.27783,-0.09535 0.47549,-0.12927c0.19534,-0.03392 0.44684,-0.0538 0.75336,-0.0538c0.2901,0 0.53867,0.01988 0.74338,0.0538c0.20468,0.03392 0.36612,0.07779 0.48541,0.12927c0.11932,0.05087 0.20474,0.12164 0.2562,0.20705c0.0509,0.08772 0.07837,0.18306 0.07837,0.28542l0,32.58476z" id="svg_34"/>
    <path stroke="null" fill="#5A4A42" d="m387.33807,184.79749c0,0.22517 -0.01636,0.4252 -0.05087,0.59775c-0.03448,0.17255 -0.09006,0.31934 -0.16611,0.44099c-0.07837,0.12227 -0.16846,0.21231 -0.27078,0.27316c-0.10233,0.06082 -0.21176,0.09006 -0.33105,0.09006l-17.61365,0c-0.30765,0 -0.57315,-0.10762 -0.79489,-0.32402c-0.2222,-0.217 -0.33099,-0.57553 -0.33099,-1.07854l0,-0.5726c0,-0.15616 0.00702,-0.31174 0.02402,-0.46788c0.01633,-0.15677 0.05615,-0.31934 0.11401,-0.49306c0.06146,-0.17313 0.15442,-0.36848 0.28305,-0.58548c0.1264,-0.21698 0.30243,-0.47023 0.52411,-0.76501l10.19031,-13.69376l-9.29312,-11.35484c-0.20471,-0.2439 -0.36792,-0.45621 -0.48721,-0.63635c-0.1199,-0.18309 -0.21463,-0.36086 -0.28015,-0.534c-0.0708,-0.17313 -0.117,-0.35092 -0.14151,-0.53107c-0.02695,-0.18307 -0.03864,-0.38486 -0.03864,-0.61237l0,-0.57085c0,-0.46791 0.10294,-0.81943 0.30707,-1.05397c0.20471,-0.23337 0.47787,-0.35091 0.8194,-0.35091l16.48657,0c0.1199,0 0.23163,0.03217 0.33398,0.093s0.18774,0.15091 0.25616,0.27025c0.06848,0.12219 0.11929,0.2731 0.15439,0.45619c0.03394,0.18248 0.0509,0.39479 0.0509,0.63634c0,0.224 -0.01697,0.42461 -0.0509,0.59715c-0.0351,0.17371 -0.08539,0.31758 -0.15439,0.42932c-0.06787,0.11169 -0.15378,0.2 -0.25616,0.26027c-0.10236,0.06082 -0.21408,0.09006 -0.33398,0.09006l-13.82477,0l9.16562,11.17294c0.10239,0.12167 0.18777,0.23805 0.25558,0.35092c0.06842,0.11229 0.12512,0.22928 0.16611,0.35152c0.04385,0.12225 0.07315,0.24332 0.09009,0.3632c0.01697,0.12224 0.02689,0.25151 0.02689,0.38954c0,0.10587 -0.00992,0.21814 -0.02689,0.33922c-0.01694,0.1199 -0.04623,0.2363 -0.09009,0.3492c-0.04099,0.11461 -0.09769,0.2316 -0.16611,0.35149c-0.06723,0.12166 -0.1532,0.24332 -0.25558,0.36322l-10.34415,13.92773l15.23492,0c0.11929,0 0.22925,0.03156 0.33105,0.09181c0.10233,0.06143 0.19241,0.14682 0.27078,0.25853c0.07605,0.11462 0.13214,0.26085 0.16611,0.44157c0.03458,0.18367 0.05087,0.39537 0.05087,0.63927" id="svg_35"/>
    <path stroke="null" fill="#5A4A42" d="m397.75885,185.68065c0,0.10236 -0.02689,0.20004 -0.07776,0.28485c-0.05145,0.08772 -0.13681,0.15675 -0.25616,0.20703c-0.11932,0.05382 -0.27844,0.09534 -0.47372,0.13162c-0.19714,0.03508 -0.44864,0.05145 -0.75568,0.05145c-0.29013,0 -0.53635,-0.01637 -0.74112,-0.05145c-0.20584,-0.03629 -0.36844,-0.0778 -0.48773,-0.13162c-0.1199,-0.05089 -0.20535,-0.11931 -0.25616,-0.20703c-0.05148,-0.08539 -0.07547,-0.18306 -0.07547,-0.28485l0,-32.58476c0,-0.10294 0.02924,-0.19769 0.08777,-0.28542c0.06082,-0.0854 0.15317,-0.15675 0.28247,-0.20705c0.12634,-0.05148 0.29007,-0.09535 0.4848,-0.12927c0.19772,-0.03392 0.4317,-0.0538 0.70483,-0.0538c0.30707,0 0.55856,0.01988 0.75568,0.0538c0.19534,0.03392 0.35382,0.07779 0.47369,0.12927c0.11877,0.05087 0.20477,0.12164 0.25623,0.20705c0.05087,0.08772 0.07782,0.18306 0.07782,0.28542l0,32.58476l0.00052,0z" id="svg_36"/>
    <path stroke="null" fill="#5A4A42" d="m417.21664,155.97932l-0.02692,0l-6.24655,18.08502l12.6738,0l-6.40033,-18.08502zm13.74698,29.15446c0.10236,0.26088 0.15091,0.47375 0.14154,0.63695c-0.0076,0.16551 -0.06839,0.2901 -0.17838,0.37782c-0.11169,0.0854 -0.2825,0.14153 -0.51178,0.16846c-0.2316,0.0269 -0.52695,0.03915 -0.88608,0.03915c-0.35736,0 -0.64331,-0.01225 -0.8551,-0.03915c-0.21521,-0.02693 -0.38013,-0.06609 -0.49945,-0.11699c-0.11993,-0.05147 -0.20999,-0.12222 -0.26846,-0.20705c-0.06079,-0.08772 -0.11694,-0.19006 -0.16791,-0.31175l-3.17468,-8.96561l-14.54187,0l-3.04541,8.91415c-0.03687,0.1199 -0.08783,0.22459 -0.15384,0.30998c-0.06787,0.08717 -0.16327,0.16028 -0.28253,0.22166c-0.11993,0.06084 -0.2854,0.10762 -0.49948,0.14388c-0.21231,0.03394 -0.48257,0.0515 -0.80545,0.0515c-0.35791,0 -0.65796,-0.01756 -0.89655,-0.0515c-0.23865,-0.03683 -0.41409,-0.09766 -0.52405,-0.18304c-0.11172,-0.0854 -0.17081,-0.20706 -0.18021,-0.36322c-0.00812,-0.15614 0.03806,-0.36322 0.14102,-0.62405l11.59811,-31.98471c0.05209,-0.13919 0.12753,-0.25618 0.22989,-0.3521c0.10233,-0.09473 0.23392,-0.16785 0.39771,-0.22166c0.16083,-0.05145 0.35794,-0.09006 0.58722,-0.11641c0.2316,-0.02513 0.49362,-0.03917 0.78311,-0.03917c0.3071,0 0.57498,0.01404 0.80423,0.03917c0.23224,0.02635 0.427,0.06496 0.59076,0.11641c0.16025,0.05382 0.29007,0.12694 0.38248,0.22166c0.09476,0.09592 0.16788,0.21233 0.2193,0.3521l11.59586,31.98352z" id="svg_37"/>
    <path stroke="null" fill="#5A4A42" d="m240.2767,219.83524l-0.02513,0l-6.24712,18.08508l12.67435,0l-6.4021,-18.08508zm13.74936,29.15445c0.10294,0.26085 0.14856,0.47375 0.14035,0.6364c-0.00876,0.16609 -0.06845,0.29005 -0.17957,0.37781c-0.11053,0.08537 -0.28134,0.14154 -0.51175,0.16843s-0.52405,0.03862 -0.8826,0.03862c-0.35855,0 -0.6451,-0.01225 -0.85802,-0.03862c-0.2135,-0.02689 -0.38074,-0.06607 -0.49889,-0.11697c-0.11928,-0.05145 -0.20941,-0.12225 -0.26907,-0.20764c-0.06021,-0.08714 -0.11461,-0.18944 -0.16609,-0.31113l-3.17473,-8.96562l-14.543,0l-3.04663,8.91414c-0.03391,0.11932 -0.0854,0.22461 -0.15384,0.30939c-0.06783,0.08775 -0.16197,0.16083 -0.28133,0.22171c-0.11929,0.06081 -0.28656,0.1082 -0.4989,0.14381c-0.21407,0.03455 -0.48253,0.0515 -0.8065,0.0515c-0.35855,0 -0.65746,-0.01695 -0.89607,-0.0515c-0.23918,-0.03619 -0.4147,-0.09763 -0.52464,-0.18303c-0.11229,-0.0854 -0.17194,-0.20705 -0.17897,-0.36319c-0.00995,-0.15675 0.03741,-0.36325 0.1404,-0.6241l11.59697,-31.98526c0.05145,-0.13861 0.12807,-0.25618 0.23042,-0.35152c0.10237,-0.09531 0.23569,-0.16844 0.39771,-0.22166c0.16203,-0.05148 0.35857,-0.09007 0.58899,-0.11639c0.23047,-0.02515 0.49014,-0.03923 0.78023,-0.03923c0.30708,0 0.57671,0.01408 0.80714,0.03923c0.23042,0.02632 0.42636,0.06491 0.58838,0.11639c0.16264,0.05322 0.29007,0.12636 0.38426,0.22166c0.09361,0.09534 0.16548,0.21233 0.217,0.35152l11.59869,31.98526l0.00006,0z" id="svg_38"/>
    <path stroke="null" fill="#5A4A42" d="m276.65973,217.83612c0,0.241 -0.01819,0.45329 -0.05093,0.63637c-0.03568,0.18013 -0.08716,0.32925 -0.15378,0.44099c-0.06964,0.1123 -0.15384,0.20004 -0.2562,0.26144c-0.10236,0.06082 -0.22287,0.09006 -0.35855,0.09006l-12.67377,0l0,30.271c0,0.10236 -0.02573,0.20003 -0.07721,0.28485c-0.05084,0.08774 -0.13623,0.15617 -0.25552,0.20703c-0.1199,0.0538 -0.27786,0.09476 -0.47321,0.13161c-0.1965,0.03452 -0.44861,0.05147 -0.75565,0.05147c-0.29068,0 -0.53812,-0.01695 -0.74283,-0.05147c-0.20474,-0.03685 -0.36673,-0.0778 -0.48663,-0.13161c-0.11926,-0.05145 -0.20468,-0.11929 -0.25555,-0.20703c-0.05148,-0.08539 -0.07721,-0.18307 -0.07721,-0.28485l0,-31.4659c0,-0.62405 0.1626,-1.05397 0.4866,-1.28731c0.32404,-0.23395 0.63986,-0.35153 0.94754,-0.35153l14.36343,0c0.13568,0 0.2562,0.03218 0.35855,0.09244c0.10236,0.06082 0.18655,0.14622 0.2562,0.25848c0.06662,0.11172 0.1181,0.26028 0.15378,0.44099c0.03275,0.18367 0.05093,0.38838 0.05093,0.61296" id="svg_39"/>
    <path stroke="null" fill="#5A4A42" d="m285.77267,247.71703c0,1.02179 -0.16199,1.69618 -0.4866,2.0266c-0.32404,0.3287 -0.90424,0.4948 -1.7406,0.4948c-0.80246,0 -1.36044,-0.1608 -1.67627,-0.48309c-0.31699,-0.31934 -0.47433,-0.98259 -0.47433,-1.98625c0,-1.02179 0.16199,-1.69731 0.48605,-2.02658c0.32458,-0.3293 0.90479,-0.49304 1.74115,-0.49304c0.80191,0 1.36041,0.15846 1.67746,0.48015c0.31583,0.31995 0.47314,0.98315 0.47314,1.98743" id="svg_40"/>
    <path stroke="null" fill="#5A4A42" d="m329.47833,249.53539c0,0.10234 -0.02689,0.20003 -0.07831,0.28542c-0.05096,0.08717 -0.13632,0.15617 -0.25623,0.20703c-0.11987,0.05443 -0.28018,0.09535 -0.48541,0.13217c-0.20474,0.03455 -0.45273,0.0515 -0.74341,0.0515c-0.30762,0 -0.55856,-0.01695 -0.75391,-0.0515c-0.19708,-0.03682 -0.35562,-0.07774 -0.47552,-0.13217c-0.11984,-0.05086 -0.20468,-0.11932 -0.25616,-0.20703c-0.05148,-0.08539 -0.07544,-0.18307 -0.07544,-0.28542l0,-30.271l-16.5386,0l0,30.271c0,0.10234 -0.02753,0.20003 -0.07837,0.28542c-0.05151,0.08717 -0.1369,0.15617 -0.2562,0.20703c-0.11935,0.05443 -0.27783,0.09535 -0.47318,0.13217c-0.19708,0.03455 -0.44861,0.0515 -0.75568,0.0515c-0.29013,0 -0.53632,-0.01695 -0.74161,-0.0515c-0.20471,-0.03682 -0.36795,-0.07774 -0.48779,-0.13217c-0.11874,-0.05086 -0.20471,-0.11932 -0.25558,-0.20703c-0.05148,-0.08539 -0.07608,-0.18307 -0.07608,-0.28542l0,-31.46533c0,-0.62463 0.16028,-1.05394 0.48547,-1.28731c0.32404,-0.23396 0.64105,-0.35153 0.94809,-0.35153l19.91864,0c0.32401,0 0.64337,0.11699 0.96036,0.35153c0.31473,0.23337 0.47379,0.66267 0.47379,1.28731l0,31.46533l0.00113,0z" id="svg_41"/>
    <path stroke="null" fill="#5A4A42" d="m348.93549,219.83524l-0.02692,0l-6.24646,18.08508l12.67371,0l-6.40033,-18.08508zm13.74704,29.15445c0.10297,0.26085 0.15149,0.47375 0.14154,0.6364c-0.00763,0.16609 -0.06842,0.29005 -0.17838,0.37781c-0.11172,0.08537 -0.28253,0.14154 -0.51178,0.16843c-0.23163,0.0269 -0.52701,0.03862 -0.88553,0.03862s-0.64392,-0.01225 -0.85626,-0.03862c-0.2135,-0.02689 -0.37955,-0.06607 -0.49948,-0.11697c-0.11932,-0.05145 -0.20993,-0.12225 -0.26846,-0.20764c-0.06082,-0.08714 -0.117,-0.18944 -0.16785,-0.31113l-3.17471,-8.96562l-14.54184,0l-3.04547,8.91414c-0.0369,0.11932 -0.08774,0.22461 -0.15326,0.30939c-0.06839,0.08775 -0.16373,0.16083 -0.28305,0.22171c-0.11993,0.06081 -0.2854,0.1082 -0.49948,0.14381c-0.21234,0.03455 -0.48257,0.0515 -0.80478,0.0515c-0.35797,0 -0.65799,-0.01695 -0.89722,-0.0515c-0.23868,-0.03619 -0.41412,-0.09763 -0.52408,-0.18303c-0.11176,-0.0854 -0.17078,-0.20705 -0.18076,-0.36319c-0.00699,-0.15675 0.0386,-0.36325 0.14154,-0.6241l11.59937,-31.98526c0.0509,-0.13861 0.12631,-0.25618 0.22925,-0.35152c0.10239,-0.09531 0.23395,-0.16844 0.39716,-0.22166c0.1608,-0.05148 0.35849,-0.09007 0.5878,-0.11639c0.23163,-0.02515 0.49298,-0.03923 0.78317,-0.03923c0.3064,0 0.57431,0.01408 0.8042,0.03923c0.2316,0.02632 0.42633,0.06491 0.59012,0.11639c0.16025,0.05322 0.29071,0.12636 0.38309,0.22166c0.09479,0.09534 0.16788,0.21233 0.21933,0.35152l11.59583,31.98526z" id="svg_42"/>
    <path stroke="null" fill="#5A4A42" d="m384.47159,226.35843c0,-1.45578 -0.28305,-2.68988 -0.84631,-3.70171c-0.56326,-1.01419 -1.25162,-1.76753 -2.06058,-2.26231c-0.81183,-0.49248 -1.65521,-0.80481 -2.53543,-0.93405c-0.8779,-0.12984 -1.70959,-0.19478 -2.49451,-0.19478l-4.71063,0l0,14.60272l4.50534,0c1.4505,0 2.66296,-0.18546 3.63623,-0.55858c0.97263,-0.37317 1.79147,-0.88731 2.45706,-1.54584s1.17325,-1.45113 1.52359,-2.37755c0.34857,-0.92705 0.52524,-1.93596 0.52524,-3.02791m3.30048,-0.28604c0,1.55814 -0.25851,2.987 -0.78024,4.28658s-1.26797,2.41615 -2.24063,3.35252c-0.97269,0.93639 -2.15762,1.66284 -3.55728,2.18164s-3.08926,0.7802 -5.06915,0.7802l-4.30118,0l0,12.86148c0,0.10295 -0.0275,0.20007 -0.07898,0.28545c-0.05087,0.08772 -0.13568,0.15616 -0.2561,0.20708c-0.11932,0.05319 -0.27844,0.09473 -0.47324,0.13214c-0.19763,0.03395 -0.44855,0.05147 -0.75565,0.05147c-0.2901,0 -0.5369,-0.01752 -0.74164,-0.05147c-0.20468,-0.03685 -0.36786,-0.07895 -0.48718,-0.13214c-0.1199,-0.05151 -0.20529,-0.11935 -0.25623,-0.20708c-0.05142,-0.08537 -0.07541,-0.18309 -0.07541,-0.28545l0,-31.46529c0,-0.6241 0.16086,-1.05341 0.48489,-1.28735c0.32516,-0.23453 0.64157,-0.35095 0.94864,-0.35095l6.73199,0c0.66611,0 1.31421,0.03163 1.94583,0.09186c0.63113,0.06082 1.37042,0.19011 2.21381,0.38777c0.84576,0.19945 1.70667,0.57259 2.58691,1.11887c0.8779,0.54393 1.62653,1.21188 2.24063,1.99969c0.61475,0.79019 1.08731,1.69031 1.42245,2.7039c0.33228,1.0136 0.49774,2.12721 0.49774,3.33908" id="svg_43"/>
    <path stroke="null" fill="#5A4A42" d="m401.07047,219.83524l-0.02692,0l-6.24707,18.08508l12.67371,0l-6.39972,-18.08508zm13.74698,29.15445c0.10233,0.26085 0.15091,0.47375 0.14154,0.6364c-0.00818,0.16609 -0.06839,0.29005 -0.17899,0.37781c-0.11108,0.08537 -0.28189,0.14154 -0.51178,0.16843c-0.2316,0.0269 -0.52634,0.03862 -0.88547,0.03862c-0.35791,0 -0.64331,-0.01225 -0.85568,-0.03862c-0.21463,-0.02689 -0.38016,-0.06607 -0.49945,-0.11697c-0.11993,-0.05145 -0.20941,-0.12225 -0.26852,-0.20764c-0.06082,-0.08714 -0.1163,-0.18944 -0.16782,-0.31113l-3.17471,-8.96562l-14.54184,0l-3.04544,8.91414c-0.0369,0.11932 -0.08719,0.22461 -0.15384,0.30939c-0.06787,0.08775 -0.16321,0.16083 -0.28253,0.22171c-0.11929,0.06081 -0.28482,0.1082 -0.49945,0.14381c-0.21234,0.03455 -0.48257,0.0515 -0.80484,0.0515c-0.35855,0 -0.65799,-0.01695 -0.89713,-0.0515c-0.23871,-0.03619 -0.41418,-0.09763 -0.52411,-0.18303c-0.1123,-0.0854 -0.17078,-0.20705 -0.18073,-0.36319c-0.0076,-0.15675 0.03857,-0.36325 0.14096,-0.6241l11.59872,-31.98526c0.05151,-0.13861 0.12695,-0.25618 0.22928,-0.35152c0.10291,-0.09531 0.23453,-0.16844 0.39828,-0.22166c0.16028,-0.05148 0.35733,-0.09007 0.58719,-0.11639c0.23163,-0.02515 0.49249,-0.03923 0.78259,-0.03923c0.30765,0 0.57556,0.01408 0.80484,0.03923c0.23218,0.02632 0.42633,0.06491 0.59015,0.11639c0.1608,0.05322 0.29004,0.12636 0.38306,0.22166c0.09473,0.09534 0.16788,0.21233 0.21933,0.35152l11.59637,31.98526z" id="svg_44"/>
    <path stroke="null" fill="#5A4A42" d="m437.27155,248.65341c0,0.22461 -0.01694,0.42459 -0.05203,0.59712c-0.03391,0.17316 -0.08948,0.31937 -0.16492,0.44162c-0.07837,0.12221 -0.16849,0.21169 -0.27081,0.27309c-0.10297,0.06087 -0.21231,0.09007 -0.33163,0.09007l-17.61365,0c-0.30646,0 -0.57257,-0.10759 -0.79425,-0.32457c-0.22284,-0.21701 -0.3316,-0.57494 -0.3316,-1.07793l0,-0.57263c0,-0.15613 0.00696,-0.31171 0.02393,-0.46846c0.017,-0.15614 0.05618,-0.31937 0.11472,-0.49248c0.06082,-0.1731 0.15378,-0.36845 0.28244,-0.58549c0.12692,-0.2164 0.30298,-0.47018 0.52402,-0.76498l10.18976,-13.69376l-9.29257,-11.35486c-0.20526,-0.24388 -0.36841,-0.45621 -0.48718,-0.63635c-0.11926,-0.18306 -0.21466,-0.36084 -0.28073,-0.534c-0.07074,-0.17313 -0.11694,-0.35149 -0.14093,-0.53165c-0.02753,-0.18307 -0.03857,-0.38487 -0.03857,-0.61177l0,-0.57086c0,-0.46846 0.10229,-0.81941 0.30646,-1.05394c0.20523,-0.23338 0.47781,-0.35094 0.8194,-0.35094l16.48663,0c0.11981,0 0.23154,0.03217 0.33386,0.09302c0.10239,0.06081 0.18777,0.15091 0.25623,0.27022c0.06787,0.12222 0.11929,0.27313 0.15381,0.45621c0.03394,0.18248 0.05084,0.39478 0.05084,0.63635c0,0.22398 -0.01691,0.42404 -0.05084,0.59715c-0.03452,0.17314 -0.08536,0.31702 -0.15381,0.42931c-0.06845,0.11171 -0.15442,0.20003 -0.25623,0.26027c-0.10233,0.06084 -0.21405,0.09007 -0.33386,0.09007l-13.82483,0l9.16562,11.17294c0.10233,0.1216 0.18771,0.23801 0.2562,0.35091c0.06781,0.11235 0.12396,0.22932 0.16495,0.3515c0.04382,0.12167 0.07306,0.24335 0.09003,0.3632c0.01697,0.12167 0.02692,0.25148 0.02692,0.38954c0,0.10585 -0.00995,0.21759 -0.02692,0.33926c-0.01697,0.11932 -0.0462,0.23633 -0.09003,0.34915c-0.04099,0.11404 -0.09714,0.23164 -0.16495,0.35153c-0.06848,0.12163 -0.15442,0.24329 -0.2562,0.36316l-10.3436,13.92715l15.23434,0c0.11935,0 0.22928,0.03217 0.3316,0.09241c0.10239,0.06142 0.19247,0.1468 0.27078,0.25851c0.07553,0.11404 0.13168,0.26028 0.16498,0.44156c0.03571,0.18315 0.05264,0.3954 0.05264,0.63933" id="svg_45"/>
    <path stroke="null" fill="#5A4A42" d="m464.74335,249.48509c0,0.11929 -0.01642,0.22458 -0.05151,0.30939c-0.03391,0.08775 -0.11166,0.16083 -0.23157,0.22224c-0.11935,0.06087 -0.28015,0.10703 -0.48486,0.14328c-0.20587,0.03455 -0.47144,0.05206 -0.79486,0.05206c-0.3071,0 -0.61707,-0.01752 -0.93405,-0.05206c-0.31702,-0.03682 -0.55859,-0.10989 -0.72876,-0.22162c-0.17078,-0.11176 -0.31702,-0.24686 -0.43689,-0.4024l-13.38849,-17.25279l0,17.25279c0,0.10295 -0.02692,0.20003 -0.07834,0.28482c-0.05148,0.0883 -0.13632,0.15674 -0.2562,0.20764c-0.11932,0.05322 -0.27786,0.09474 -0.47321,0.13156c-0.19766,0.03455 -0.44916,0.05206 -0.75562,0.05206c-0.29013,0 -0.53632,-0.01752 -0.74164,-0.05206c-0.20465,-0.03682 -0.36847,-0.07834 -0.48779,-0.13156c-0.11932,-0.05147 -0.20474,-0.11934 -0.2562,-0.20764c-0.05206,-0.08539 -0.07602,-0.18246 -0.07602,-0.28482l0,-32.58418c0,-0.10295 0.02396,-0.19771 0.07602,-0.28543c0.05145,-0.08539 0.13629,-0.15614 0.2562,-0.20764c0.11932,-0.05087 0.28314,-0.09418 0.48779,-0.12924c0.20532,-0.03394 0.45096,-0.05322 0.74164,-0.05322c0.30646,0 0.55795,0.01929 0.75562,0.05322c0.19534,0.03506 0.3533,0.07837 0.47321,0.12924c0.11929,0.05206 0.20471,0.12225 0.2562,0.20764c0.05142,0.08772 0.07834,0.18307 0.07834,0.28543l0,15.28053l12.82523,-15.28053c0.10233,-0.11989 0.21472,-0.2252 0.33453,-0.31001c0.11935,-0.08772 0.25562,-0.15616 0.40945,-0.20937c0.15323,-0.05148 0.33099,-0.09009 0.53574,-0.11641c0.20529,-0.02455 0.46085,-0.03915 0.76791,-0.03915s0.55566,0.01926 0.74338,0.05321c0.18774,0.03508 0.33691,0.08128 0.4498,0.14151c0.10938,0.06084 0.18246,0.13162 0.21701,0.20998c0.03391,0.0778 0.05087,0.16789 0.05087,0.27081c0,0.19241 -0.04858,0.37256 -0.14154,0.54567c-0.09241,0.17316 -0.25095,0.3831 -0.47318,0.62407l-12.05905,14.00494l12.87906,16.39473c0.23862,0.31236 0.38254,0.52934 0.43341,0.65099c0.05145,0.11935 0.07837,0.22401 0.07837,0.31233" id="svg_46"/>
    <path stroke="null" fill="#5A4A42" d="m488.78418,248.65341c0,0.22461 -0.01636,0.42459 -0.05148,0.59712c-0.03391,0.17316 -0.08951,0.31937 -0.16562,0.44162c-0.07831,0.12221 -0.16779,0.21169 -0.27069,0.27309c-0.10236,0.06087 -0.21167,0.09007 -0.33109,0.09007l-15.51447,0c-0.30704,0 -0.62347,-0.11693 -0.94867,-0.35149c-0.32401,-0.23338 -0.48544,-0.66324 -0.48544,-1.28497l0,-30.3488c0,-0.62405 0.16144,-1.05394 0.48544,-1.28792c0.3252,-0.23332 0.64163,-0.35092 0.94867,-0.35092l15.28287,0c0.11935,0 0.2316,0.03221 0.33398,0.09303c0.10236,0.06082 0.18774,0.15088 0.25613,0.2702c0.06729,0.12224 0.1188,0.27312 0.15326,0.45621c0.03455,0.18248 0.05145,0.39479 0.05145,0.63635c0,0.224 -0.01691,0.42403 -0.05145,0.59715s-0.08539,0.31702 -0.15326,0.42929c-0.06839,0.11171 -0.15439,0.20004 -0.25613,0.2603c-0.10239,0.06082 -0.21463,0.09006 -0.33398,0.09006l-13.59256,0l0,11.82332l11.72565,0c0.13568,0 0.25613,0.02988 0.35797,0.09006c0.10287,0.06087 0.18774,0.14627 0.25613,0.26088c0.06842,0.11171 0.1199,0.25797 0.15381,0.44157c0.03452,0.18016 0.05084,0.39244 0.05084,0.63635c0,0.224 -0.01633,0.41934 -0.05084,0.58485c-0.03391,0.16382 -0.08539,0.29776 -0.15381,0.40242c-0.06781,0.10295 -0.15326,0.18129 -0.25613,0.23396c-0.10242,0.05147 -0.22229,0.07835 -0.35797,0.07835l-11.72565,0l0,13.40546l13.82477,0c0.11929,0 0.22928,0.03217 0.33105,0.09238c0.10294,0.06145 0.19244,0.14685 0.27078,0.25851c0.07605,0.11407 0.1322,0.26028 0.16556,0.44162c0.03452,0.18369 0.05087,0.39594 0.05087,0.63986" id="svg_47"/>
    <path stroke="null" fill="#5A4A42" d="m505.68195,236.80315l0,12.73283c0,0.10295 -0.02399,0.20003 -0.07611,0.28485c-0.05078,0.08833 -0.13565,0.15677 -0.25613,0.20761c-0.11926,0.05382 -0.28302,0.09474 -0.48776,0.13156c-0.20529,0.03455 -0.45096,0.05209 -0.74161,0.05209c-0.30643,0 -0.56097,-0.01755 -0.75565,-0.05209c-0.19766,-0.03682 -0.358,-0.07774 -0.48785,-0.13156c-0.12686,-0.05147 -0.21701,-0.11928 -0.2684,-0.20761c-0.05084,-0.08539 -0.07547,-0.1825 -0.07547,-0.28485l0,-12.73283l-9.52353,-19.30624c-0.12222,-0.25854 -0.18964,-0.4679 -0.20532,-0.62407c-0.01938,-0.15382 0.01984,-0.2755 0.11456,-0.36261c0.09302,-0.08543 0.2515,-0.14624 0.47327,-0.18135c0.22156,-0.03392 0.50241,-0.05322 0.84628,-0.05322c0.37256,0 0.67786,0.01465 0.9071,0.0392c0.2316,0.02632 0.41931,0.06491 0.56332,0.11639c0.14615,0.0538 0.25378,0.12167 0.3222,0.20938c0.06549,0.0854 0.13568,0.19008 0.20471,0.31001l5.06915,10.47165c0.47781,0.98727 0.95102,2.00964 1.41895,3.06712c0.47076,1.05626 0.94391,2.12132 1.42178,3.19402l0.05148,0c0.44394,-1.02179 0.89664,-2.05293 1.35812,-3.09111c0.46027,-1.03874 0.9288,-2.06987 1.40659,-3.09167l5.12003,-10.55c0.05157,-0.11993 0.11237,-0.22519 0.18134,-0.31001c0.06726,-0.08771 0.16028,-0.15616 0.28015,-0.20938c0.11926,-0.05145 0.27777,-0.09007 0.47546,-0.11639c0.19592,-0.02455 0.43988,-0.0392 0.72937,-0.0392c0.40942,0 0.7417,0.0193 0.99725,0.05322c0.25616,0.03511 0.43634,0.10062 0.5387,0.19537c0.10291,0.09534 0.1438,0.21933 0.12744,0.3761c-0.01697,0.15614 -0.08533,0.35498 -0.20526,0.59715l-9.52417,19.30565z" id="svg_48"/>
    <path stroke="null" fill="#5A4A42" d="m544.03534,249.53539c0,0.10234 -0.02692,0.20003 -0.07831,0.28542c-0.05096,0.08717 -0.13635,0.15617 -0.25629,0.20703c-0.1192,0.05443 -0.28009,0.09535 -0.48486,0.13217c-0.20532,0.03455 -0.45319,0.0515 -0.74341,0.0515c-0.30756,0 -0.55853,-0.01695 -0.75385,-0.0515c-0.19702,-0.03682 -0.35504,-0.07774 -0.47498,-0.13217c-0.11981,-0.05086 -0.20575,-0.11932 -0.2561,-0.20703c-0.05145,-0.08539 -0.0755,-0.18307 -0.0755,-0.28542l0,-15.66776l-16.53851,0l0,15.66776c0,0.10234 -0.02759,0.20003 -0.07837,0.28542c-0.05151,0.08717 -0.13635,0.15617 -0.25629,0.20703c-0.11926,0.05443 -0.27832,0.09535 -0.47321,0.13217c-0.19769,0.03455 -0.44916,0.0515 -0.75623,0.0515c-0.29004,0 -0.53638,-0.01695 -0.74103,-0.0515c-0.2052,-0.03682 -0.36786,-0.07774 -0.48773,-0.13217c-0.11938,-0.05086 -0.20532,-0.11932 -0.2561,-0.20703c-0.05157,-0.08539 -0.07611,-0.18307 -0.07611,-0.28542l0,-32.58478c0,-0.10237 0.02454,-0.19711 0.07611,-0.28543c0.05078,-0.0854 0.13617,-0.15616 0.2561,-0.20706c0.11987,-0.05145 0.28253,-0.09534 0.48773,-0.12924c0.20465,-0.03452 0.45099,-0.05438 0.74103,-0.05438c0.30707,0 0.55853,0.01987 0.75623,0.05438c0.19489,0.03391 0.35339,0.07779 0.47321,0.12924c0.11932,0.0509 0.20477,0.12166 0.25629,0.20706c0.05078,0.08832 0.07837,0.18306 0.07837,0.28543l0,14.0833l16.53851,0l0,-14.0833c0,-0.10237 0.02405,-0.19711 0.0755,-0.28543c0.05084,-0.0854 0.13629,-0.15616 0.2561,-0.20706c0.11938,-0.05145 0.27795,-0.09534 0.47498,-0.12924c0.19531,-0.03452 0.44629,-0.05438 0.75385,-0.05438c0.29022,0 0.53882,0.01987 0.74341,0.05438c0.20477,0.03391 0.36566,0.07779 0.48486,0.12924c0.11938,0.0509 0.20532,0.12166 0.25629,0.20706c0.05139,0.08832 0.07831,0.18306 0.07831,0.28543l0,32.58478z" id="svg_49"/>
    <path stroke="null" fill="#5A4A42" d="m570.14905,248.65341c0,0.22461 -0.01703,0.42459 -0.05206,0.59712c-0.03387,0.17316 -0.08942,0.31937 -0.16492,0.44162c-0.07831,0.12221 -0.16785,0.21169 -0.27142,0.27309c-0.10236,0.06087 -0.21112,0.09007 -0.33099,0.09007l-17.61359,0c-0.30652,0 -0.57269,-0.10759 -0.79431,-0.32457c-0.22235,-0.21701 -0.3316,-0.57494 -0.3316,-1.07793l0,-0.57263c0,-0.15613 0.00696,-0.31171 0.02386,-0.46846c0.0177,-0.15614 0.05621,-0.31937 0.11475,-0.49248c0.06079,-0.1731 0.15381,-0.36845 0.28247,-0.58549c0.12689,-0.2164 0.30298,-0.47018 0.52405,-0.76498l10.18982,-13.69376l-9.29266,-11.35486c-0.2052,-0.24388 -0.36835,-0.45621 -0.48712,-0.63635c-0.11926,-0.18306 -0.21466,-0.36084 -0.28082,-0.534c-0.07068,-0.17313 -0.11694,-0.35149 -0.14087,-0.53165c-0.02747,-0.18307 -0.03857,-0.38487 -0.03857,-0.61177l0,-0.57086c0,-0.46846 0.10229,-0.81941 0.30634,-1.05394c0.20532,-0.23338 0.47791,-0.35094 0.81946,-0.35094l16.48663,0c0.11987,0 0.23157,0.03217 0.33392,0.09302c0.10297,0.06081 0.18774,0.15091 0.25623,0.27022c0.06842,0.12222 0.11871,0.27313 0.15375,0.45621c0.034,0.18248 0.05096,0.39478 0.05096,0.63635c0,0.22398 -0.01697,0.42404 -0.05096,0.59715c-0.03503,0.17314 -0.08533,0.31702 -0.15375,0.42931c-0.06848,0.11171 -0.15387,0.20003 -0.25623,0.26027c-0.10236,0.06084 -0.21405,0.09007 -0.33392,0.09007l-13.82477,0l9.16559,11.17294c0.10242,0.1216 0.18781,0.23801 0.25623,0.35091c0.06732,0.11235 0.12396,0.22932 0.16553,0.3515c0.04327,0.12167 0.07306,0.24335 0.08942,0.3632c0.01758,0.12167 0.02698,0.25148 0.02698,0.38954c0,0.10585 -0.0094,0.21759 -0.02698,0.33926c-0.01636,0.11932 -0.04614,0.23633 -0.08942,0.34915c-0.04156,0.11404 -0.09821,0.23164 -0.16553,0.35153c-0.06842,0.12163 -0.15442,0.24329 -0.25623,0.36316l-10.34308,13.92715l15.23383,0c0.11987,0 0.22925,0.03217 0.33112,0.09241c0.10345,0.06142 0.19299,0.1468 0.27136,0.25851c0.07538,0.11404 0.13159,0.26028 0.16492,0.44156c0.03558,0.18315 0.05261,0.3954 0.05261,0.63933" id="svg_50"/>
   </g>
  </g>
 </g>
</svg>