<svg width="795" height="360" xmlns="http://www.w3.org/2000/svg">
 <g>
  <title>Layer 1</title>
  <g stroke="null" id="svg_1">
   <g stroke="null" id="Page-1" fill="none" fill-rule="evenodd">
    <g stroke="#C2B59C" id="Group" fill="#C2B59C">
     <path stroke="null" d="m23.96484,24.15215l73.03821,0l-3.10427,122.4871l-34.27868,-2.12669l0,70.5045l31.48561,0l-3.15215,119.85767l-63.98871,0.39499l0,-311.11756l-0.00001,0z" id="Path-1"/>
     <path stroke="null" d="m110.47551,23.98656l73.66365,-0.01097l-3.68184,124.24673l-70.1055,-2.03992l0.12369,-122.19585z" id="Path-2"/>
     <path stroke="null" d="m203.38126,24.06437l65.15979,0.45388l-0.08771,125.92156l-68.10054,-1.39754l3.02846,-124.9779z" id="Path-3"/>
     <path stroke="null" d="m110.46553,215.1088l67.41223,0l-2.68234,120.09009l-64.69497,0.52075l-0.03492,-120.61084z" id="Path-4"/>
     <path stroke="null" d="m198.11836,215.26144l70.7469,-0.49974l-0.25534,120.13194l-73.95294,0.11081l3.46138,-119.74301z" id="Path-5"/>
    </g>
   </g>
   <g stroke="null" id="svg_11">
    <path stroke="null" fill="#5A4A42" d="m332.3884,70.25214c0,0.30555 -0.02298,0.57536 -0.06903,0.81029c-0.0484,0.23491 -0.12305,0.43568 -0.22702,0.60078c-0.10474,0.16348 -0.2254,0.28807 -0.36423,0.36903c-0.13892,0.08253 -0.2905,0.12381 -0.45157,0.12381l-21.0531,0c-0.41666,0 -0.84521,-0.15874 -1.28564,-0.47618c-0.43967,-0.31744 -0.65952,-0.89838 -0.65952,-1.74518l0,-41.18004c0,-0.84599 0.21985,-1.42772 0.65952,-1.74596c0.44037,-0.31746 0.86899,-0.47458 1.28564,-0.47458l20.74039,0c0.16113,0 0.31271,0.04125 0.45157,0.12222c0.13895,0.08333 0.2532,0.20715 0.34763,0.37062c0.09128,0.16586 0.16031,0.37061 0.20874,0.61743c0.04602,0.24601 0.069,0.53411 0.069,0.86345c0,0.30634 -0.02298,0.57539 -0.069,0.81028c-0.04843,0.23651 -0.11746,0.43016 -0.20874,0.58253c-0.09442,0.15397 -0.20868,0.27142 -0.34763,0.35237c-0.13885,0.08252 -0.29044,0.12379 -0.45157,0.12379l-18.44766,0l0,16.04143l15.91211,0c0.18326,0 0.34756,0.04126 0.48642,0.12379c0.13889,0.08253 0.25323,0.2 0.34763,0.35237c0.09045,0.15397 0.16037,0.35237 0.20798,0.59919c0.0452,0.2476 0.06982,0.53569 0.06982,0.86503c0,0.30396 -0.02466,0.56902 -0.06982,0.79204c-0.04761,0.22379 -0.11752,0.40553 -0.20798,0.54601c-0.09439,0.14205 -0.20874,0.24839 -0.34763,0.31743c-0.13885,0.07144 -0.30316,0.10635 -0.48642,0.10635l-15.91211,0l0,18.19289l18.76038,0c0.16107,0 0.31265,0.04128 0.45157,0.12225c0.13882,0.08333 0.25949,0.20079 0.36423,0.35473c0.10397,0.1516 0.17862,0.35236 0.22702,0.5984c0.04526,0.24681 0.06903,0.5341 0.06903,0.86345" id="svg_12"/>
    <path stroke="null" fill="#5A4A42" d="m374.09619,70.71087c0.13892,0.35236 0.20163,0.63965 0.19046,0.86345c-0.01193,0.2246 -0.09756,0.39364 -0.25946,0.5111c-0.16272,0.11745 -0.41193,0.19522 -0.74841,0.23014c-0.33569,0.03413 -0.75711,0.05237 -1.26663,0.05237s-0.90311,-0.01824 -1.18091,-0.05237c-0.27774,-0.03492 -0.49283,-0.08809 -0.64441,-0.15872c-0.15079,-0.07142 -0.24841,-0.16427 -0.29443,-0.28332c-0.0484,-0.11588 -0.10391,-0.25793 -0.17377,-0.42141l-14.1058,-40.22931l-0.03491,0l-13.72165,40.22931c-0.04605,0.16348 -0.10397,0.30553 -0.1738,0.42141c-0.069,0.11905 -0.18488,0.2119 -0.3476,0.28332c-0.1619,0.07063 -0.38171,0.1238 -0.65952,0.15872c-0.2778,0.03413 -0.66025,0.05237 -1.14679,0.05237c-0.50952,0 -0.92612,-0.023 -1.24994,-0.07063c-0.32455,-0.04683 -0.56741,-0.123 -0.73013,-0.22856c-0.16193,-0.10556 -0.24283,-0.25792 -0.24283,-0.45793c0,-0.20079 0.06906,-0.49997 0.20792,-0.89994l15.59778,-43.40219c0.06985,-0.18731 0.17377,-0.34602 0.31271,-0.4746c0.13885,-0.12935 0.31979,-0.23014 0.53964,-0.29919c0.21985,-0.07142 0.48648,-0.1246 0.79916,-0.1595c0.31271,-0.03572 0.66504,-0.05238 1.05872,-0.05238c0.27774,0 0.5325,0.00475 0.76422,0.01667c0.23178,0.0127 0.43967,0.03572 0.62537,0.07063c0.18488,0.03492 0.3468,0.0762 0.48569,0.1246c0.13885,0.04603 0.26666,0.10556 0.38254,0.1754c0.11584,0.07063 0.20795,0.15792 0.27777,0.26426c0.06906,0.10556 0.12698,0.21825 0.17383,0.33413l15.56519,43.40219z" id="svg_13"/>
    <path stroke="null" fill="#5A4A42" d="m414.00885,70.71087c0.13968,0.35236 0.20551,0.63965 0.19205,0.86345c-0.01031,0.2246 -0.09918,0.39364 -0.2619,0.5111c-0.16187,0.11745 -0.40952,0.19522 -0.74362,0.23014c-0.33807,0.03413 -0.76105,0.05237 -1.27136,0.05237c-0.50949,0 -0.90314,-0.01824 -1.18088,-0.05237c-0.27859,-0.03492 -0.48972,-0.08809 -0.64209,-0.15872c-0.15155,-0.07142 -0.24835,-0.16427 -0.29437,-0.28332c-0.04688,-0.11588 -0.10641,-0.25793 -0.17542,-0.42141l-14.10419,-40.22931l-0.03415,0l-13.72241,40.22931c-0.04602,0.16348 -0.104,0.30553 -0.17383,0.42141c-0.069,0.11905 -0.18488,0.2119 -0.3476,0.28332c-0.16187,0.07063 -0.38177,0.1238 -0.65952,0.15872c-0.27853,0.03413 -0.66031,0.05237 -1.14673,0.05237c-0.50958,0 -0.92618,-0.023 -1.25076,-0.07063c-0.32382,-0.04683 -0.56747,-0.123 -0.72937,-0.22856c-0.16193,-0.10556 -0.24286,-0.25792 -0.24286,-0.45793c0,-0.20079 0.06909,-0.49997 0.20795,-0.89994l15.59778,-43.40219c0.06985,-0.18731 0.17377,-0.34602 0.31268,-0.4746c0.13968,-0.12935 0.31985,-0.23014 0.53964,-0.29919c0.21988,-0.07142 0.48651,-0.1246 0.79919,-0.1595c0.31265,-0.03572 0.66504,-0.05238 1.05865,-0.05238c0.27859,0 0.53336,0.00475 0.76428,0.01667c0.23169,0.0127 0.44043,0.03572 0.62534,0.07063c0.1857,0.03492 0.3476,0.0762 0.48648,0.1246c0.13889,0.04603 0.26669,0.10556 0.38177,0.1754c0.11584,0.07063 0.20874,0.15792 0.27853,0.26426c0.06979,0.10556 0.12695,0.21825 0.17383,0.33413l15.56281,43.40219l0.00006,0z" id="svg_14"/>
    <path stroke="null" fill="#5A4A42" d="m453.16437,71.45131c0,0.14046 -0.0365,0.26983 -0.10553,0.38728c-0.06985,0.11746 -0.18494,0.2119 -0.3476,0.28252c-0.16193,0.06985 -0.38098,0.12857 -0.65872,0.17541c-0.27853,0.04839 -0.61508,0.07141 -1.0087,0.07141c-0.41583,0 -0.75787,-0.02302 -1.02219,-0.07141c-0.26825,-0.04684 -0.48248,-0.10556 -0.6452,-0.17541c-0.16269,-0.07063 -0.27853,-0.16506 -0.3476,-0.28252s-0.10239,-0.24681 -0.10239,-0.38728l0,-21.26023l-22.44034,0l0,21.26023c0,0.14046 -0.0365,0.26983 -0.10709,0.38728c-0.06912,0.11746 -0.18417,0.2119 -0.34766,0.28252c-0.16193,0.06985 -0.37695,0.12857 -0.64124,0.17541c-0.26901,0.04839 -0.60953,0.07141 -1.02612,0.07141c-0.39371,0 -0.72861,-0.02302 -1.00635,-0.07141c-0.2778,-0.04684 -0.49918,-0.10556 -0.6619,-0.17541c-0.16187,-0.07063 -0.27774,-0.16506 -0.3468,-0.28252c-0.07062,-0.11745 -0.10312,-0.24681 -0.10312,-0.38728l0,-44.21247c0,-0.14047 0.0325,-0.26982 0.10312,-0.38889c0.06906,-0.11744 0.18414,-0.2095 0.3468,-0.28093c0.16272,-0.07143 0.38409,-0.12936 0.6619,-0.17698c0.27774,-0.04682 0.61191,-0.06983 1.00635,-0.06983c0.4166,0 0.75711,0.02301 1.02612,0.06983c0.26428,0.04762 0.47931,0.10555 0.64124,0.17698c0.16269,0.07143 0.27853,0.16349 0.34766,0.28093c0.07059,0.11907 0.10709,0.24841 0.10709,0.38889l0,19.10951l22.44034,0l0,-19.10951c0,-0.14047 0.03253,-0.26982 0.10239,-0.38889c0.06985,-0.11744 0.18491,-0.2095 0.3476,-0.28093c0.16187,-0.07143 0.37695,-0.12936 0.6452,-0.17698c0.26431,-0.04682 0.60635,-0.06983 1.02219,-0.06983c0.39362,0 0.73096,0.02301 1.0087,0.06983c0.27774,0.04762 0.4968,0.10555 0.65872,0.17698c0.16187,0.07143 0.27774,0.16349 0.3476,0.28093c0.06903,0.11907 0.10553,0.24841 0.10553,0.38889l0,44.21247z" id="svg_15"/>
    <path stroke="null" fill="#5A4A42" d="m498.56729,70.07677c0,0.4222 -0.06265,0.77457 -0.18887,1.05709c-0.1286,0.28173 -0.29047,0.51109 -0.48569,0.68807c-0.19839,0.17538 -0.41663,0.29999 -0.6619,0.36903c-0.24124,0.07142 -0.46982,0.10634 -0.67773,0.10634l-0.8674,0c-0.46347,0 -0.88571,-0.05873 -1.26743,-0.17538c-0.38333,-0.11745 -0.75391,-0.32301 -1.11185,-0.61743c-0.3595,-0.29444 -0.71664,-0.68806 -1.07697,-1.1809c-0.36105,-0.49443 -0.75787,-1.12852 -1.19833,-1.90389l-15.84064,-28.48772c-0.78729,-1.38805 -1.58163,-2.81575 -2.38165,-4.28475c-0.7984,-1.46821 -1.55627,-2.89591 -2.27292,-4.28236l-0.03729,0c0.02298,1.715 0.03729,3.47207 0.03729,5.27042l0,5.27042l0,29.5456c0,0.14127 -0.03729,0.26984 -0.10635,0.3873c-0.06982,0.11744 -0.18573,0.2119 -0.34763,0.28331c-0.1619,0.06906 -0.37692,0.12856 -0.64203,0.17538c-0.26743,0.04763 -0.60947,0.07063 -1.02536,0.07063c-0.39362,0 -0.72772,-0.02299 -1.00632,-0.07063c-0.27774,-0.04682 -0.49918,-0.10632 -0.66183,-0.17538c-0.1619,-0.07142 -0.27774,-0.16587 -0.34686,-0.28331c-0.06979,-0.11745 -0.10318,-0.24603 -0.10318,-0.3873l0,-42.69666c0,-0.84521 0.2175,-1.42773 0.65872,-1.74597c0.43967,-0.31743 0.86984,-0.47457 1.28568,-0.47457l1.73727,0c0.5563,0 1.01898,0.04681 1.38959,0.14047c0.37064,0.09443 0.70474,0.25316 1.00552,0.47696c0.30237,0.223 0.59601,0.54047 0.88727,0.95077c0.28726,0.41267 0.60873,0.93486 0.95551,1.56818l12.12253,21.8245c0.76428,1.36503 1.4888,2.6745 2.17371,3.93238c0.68091,1.2571 1.34598,2.49115 1.99518,3.70221c0.64758,1.21028 1.28961,2.40308 1.92847,3.57764c0.63885,1.17614 1.26746,2.36259 1.89279,3.56175l0.03571,0c-0.02219,-1.97531 -0.03571,-4.03158 -0.03571,-6.17036l0,-6.1704l0,-26.5489c0,-0.14048 0.03571,-0.26904 0.10638,-0.3865c0.06979,-0.11746 0.18408,-0.21825 0.3476,-0.30157c0.1619,-0.08096 0.37775,-0.14047 0.64124,-0.1754c0.26901,-0.03413 0.61029,-0.05236 1.02618,-0.05236c0.37137,0 0.69595,0.01823 0.97375,0.05236c0.27774,0.03493 0.496,0.09444 0.65787,0.1754c0.1619,0.08333 0.28415,0.18411 0.36746,0.30157c0.07935,0.11745 0.11902,0.24602 0.11902,0.3865l0,42.69744l-0.00079,0z" id="svg_16"/>
    <path stroke="null" fill="#5A4A42" d="m515.93951,71.45131c0,0.14046 -0.0365,0.26983 -0.10547,0.38728c-0.06989,0.11746 -0.18573,0.2119 -0.3476,0.28252c-0.16113,0.06985 -0.37701,0.12857 -0.64209,0.17541c-0.26746,0.04839 -0.6087,0.07141 -1.02533,0.07141c-0.39368,0 -0.72778,-0.02302 -1.00555,-0.07141c-0.27936,-0.04684 -0.49994,-0.10556 -0.66187,-0.17541c-0.16187,-0.07063 -0.27856,-0.16506 -0.3476,-0.28252c-0.06903,-0.11745 -0.10242,-0.24681 -0.10242,-0.38728l0,-44.21247c0,-0.14047 0.03973,-0.26982 0.11908,-0.38889c0.08252,-0.11744 0.20795,-0.2095 0.38336,-0.28093c0.17133,-0.07143 0.39362,-0.12936 0.6579,-0.17698c0.26819,-0.04682 0.58563,-0.06983 0.9563,-0.06983c0.41663,0 0.75787,0.02301 1.02533,0.06983c0.26508,0.04762 0.48016,0.10555 0.64203,0.17698c0.16193,0.07143 0.27856,0.16349 0.34766,0.28093c0.06897,0.11907 0.10553,0.24841 0.10553,0.38889l0,44.21247l0.00073,0z" id="svg_17"/>
    <path stroke="null" fill="#5A4A42" d="m556.44507,71.38068c0,0.16508 -0.02222,0.30556 -0.06903,0.4238c-0.04688,0.11746 -0.1524,0.21665 -0.31427,0.29919s-0.38019,0.14682 -0.65796,0.19363c-0.27936,0.04763 -0.63885,0.07064 -1.07855,0.07064c-0.41656,0 -0.83722,-0.02301 -1.26733,-0.07064c-0.43018,-0.04681 -0.75793,-0.14601 -0.98889,-0.29997c-0.23175,-0.15159 -0.43018,-0.33411 -0.59283,-0.546l-18.16669,-23.41095l0,23.41095c0,0.14047 -0.0365,0.26903 -0.10559,0.38729c-0.07062,0.11665 -0.18567,0.21109 -0.3476,0.28251c-0.16187,0.06986 -0.37695,0.12857 -0.64197,0.17541c-0.26831,0.04762 -0.60956,0.07063 -1.02539,0.07063c-0.39368,0 -0.72778,-0.02302 -1.00635,-0.07063c-0.27777,-0.04684 -0.49994,-0.10555 -0.66187,-0.17541c-0.16187,-0.07142 -0.27777,-0.16586 -0.34766,-0.28251c-0.06982,-0.11826 -0.10229,-0.24682 -0.10229,-0.38729l0,-44.21249c0,-0.14125 0.03247,-0.26982 0.10229,-0.38887c0.06989,-0.11746 0.185,-0.2103 0.34766,-0.28173c0.16193,-0.07064 0.38409,-0.12857 0.66187,-0.17699c0.27856,-0.04603 0.61188,-0.06905 1.00635,-0.06905c0.41583,0 0.75708,0.02302 1.02539,0.06905c0.26501,0.0484 0.47931,0.10634 0.64197,0.17699c0.16193,0.07143 0.27777,0.16427 0.3476,0.28173c0.06909,0.11905 0.10559,0.24762 0.10559,0.38887l0,20.7309l17.40247,-20.7309c0.13885,-0.16427 0.29126,-0.30633 0.45392,-0.42379c0.16187,-0.11745 0.3468,-0.21191 0.55475,-0.28094c0.20947,-0.07143 0.45001,-0.1246 0.72858,-0.15952c0.27771,-0.03571 0.62451,-0.05238 1.04199,-0.05238s0.75476,0.02302 1.00873,0.06905c0.25391,0.04841 0.4563,0.11269 0.60944,0.19523c0.14844,0.08254 0.24768,0.17538 0.29443,0.28094c0.04602,0.10634 0.06909,0.23014 0.06909,0.3714c0,0.25794 -0.06592,0.50554 -0.19208,0.73886c-0.12543,0.2365 -0.34052,0.51823 -0.64124,0.84758l-16.36365,19.00319l17.47388,22.2483c0.32465,0.4222 0.51984,0.71664 0.58893,0.8801c0.06982,0.16586 0.10632,0.30634 0.10632,0.4238" id="svg_18"/>
    <path stroke="null" fill="#5A4A42" d="m595.87518,71.45131c0,0.14046 -0.03729,0.26983 -0.10632,0.38728c-0.06982,0.11746 -0.18494,0.2119 -0.3476,0.28252c-0.16193,0.06985 -0.38092,0.12857 -0.65869,0.17541c-0.27777,0.04839 -0.61505,0.07141 -1.00867,0.07141c-0.41589,0 -0.75793,-0.02302 -1.02148,-0.07141c-0.26904,-0.04684 -0.48334,-0.10556 -0.6452,-0.17541c-0.16266,-0.07063 -0.27771,-0.16506 -0.3476,-0.28252c-0.06982,-0.11745 -0.10236,-0.24681 -0.10236,-0.38728l0,-21.26023l-22.44037,0l0,21.26023c0,0.14046 -0.0365,0.26983 -0.10632,0.38728s-0.18494,0.2119 -0.3476,0.28252c-0.16272,0.06985 -0.37775,0.12857 -0.64203,0.17541c-0.26831,0.04839 -0.60956,0.07141 -1.02539,0.07141c-0.39362,0 -0.72858,-0.02302 -1.00708,-0.07141c-0.27783,-0.04684 -0.49921,-0.10556 -0.66107,-0.17541c-0.16272,-0.07063 -0.27856,-0.16506 -0.34766,-0.28252c-0.06982,-0.11745 -0.10236,-0.24681 -0.10236,-0.38728l0,-44.21247c0,-0.14047 0.03253,-0.26982 0.10236,-0.38889c0.06909,-0.11744 0.18414,-0.2095 0.34766,-0.28093c0.16187,-0.07143 0.38324,-0.12936 0.66107,-0.17698c0.2785,-0.04682 0.61261,-0.06983 1.00708,-0.06983c0.41583,0 0.75708,0.02301 1.02539,0.06983c0.26428,0.04762 0.47931,0.10555 0.64203,0.17698c0.16187,0.07143 0.27771,0.16349 0.3476,0.28093c0.06982,0.11907 0.10632,0.24841 0.10632,0.38889l0,19.10951l22.44037,0l0,-19.10951c0,-0.14047 0.03253,-0.26982 0.10236,-0.38889c0.07068,-0.11744 0.18494,-0.2095 0.3476,-0.28093c0.16187,-0.07143 0.37701,-0.12936 0.6452,-0.17698c0.26355,-0.04682 0.60559,-0.06983 1.02148,-0.06983c0.39362,0 0.73169,0.02301 1.00867,0.06983c0.27777,0.04762 0.49677,0.10555 0.65869,0.17698c0.16193,0.07143 0.27777,0.16349 0.3476,0.28093c0.06903,0.11907 0.10632,0.24841 0.10632,0.38889l0,44.21247z" id="svg_19"/>
    <path stroke="null" fill="#5A4A42" d="m332.3884,156.90099c0,0.30556 -0.02298,0.57538 -0.06903,0.81029c-0.0484,0.23492 -0.12305,0.43491 -0.22702,0.60077c-0.10474,0.16348 -0.2254,0.28731 -0.36423,0.36903c-0.13892,0.08255 -0.2905,0.12384 -0.45157,0.12384l-21.0531,0c-0.41666,0 -0.84521,-0.15874 -1.28564,-0.47621c-0.43967,-0.31824 -0.65952,-0.89839 -0.65952,-1.74516l0,-41.18005c0,-0.84599 0.21985,-1.4277 0.65952,-1.74594c0.44037,-0.31747 0.86899,-0.47462 1.28564,-0.47462l20.74039,0c0.16113,0 0.31271,0.04129 0.45157,0.12225c0.13895,0.0825 0.2532,0.20711 0.34763,0.3706c0.09128,0.16587 0.16031,0.37063 0.20874,0.61746c0.04602,0.24601 0.069,0.53409 0.069,0.86342c0,0.30556 -0.02298,0.57538 -0.069,0.8103c-0.04843,0.23651 -0.11746,0.43017 -0.20874,0.58251c-0.09442,0.15316 -0.20868,0.27143 -0.34763,0.35237c-0.13885,0.08255 -0.29044,0.12381 -0.45157,0.12381l-18.44766,0l0,16.04137l15.91211,0c0.18326,0 0.34756,0.04129 0.48642,0.12383c0.13889,0.08255 0.25323,0.2 0.34763,0.35236c0.09045,0.15399 0.16037,0.35237 0.20798,0.59921c0.0452,0.2476 0.06982,0.53568 0.06982,0.86504c0,0.30394 -0.02466,0.56903 -0.06982,0.79201c-0.04761,0.2238 -0.11752,0.40558 -0.20798,0.54605c-0.09439,0.14204 -0.20874,0.24759 -0.34763,0.31743c-0.13885,0.07143 -0.30316,0.10632 -0.48642,0.10632l-15.91211,0l0,18.19292l18.76038,0c0.16107,0 0.31265,0.04129 0.45157,0.12222c0.13882,0.08333 0.25949,0.19998 0.36423,0.35393c0.10397,0.1524 0.17862,0.35237 0.22702,0.59918c0.04526,0.24605 0.06903,0.53412 0.06903,0.86348" id="svg_20"/>
    <path stroke="null" fill="#5A4A42" d="m355.31601,140.82384l0,17.27705c0,0.14049 -0.03491,0.26906 -0.10397,0.38651c-0.06982,0.11748 -0.1857,0.21188 -0.34756,0.28334c-0.16193,0.06903 -0.38257,0.12857 -0.66031,0.17538c-0.27774,0.04759 -0.61349,0.07063 -1.00711,0.07063c-0.41663,0 -0.75787,-0.02304 -1.0238,-0.07063c-0.26663,-0.04681 -0.48642,-0.10635 -0.66025,-0.17538c-0.1738,-0.07146 -0.29602,-0.16586 -0.36584,-0.28334c-0.06906,-0.11745 -0.10394,-0.24602 -0.10394,-0.38651l0,-17.27705l-12.92328,-26.19654c-0.16193,-0.35236 -0.25476,-0.63331 -0.2778,-0.84519c-0.02298,-0.21191 0.02859,-0.37538 0.15714,-0.49285c0.12622,-0.11742 0.34125,-0.20077 0.64206,-0.2484c0.30157,-0.04604 0.68329,-0.06905 1.14676,-0.06905c0.50952,0 0.92139,0.01666 1.2341,0.05241c0.31189,0.03492 0.565,0.08807 0.7634,0.1595c0.19608,0.06905 0.34131,0.16347 0.43417,0.28094c0.09204,0.11747 0.18488,0.25951 0.27774,0.42298l6.87833,14.20815c0.64835,1.34042 1.29202,2.72845 1.92844,4.16093c0.63727,1.43407 1.27936,2.88007 1.9277,4.33714l0.06906,0c0.60242,-1.38805 1.21579,-2.7856 1.84119,-4.19667c0.62543,-1.40947 1.26263,-2.80702 1.91107,-4.19505l6.94888,-14.31451c0.06985,-0.16347 0.1492,-0.30551 0.24365,-0.42298c0.09052,-0.11748 0.21823,-0.21189 0.38174,-0.28094c0.16028,-0.07143 0.37537,-0.12455 0.642,-0.1595c0.26587,-0.03571 0.59521,-0.05241 0.99127,-0.05241c0.55554,0 1.00784,0.02301 1.35468,0.06908c0.3476,0.04762 0.59045,0.1357 0.72937,0.26504c0.13882,0.12857 0.19522,0.29922 0.17377,0.5111c-0.02377,0.21189 -0.11746,0.48252 -0.27859,0.81027l-12.92404,26.19654z" id="svg_21"/>
    <path stroke="null" fill="#5A4A42" d="m384.94098,117.80179l-0.03491,0l-8.47659,24.53867l17.19766,0l-8.68616,-24.53867zm18.65634,39.55711c0.13971,0.35237 0.20157,0.64044 0.19211,0.86345c-0.01352,0.22539 -0.09286,0.39363 -0.24524,0.51108c-0.1492,0.11827 -0.38019,0.19525 -0.69443,0.23018c-0.31189,0.03491 -0.71188,0.05315 -1.19836,0.05315s-0.87375,-0.01823 -1.16501,-0.05315c-0.28964,-0.03493 -0.51508,-0.08731 -0.67776,-0.15874c-0.16272,-0.07144 -0.28174,-0.16429 -0.36432,-0.28333c-0.0817,-0.11507 -0.15555,-0.25792 -0.22455,-0.42142l-4.30777,-12.16379l-19.73334,0l-4.13391,12.09236c-0.04688,0.16589 -0.11588,0.30635 -0.20874,0.4238c-0.0929,0.11748 -0.21985,0.21666 -0.38251,0.29921c-0.1619,0.0833 -0.38812,0.14761 -0.67615,0.19363c-0.29129,0.04761 -0.65479,0.07141 -1.09525,0.07141c-0.48648,0 -0.89117,-0.0238 -1.21579,-0.07141c-0.32379,-0.04602 -0.56271,-0.12857 -0.71106,-0.24683c-0.15237,-0.11665 -0.23334,-0.28094 -0.24289,-0.49283c-0.01352,-0.21191 0.05084,-0.49442 0.18967,-0.84679l15.73663,-43.40218c0.06912,-0.1865 0.17383,-0.34603 0.31268,-0.47458s0.31985,-0.23016 0.53973,-0.29922c0.21979,-0.0714 0.48642,-0.12379 0.79837,-0.15871c0.31265,-0.03651 0.66504,-0.05318 1.05865,-0.05318c0.41742,0 0.7825,0.01667 1.09521,0.05318c0.31268,0.03492 0.57932,0.0873 0.79916,0.15871c0.21982,0.06905 0.39362,0.17063 0.52139,0.29922c0.12695,0.12855 0.22461,0.28808 0.2944,0.47458l15.73904,43.40218z" id="svg_22"/>
    <path stroke="null" fill="#5A4A42" d="m434.30643,115.08681c0,0.32935 -0.02304,0.61505 -0.06906,0.86347c-0.04758,0.24602 -0.11584,0.44681 -0.20868,0.59838c-0.09286,0.15395 -0.20959,0.27141 -0.34769,0.35237c-0.13885,0.08332 -0.30072,0.12458 -0.48642,0.12458l-17.19373,0l0,41.07451c0,0.14049 -0.03656,0.26982 -0.10641,0.3873c-0.069,0.11745 -0.18484,0.21109 -0.3468,0.28252c-0.16266,0.06984 -0.37775,0.12936 -0.64279,0.1754c-0.26825,0.04761 -0.6087,0.07141 -1.02539,0.07141c-0.39362,0 -0.72772,-0.0238 -1.00632,-0.07141c-0.27853,-0.04604 -0.49915,-0.10556 -0.6611,-0.1754c-0.1626,-0.07143 -0.27933,-0.16507 -0.34756,-0.28252c-0.06985,-0.11748 -0.10236,-0.24681 -0.10236,-0.3873l0,-42.69746c0,-0.84519 0.2182,-1.42773 0.6579,-1.74515c0.44046,-0.31745 0.87057,-0.4746 1.28726,-0.4746l19.48651,0c0.18564,0 0.34756,0.04129 0.48648,0.12223c0.13882,0.08253 0.2547,0.19997 0.34756,0.35237c0.0921,0.15395 0.1611,0.35236 0.20877,0.60076c0.04678,0.24602 0.06982,0.52296 0.06982,0.82853" id="svg_23"/>
    <path stroke="null" fill="#5A4A42" d="m464.11316,115.08681c0,0.32935 -0.02383,0.61505 -0.07059,0.86347c-0.04608,0.24602 -0.11594,0.44681 -0.20874,0.59838c-0.0921,0.15395 -0.20798,0.27141 -0.34686,0.35237c-0.13968,0.08332 -0.30157,0.12458 -0.48642,0.12458l-17.19458,0l0,41.07451c0,0.14049 -0.03571,0.26982 -0.10556,0.3873c-0.06903,0.11745 -0.18491,0.21109 -0.34756,0.28252c-0.16269,0.06984 -0.37778,0.12936 -0.64203,0.1754c-0.26828,0.04761 -0.60953,0.07141 -1.02539,0.07141c-0.39365,0 -0.72858,-0.0238 -1.00714,-0.07141c-0.27774,-0.04604 -0.49911,-0.10556 -0.66183,-0.1754c-0.1611,-0.07143 -0.27777,-0.16507 -0.3476,-0.28252c-0.06906,-0.11748 -0.10159,-0.24681 -0.10159,-0.3873l0,-42.69746c0,-0.84519 0.21664,-1.42773 0.65793,-1.74515c0.43967,-0.31745 0.86978,-0.4746 1.2872,-0.4746l19.48651,0c0.18491,0 0.34763,0.04129 0.48648,0.12223c0.13895,0.08253 0.25397,0.19997 0.34686,0.35237c0.0928,0.15395 0.16266,0.35236 0.20868,0.60076c0.0484,0.24602 0.07224,0.52296 0.07224,0.82853" id="svg_24"/>
    <path stroke="null" fill="#5A4A42" d="m495.48325,156.90099c0,0.30556 -0.02298,0.57538 -0.06985,0.81029s-0.12219,0.43491 -0.22455,0.60077c-0.10559,0.16348 -0.22861,0.28731 -0.36743,0.36903c-0.13892,0.08255 -0.28732,0.12384 -0.44998,0.12384l-21.05072,0c-0.41666,0 -0.8468,-0.15874 -1.2865,-0.47621c-0.44119,-0.31824 -0.65866,-0.89839 -0.65866,-1.74516l0,-41.18005c0,-0.84599 0.21747,-1.4277 0.65866,-1.74594c0.4397,-0.31747 0.86984,-0.47462 1.2865,-0.47462l20.73724,0c0.16269,0 0.31427,0.04129 0.45236,0.12225c0.13965,0.0825 0.25476,0.20711 0.3476,0.3706c0.09286,0.16587 0.16187,0.37063 0.20874,0.61746c0.04681,0.24601 0.069,0.53409 0.069,0.86342c0,0.30556 -0.02219,0.57538 -0.069,0.8103c-0.04688,0.23651 -0.11588,0.43017 -0.20874,0.58251c-0.09283,0.15316 -0.20868,0.27143 -0.3476,0.35237c-0.13885,0.08255 -0.28967,0.12381 -0.45236,0.12381l-18.44452,0l0,16.04137l15.91052,0c0.1857,0 0.34756,0.04129 0.48648,0.12383s0.25397,0.2 0.34756,0.35236c0.0921,0.15399 0.16196,0.35237 0.20871,0.59921c0.04684,0.2476 0.06985,0.53568 0.06985,0.86504c0,0.30394 -0.02301,0.56903 -0.06985,0.79201c-0.04675,0.2238 -0.11588,0.40558 -0.20871,0.54605c-0.09286,0.14204 -0.20874,0.24759 -0.34756,0.31743c-0.13892,0.07143 -0.30078,0.10632 -0.48648,0.10632l-15.91052,0l0,18.19292l18.75879,0c0.16272,0 0.31192,0.04129 0.45001,0.12222c0.13885,0.08333 0.26184,0.19998 0.3674,0.35393c0.10239,0.1524 0.17859,0.35237 0.22461,0.59918c0.04602,0.24605 0.069,0.53412 0.069,0.86348" id="svg_25"/>
    <path stroke="null" fill="#5A4A42" d="m537.19348,157.3589c0.13885,0.35237 0.2016,0.64044 0.19202,0.86345c-0.01428,0.22539 -0.09918,0.39363 -0.2619,0.51108c-0.16187,0.11827 -0.41107,0.19525 -0.7475,0.23018c-0.33417,0.03491 -0.75793,0.05315 -1.26746,0.05315c-0.51031,0 -0.90393,-0.01823 -1.18091,-0.05315s-0.49286,-0.08731 -0.64203,-0.15874c-0.15161,-0.07144 -0.25079,-0.16429 -0.29761,-0.28333c-0.04681,-0.11507 -0.10236,-0.25792 -0.17218,-0.42142l-14.10345,-40.22929l-0.0365,0l-13.72003,40.22929c-0.05005,0.1635 -0.10638,0.30635 -0.17542,0.42142c-0.06989,0.11903 -0.18573,0.21188 -0.3476,0.28333c-0.16193,0.07143 -0.38013,0.12381 -0.65793,0.15874c-0.27774,0.03491 -0.6619,0.05315 -1.14835,0.05315c-0.50949,0 -0.92535,-0.0238 -1.24997,-0.07141c-0.32379,-0.04602 -0.56985,-0.12222 -0.72772,-0.22858c-0.16592,-0.10553 -0.24524,-0.25793 -0.24524,-0.4579s0.069,-0.49919 0.20871,-0.89996l15.59851,-43.40218c0.06982,-0.1865 0.1723,-0.34603 0.31195,-0.47458c0.13885,-0.12859 0.31665,-0.23016 0.53967,-0.29922c0.2182,-0.0714 0.48572,-0.12379 0.79675,-0.15871c0.31427,-0.03651 0.66827,-0.05318 1.06189,-0.05318c0.27856,0 0.53253,0.00478 0.76422,0.01667c0.23181,0.0135 0.44128,0.03651 0.62622,0.07143c0.18488,0.0341 0.34753,0.07539 0.48566,0.12379c0.13892,0.04604 0.26434,0.10556 0.38019,0.17541c0.11584,0.07064 0.20868,0.15871 0.2785,0.26427c0.06909,0.10633 0.1286,0.21825 0.17542,0.33412l15.56207,43.40221l0,-0.00003z" id="svg_26"/>
    <path stroke="null" fill="#5A4A42" d="m549.66595,158.10013c0,0.14049 -0.03656,0.26982 -0.10632,0.3873c-0.06903,0.11745 -0.1842,0.21109 -0.3468,0.28252c-0.16193,0.06905 -0.37781,0.12936 -0.64282,0.1754c-0.26825,0.04761 -0.6087,0.07141 -1.02539,0.07141c-0.39362,0 -0.72778,-0.0238 -1.00629,-0.07141c-0.27856,-0.04604 -0.49921,-0.10635 -0.66107,-0.1754c-0.16272,-0.07143 -0.27936,-0.16507 -0.3476,-0.28252c-0.06989,-0.11748 -0.10242,-0.24681 -0.10242,-0.3873l0,-44.21246c0,-0.14046 0.03967,-0.26982 0.11908,-0.38888c0.08252,-0.11745 0.20789,-0.2103 0.38324,-0.28173c0.17224,-0.07064 0.39368,-0.12857 0.65796,-0.1762c0.26825,-0.04681 0.58569,-0.06982 0.9563,-0.06982c0.41669,0 0.75714,0.02301 1.02533,0.06982c0.26514,0.04763 0.48022,0.10556 0.64282,0.1762c0.16193,0.07143 0.27783,0.16428 0.34686,0.28173c0.06982,0.11906 0.10632,0.24842 0.10632,0.38888l0,44.21246l0.00079,0z" id="svg_27"/>
    <path stroke="null" fill="#5A4A42" d="m590.17145,158.0287c0,0.1651 -0.02301,0.30635 -0.06903,0.4238c-0.04761,0.11665 -0.1524,0.21587 -0.31427,0.29921c-0.16272,0.08253 -0.38013,0.1468 -0.65869,0.19363c-0.27783,0.04761 -0.63806,0.07065 -1.07776,0.07065c-0.41663,0 -0.83801,-0.02304 -1.2674,-0.07065c-0.43091,-0.04683 -0.75714,-0.14603 -0.98883,-0.29997c-0.23181,-0.15161 -0.43024,-0.33336 -0.59283,-0.54524l-18.16754,-23.41093l0,23.41093c0,0.14049 -0.03571,0.26982 -0.10553,0.38651c-0.06909,0.11745 -0.18414,0.21188 -0.34686,0.28331c-0.16266,0.06905 -0.37854,0.12857 -0.64282,0.1754c-0.26819,0.04761 -0.6087,0.07065 -1.02612,0.07065c-0.39368,0 -0.72772,-0.02304 -1.00549,-0.07065c-0.27863,-0.04683 -0.50006,-0.10635 -0.66193,-0.1754c-0.16187,-0.07143 -0.2785,-0.16586 -0.3476,-0.28331c-0.06903,-0.11668 -0.10236,-0.24602 -0.10236,-0.38651l0,-44.21326c0,-0.14048 0.03333,-0.26903 0.10236,-0.38806c0.06989,-0.11747 0.18573,-0.21033 0.3476,-0.28175c0.16187,-0.07061 0.3833,-0.12933 0.66193,-0.17696c0.27777,-0.04602 0.61182,-0.06905 1.00549,-0.06905c0.41742,0 0.75793,0.02301 1.02612,0.06905c0.26428,0.04763 0.47937,0.10635 0.64282,0.17696c0.16193,0.07143 0.27777,0.16428 0.34686,0.28175c0.06982,0.11903 0.10553,0.24758 0.10553,0.38806l0,20.7309l17.40405,-20.7309c0.13892,-0.16349 0.28967,-0.30553 0.45233,-0.42298c0.16193,-0.11747 0.3476,-0.21191 0.55554,-0.28097c0.20874,-0.0714 0.45001,-0.1246 0.72772,-0.1595c0.27942,-0.03571 0.62543,-0.05238 1.04285,-0.05238c0.41589,0 0.75317,0.02301 1.00873,0.06905c0.2547,0.04763 0.4563,0.11269 0.6095,0.19524c0.14917,0.08253 0.24841,0.17535 0.29364,0.28171c0.04681,0.10555 0.06982,0.22935 0.06982,0.36983c0,0.25874 -0.06586,0.50632 -0.19128,0.73966c-0.12622,0.2365 -0.34204,0.51823 -0.64282,0.84678l-16.36365,19.00398l17.47626,22.24748c0.32385,0.42223 0.5191,0.71666 0.58893,0.88014c0.06824,0.16585 0.10474,0.30634 0.10474,0.42378" id="svg_28"/>
    <path stroke="null" fill="#5A4A42" d="m629.60236,158.10013c0,0.14049 -0.03729,0.26982 -0.10632,0.3873c-0.06982,0.11745 -0.18494,0.21109 -0.34766,0.28252c-0.16187,0.06905 -0.38086,0.12936 -0.65863,0.1754c-0.27856,0.04761 -0.61505,0.07141 -1.00867,0.07141c-0.41589,0 -0.75714,-0.0238 -1.02222,-0.07141c-0.26831,-0.04604 -0.48254,-0.10635 -0.6452,-0.1754c-0.16193,-0.07143 -0.27777,-0.16507 -0.34766,-0.28252c-0.06903,-0.11748 -0.10236,-0.24681 -0.10236,-0.3873l0,-21.26024l-22.44037,0l0,21.26024c0,0.14049 -0.0365,0.26982 -0.10712,0.3873c-0.06903,0.11745 -0.18414,0.21109 -0.3476,0.28252c-0.16187,0.06905 -0.37695,0.12936 -0.64124,0.1754c-0.26904,0.04761 -0.60956,0.07141 -1.02618,0.07141c-0.39362,0 -0.72778,-0.0238 -1.00629,-0.07141c-0.27777,-0.04604 -0.49915,-0.10635 -0.66107,-0.1754c-0.16272,-0.07143 -0.27856,-0.16507 -0.3476,-0.28252c-0.06982,-0.11748 -0.10321,-0.24681 -0.10321,-0.3873l0,-44.21246c0,-0.14046 0.03339,-0.26982 0.10321,-0.38888c0.06903,-0.11745 0.18408,-0.2103 0.3476,-0.28173c0.16193,-0.07064 0.3833,-0.12857 0.66107,-0.1762c0.2785,-0.04681 0.61188,-0.06982 1.00629,-0.06982c0.41663,0 0.75714,0.02301 1.02618,0.06982c0.26428,0.04763 0.47937,0.10556 0.64124,0.1762c0.16266,0.07143 0.27856,0.16428 0.3476,0.28173c0.07062,0.11906 0.10712,0.24842 0.10712,0.38888l0,19.10951l22.44037,0l0,-19.10951c0,-0.14046 0.03333,-0.26982 0.10236,-0.38888c0.07068,-0.11745 0.18573,-0.2103 0.34766,-0.28173c0.16187,-0.07064 0.37689,-0.12857 0.6452,-0.1762c0.26508,-0.04681 0.60632,-0.06982 1.02222,-0.06982c0.39362,0 0.73083,0.02301 1.00867,0.06982c0.27777,0.04763 0.49677,0.10556 0.65863,0.1762c0.16193,0.07143 0.27783,0.16428 0.34766,0.28173c0.06903,0.11906 0.10632,0.24842 0.10632,0.38888l0,44.21246z" id="svg_29"/>
    <path stroke="null" fill="#5A4A42" d="m332.3884,243.5506c0,0.30553 -0.02298,0.57693 -0.06903,0.81107c-0.0484,0.23413 -0.12305,0.4333 -0.22702,0.59839c-0.10474,0.16589 -0.2254,0.28809 -0.36423,0.37064c-0.13892,0.08253 -0.2905,0.12221 -0.45157,0.12221l-21.0531,0c-0.41666,0 -0.84521,-0.15874 -1.28564,-0.47697c-0.43967,-0.31665 -0.65952,-0.89998 -0.65952,-1.74277l0,-41.18007c0,-0.84758 0.21985,-1.43091 0.65952,-1.74835c0.44037,-0.31662 0.86899,-0.47618 1.28564,-0.47618l20.74039,0c0.16113,0 0.31271,0.04369 0.45157,0.12622s0.2532,0.20474 0.34763,0.36664c0.09128,0.16586 0.16031,0.37062 0.20874,0.619c0.04602,0.24763 0.069,0.53574 0.069,0.86348c0,0.30394 -0.02298,0.57617 -0.069,0.81027c-0.04843,0.23572 -0.11746,0.43092 -0.20874,0.58253c-0.09442,0.15155 -0.20868,0.27141 -0.34763,0.35318c-0.13885,0.0825 -0.29044,0.12218 -0.45157,0.12218l-18.44766,0l0,16.04301l15.91211,0c0.18326,0 0.34756,0.04045 0.48642,0.12224c0.13889,0.08249 0.25323,0.19838 0.34763,0.35393c0.09045,0.15239 0.16037,0.35078 0.20798,0.59917c0.0452,0.24522 0.06982,0.53253 0.06982,0.86345c0,0.30396 -0.02466,0.56905 -0.06982,0.79364c-0.04761,0.22139 -0.11752,0.40474 -0.20798,0.54602c-0.09439,0.13966 -0.20874,0.24602 -0.34763,0.31744c-0.13885,0.06982 -0.30316,0.10712 -0.48642,0.10712l-15.91211,0l0,18.18973l18.76038,0c0.16107,0 0.31265,0.04285 0.45157,0.1246c0.13882,0.08331 0.25949,0.19919 0.36423,0.35078c0.10397,0.15556 0.17862,0.35396 0.22702,0.59918c0.04526,0.25 0.06903,0.53728 0.06903,0.86823" id="svg_30"/>
    <path stroke="null" fill="#5A4A42" d="m370.42892,244.67911c0,0.16191 -0.02298,0.30476 -0.06985,0.42062c-0.04761,0.11827 -0.15158,0.21747 -0.31265,0.30078c-0.1619,0.08252 -0.38177,0.14523 -0.65952,0.19522c-0.2778,0.04604 -0.63885,0.06984 -1.07697,0.06984c-0.41663,0 -0.84039,-0.0238 -1.26898,-0.06984c-0.42773,-0.04999 -0.75946,-0.14919 -0.98886,-0.30078c-0.23331,-0.15237 -0.43011,-0.3349 -0.59122,-0.5468l-18.16989,-23.41016l0,23.41016c0,0.13966 -0.03415,0.27144 -0.10397,0.3873c-0.069,0.11903 -0.18494,0.21188 -0.3476,0.28093c-0.1619,0.07381 -0.37695,0.12857 -0.64124,0.17935c-0.26666,0.04604 -0.60873,0.06984 -1.02618,0.06984c-0.39355,0 -0.72931,-0.0238 -1.00705,-0.06984c-0.27783,-0.04999 -0.49835,-0.10555 -0.66031,-0.17935c-0.16193,-0.06984 -0.27777,-0.1619 -0.34756,-0.28093c-0.06906,-0.11586 -0.10397,-0.24843 -0.10397,-0.3873l0,-44.21326c0,-0.13887 0.03491,-0.26825 0.10397,-0.38728c0.06979,-0.11586 0.18564,-0.21188 0.34756,-0.28094c0.16196,-0.06905 0.38248,-0.12857 0.66031,-0.17616c0.2778,-0.04605 0.61349,-0.07144 1.00705,-0.07144c0.41745,0 0.75952,0.02539 1.02618,0.07144c0.26428,0.04759 0.47934,0.10712 0.64124,0.17616c0.16266,0.06984 0.27859,0.16588 0.3476,0.28094c0.06982,0.11903 0.10397,0.24841 0.10397,0.38728l0,20.73407l17.40561,-20.73407c0.13971,-0.16269 0.28812,-0.30476 0.45236,-0.4198c0.16034,-0.11909 0.3476,-0.21271 0.55554,-0.28413c0.20874,-0.07065 0.4516,-0.123 0.72934,-0.15953c0.27859,-0.03253 0.6254,-0.05159 1.04202,-0.05159c0.41745,0 0.75156,0.02541 1.0079,0.07144c0.25476,0.04761 0.45633,0.11029 0.60715,0.19203c0.14996,0.08255 0.24838,0.17937 0.29599,0.28493c0.04602,0.10556 0.06903,0.22855 0.06903,0.36745c0,0.26108 -0.06427,0.50554 -0.19125,0.74124c-0.12775,0.23569 -0.34283,0.51901 -0.64203,0.84599l-16.36365,19.00398l17.47546,22.24591c0.32382,0.42297 0.52063,0.71741 0.59052,0.88249c0.069,0.16269 0.10394,0.30397 0.10394,0.4238" id="svg_31"/>
    <path stroke="null" fill="#5A4A42" d="m406.31393,244.67911c0,0.16191 -0.02301,0.30476 -0.06903,0.42062c-0.04761,0.11827 -0.15237,0.21747 -0.31509,0.30078c-0.1619,0.08252 -0.38016,0.14523 -0.6579,0.19522c-0.27777,0.04604 -0.63885,0.06984 -1.07773,0.06984c-0.41663,0 -0.83804,-0.0238 -1.26819,-0.06984c-0.43011,-0.04999 -0.75714,-0.14919 -0.98804,-0.30078c-0.23257,-0.15237 -0.43097,-0.3349 -0.59283,-0.5468l-18.16913,-23.41016l0,23.41016c0,0.13966 -0.03412,0.27144 -0.10397,0.3873c-0.06903,0.11903 -0.18491,0.21188 -0.34756,0.28093c-0.1619,0.07381 -0.37698,0.12857 -0.64124,0.17935c-0.26666,0.04604 -0.60876,0.06984 -1.02618,0.06984c-0.39362,0 -0.72937,-0.0238 -1.00711,-0.06984c-0.27774,-0.04999 -0.49835,-0.10555 -0.66028,-0.17935c-0.1619,-0.06984 -0.27777,-0.1619 -0.3476,-0.28093c-0.06906,-0.11586 -0.10397,-0.24843 -0.10397,-0.3873l0,-44.21326c0,-0.13887 0.03491,-0.26825 0.10397,-0.38728c0.06982,-0.11586 0.1857,-0.21188 0.3476,-0.28094c0.16193,-0.06905 0.38254,-0.12857 0.66028,-0.17616c0.27774,-0.04605 0.61349,-0.07144 1.00711,-0.07144c0.41742,0 0.75952,0.02539 1.02618,0.07144c0.26425,0.04759 0.47934,0.10712 0.64124,0.17616c0.16266,0.06984 0.27853,0.16588 0.34756,0.28094c0.06985,0.11903 0.10397,0.24841 0.10397,0.38728l0,20.73407l17.40405,-20.73407c0.13965,-0.16269 0.29126,-0.30476 0.45316,-0.4198c0.16272,-0.11909 0.3476,-0.21271 0.55634,-0.28413c0.20874,-0.07065 0.44995,-0.123 0.72772,-0.15953c0.27856,-0.03253 0.62543,-0.05159 1.04202,-0.05159c0.41742,0 0.75476,0.02541 1.00952,0.07144c0.2547,0.04761 0.4563,0.11029 0.60867,0.19203c0.1492,0.08255 0.24841,0.17937 0.29443,0.28493c0.04681,0.10556 0.069,0.22855 0.069,0.36745c0,0.26108 -0.06583,0.50554 -0.1904,0.74124c-0.12622,0.23569 -0.34204,0.51901 -0.64288,0.84599l-16.36359,19.00398l17.47546,22.24591c0.32382,0.42297 0.51904,0.71741 0.58887,0.88249c0.069,0.16269 0.10556,0.30397 0.10556,0.4238" id="svg_32"/>
    <path stroke="null" fill="#5A4A42" d="m446.5083,244.00691c0.13889,0.35397 0.2016,0.64284 0.19205,0.86427c-0.01428,0.22459 -0.09918,0.39363 -0.2619,0.51266c-0.1619,0.11588 -0.41025,0.19205 -0.74759,0.22858c-0.33411,0.0365 -0.75787,0.05315 -1.2674,0.05315c-0.51031,0 -0.90393,-0.01665 -1.18088,-0.05315s-0.49289,-0.08969 -0.64124,-0.15874c-0.15244,-0.06984 -0.25159,-0.16585 -0.29846,-0.28094c-0.04678,-0.11903 -0.10318,-0.2579 -0.17218,-0.423l-14.10339,-40.22691l-0.03653,0l-13.72006,40.22691c-0.05002,0.1651 -0.10635,0.30397 -0.17535,0.423c-0.07068,0.11588 -0.18576,0.2119 -0.34769,0.28094c-0.16187,0.06905 -0.38007,0.12221 -0.65787,0.15874c-0.27859,0.0365 -0.66183,0.05315 -1.14838,0.05315c-0.50946,0 -0.92615,-0.0238 -1.24991,-0.06982c-0.32382,-0.05 -0.56982,-0.12619 -0.72772,-0.23175c-0.16589,-0.10634 -0.24527,-0.2579 -0.24527,-0.45631s0.069,-0.49919 0.20795,-0.90077l15.59933,-43.3998c0.06985,-0.1889 0.17224,-0.34758 0.31189,-0.47774c0.13895,-0.12859 0.31668,-0.22778 0.53961,-0.3008c0.21832,-0.06985 0.48572,-0.12224 0.79684,-0.15793c0.3143,-0.03412 0.66821,-0.05319 1.06189,-0.05319c0.27774,0 0.5325,0.00716 0.76428,0.01907c0.23172,0.01033 0.44119,0.03412 0.6261,0.06981c0.18494,0.03654 0.34766,0.07622 0.48572,0.12224c0.13889,0.05 0.26505,0.10556 0.38013,0.17937c0.11591,0.06902 0.20953,0.15871 0.27936,0.26427c0.06906,0.10236 0.12936,0.21506 0.17542,0.3349l15.56125,43.3998z" id="svg_33"/>
    <path stroke="null" fill="#5A4A42" d="m485.66071,244.74895c0,0.13887 -0.03729,0.27144 -0.10635,0.38651c-0.06982,0.11903 -0.18491,0.21271 -0.34763,0.28093c-0.1619,0.07303 -0.38092,0.12936 -0.65869,0.17859c-0.27856,0.04759 -0.61505,0.06981 -1.00867,0.06981c-0.41589,0 -0.75714,-0.02222 -1.02222,-0.06981c-0.26822,-0.04922 -0.48245,-0.10556 -0.6452,-0.17859c-0.16272,-0.06905 -0.27777,-0.1619 -0.34756,-0.28093c-0.06985,-0.11586 -0.10239,-0.2484 -0.10239,-0.38651l0,-21.26102l-22.4404,0l0,21.26102c0,0.13887 -0.0365,0.27144 -0.10715,0.38651c-0.069,0.11903 -0.18408,0.21271 -0.3476,0.28093c-0.16187,0.07303 -0.37689,0.12936 -0.64124,0.17859c-0.26907,0.04759 -0.60947,0.06981 -1.02615,0.06981c-0.39362,0 -0.72772,-0.02222 -1.00632,-0.06981c-0.27774,-0.04922 -0.49918,-0.10556 -0.66183,-0.17859c-0.1619,-0.06905 -0.27774,-0.1619 -0.34683,-0.28093c-0.06985,-0.11586 -0.10321,-0.2484 -0.10321,-0.38651l0,-44.21405c0,-0.13966 0.03336,-0.26823 0.10321,-0.38728c0.06909,-0.11586 0.18411,-0.21268 0.34683,-0.28091c0.16266,-0.06987 0.38409,-0.12939 0.66183,-0.17542c0.27859,-0.04604 0.61191,-0.07301 1.00632,-0.07301c0.41669,0 0.75708,0.02698 1.02615,0.07301c0.26434,0.04602 0.47937,0.10555 0.64124,0.17542c0.16272,0.06903 0.27859,0.16505 0.3476,0.28091c0.07065,0.11905 0.10715,0.24841 0.10715,0.38728l0,19.10875l22.4404,0l0,-19.10875c0,-0.13966 0.03253,-0.26823 0.10239,-0.38728c0.07062,-0.11586 0.18484,-0.21268 0.34756,-0.28091c0.1619,-0.06987 0.37698,-0.12939 0.6452,-0.17542c0.26508,-0.04604 0.60632,-0.07301 1.02222,-0.07301c0.39362,0 0.7309,0.02698 1.00867,0.07301c0.27777,0.04602 0.4968,0.10555 0.65869,0.17542c0.16193,0.06903 0.2778,0.16505 0.34763,0.28091c0.06906,0.11905 0.10635,0.24841 0.10635,0.38728l0,44.21405z" id="svg_34"/>
    <path stroke="null" fill="#5A4A42" d="m521.09412,243.5506c0,0.30553 -0.02222,0.57693 -0.06903,0.81107c-0.04681,0.23413 -0.12219,0.4333 -0.2254,0.59839c-0.10632,0.16589 -0.22858,0.28809 -0.36743,0.37064c-0.13885,0.08253 -0.28729,0.12221 -0.44922,0.12221l-23.89981,0c-0.41745,0 -0.77771,-0.14603 -1.07855,-0.43967c-0.30151,-0.29442 -0.44916,-0.78093 -0.44916,-1.46346l0,-0.77696c0,-0.21188 0.00955,-0.42297 0.03259,-0.63486c0.02219,-0.21271 0.07617,-0.43332 0.15472,-0.66902c0.08334,-0.23492 0.2095,-0.49998 0.38409,-0.79442c0.17145,-0.29442 0.41031,-0.63808 0.71109,-1.03807l13.82721,-18.58096l-12.60977,-15.4073c-0.2778,-0.33093 -0.49924,-0.61902 -0.6611,-0.86345c-0.16272,-0.24843 -0.29126,-0.48965 -0.38013,-0.72458c-0.09607,-0.23492 -0.15878,-0.47617 -0.19205,-0.72061c-0.03656,-0.2484 -0.05243,-0.52219 -0.05243,-0.8309l0,-0.77458c0,-0.6349 0.13971,-1.11188 0.41666,-1.43011c0.27777,-0.31665 0.64841,-0.47615 1.11185,-0.47615l22.37051,0c0.16272,0 0.31427,0.04364 0.45319,0.12619s0.25476,0.20477 0.3476,0.36668c0.0929,0.16582 0.16187,0.37059 0.20947,0.61902c0.04608,0.2476 0.06909,0.53568 0.06909,0.86345c0,0.30394 -0.02301,0.57614 -0.06909,0.81027c-0.04761,0.2357 -0.11584,0.43092 -0.20947,0.58253c-0.0921,0.15157 -0.20868,0.27139 -0.3476,0.35315c-0.13892,0.08253 -0.29047,0.12221 -0.45319,0.12221l-18.75873,0l12.43677,15.16049c0.13892,0.16508 0.25476,0.323 0.3468,0.47617c0.09283,0.15236 0.1698,0.3111 0.2254,0.47697c0.05951,0.16586 0.09924,0.33014 0.12219,0.49281c0.02307,0.16588 0.0365,0.34128 0.0365,0.52858c0,0.14365 -0.01343,0.29599 -0.0365,0.46027c-0.02295,0.1627 -0.06268,0.32065 -0.12219,0.47382c-0.0556,0.15553 -0.13257,0.31427 -0.2254,0.47694c-0.09125,0.16508 -0.20789,0.33015 -0.3468,0.49286l-14.03592,18.89844l20.67215,0c0.16193,0 0.3111,0.04282 0.44922,0.12459c0.13885,0.08334 0.26111,0.1992 0.36743,0.35078c0.10321,0.15553 0.17932,0.35394 0.2254,0.59917c0.04688,0.24922 0.06903,0.5365 0.06903,0.86743" id="svg_35"/>
    <path stroke="null" fill="#5A4A42" d="m535.23401,244.74895c0,0.13887 -0.0365,0.27144 -0.10553,0.38651c-0.06982,0.11903 -0.18567,0.21271 -0.3476,0.28093c-0.16193,0.07303 -0.37781,0.12936 -0.64282,0.17859c-0.26746,0.04759 -0.6087,0.06981 -1.02533,0.06981c-0.39368,0 -0.72778,-0.02222 -1.00562,-0.06981c-0.2793,-0.04922 -0.49994,-0.10556 -0.6618,-0.17859c-0.16272,-0.06905 -0.27863,-0.1619 -0.3476,-0.28093c-0.06982,-0.11586 -0.10242,-0.2484 -0.10242,-0.38651l0,-44.21405c0,-0.13966 0.03967,-0.26823 0.11908,-0.38728c0.08252,-0.11586 0.20789,-0.21268 0.3833,-0.28091c0.17145,-0.06987 0.39362,-0.12939 0.65784,-0.17542c0.26831,-0.04604 0.58575,-0.07301 0.95636,-0.07301c0.41669,0 0.75793,0.02698 1.02539,0.07301c0.26508,0.04602 0.4801,0.10555 0.64276,0.17542c0.16113,0.06903 0.27783,0.16505 0.34766,0.28091c0.06903,0.11905 0.10559,0.24841 0.10559,0.38728l0,44.21405l0.00073,0z" id="svg_36"/>
    <path stroke="null" fill="#5A4A42" d="m561.63611,204.44743l-0.0365,0l-8.47589,24.53944l17.19696,0l-8.68457,-24.53944zm18.6532,39.55948c0.13892,0.35397 0.20477,0.64284 0.19208,0.86427c-0.01031,0.22459 -0.09283,0.39363 -0.24207,0.51266c-0.15155,0.11588 -0.3833,0.19205 -0.6944,0.22858c-0.31427,0.0365 -0.71503,0.05315 -1.20233,0.05315c-0.48492,0 -0.87292,-0.01665 -1.16028,-0.05315c-0.29205,-0.03653 -0.51581,-0.08969 -0.67773,-0.15874c-0.16272,-0.06984 -0.28491,-0.16585 -0.36426,-0.28094c-0.08252,-0.11903 -0.15869,-0.2579 -0.22784,-0.423l-4.30768,-12.16537l-19.73175,0l-4.13232,12.09554c-0.05005,0.16272 -0.11914,0.30476 -0.20874,0.42062c-0.0921,0.11827 -0.2215,0.21747 -0.38336,0.30078c-0.16272,0.08255 -0.38727,0.14603 -0.67773,0.19522c-0.28809,0.04604 -0.65479,0.06987 -1.0929,0.06987c-0.48566,0 -0.89282,-0.02383 -1.21655,-0.06987c-0.32379,-0.04999 -0.56189,-0.13251 -0.71106,-0.24837c-0.15161,-0.11589 -0.23175,-0.28098 -0.24451,-0.49286c-0.01105,-0.21188 0.05164,-0.49284 0.19135,-0.84677l15.73743,-43.39983c0.07062,-0.18887 0.17297,-0.34761 0.31189,-0.47777c0.13885,-0.12854 0.31744,-0.22775 0.53967,-0.30077c0.2182,-0.06982 0.48566,-0.12221 0.79675,-0.15794c0.31427,-0.0341 0.6698,-0.05316 1.06262,-0.05316c0.41669,0 0.78021,0.01906 1.09125,0.05316c0.31512,0.03574 0.57941,0.08812 0.80157,0.15794c0.21747,0.07301 0.39362,0.17223 0.51898,0.30077c0.1286,0.13016 0.22784,0.2881 0.29761,0.47777l15.73431,43.39821z" id="svg_37"/>
    <path stroke="null" fill="#5A4A42" d="m321.54758,291.09308l-0.03412,0l-8.47665,24.53949l17.19772,0l-8.68695,-24.53949zm18.6564,39.55945c0.13965,0.35394 0.20157,0.64282 0.19046,0.86353c-0.01193,0.22537 -0.0929,0.39359 -0.24365,0.51263c-0.14999,0.11584 -0.38174,0.19208 -0.6944,0.22855s-0.71112,0.0524 -1.1976,0.0524c-0.48651,0 -0.87534,-0.01663 -1.16425,-0.0524c-0.28967,-0.03647 -0.51663,-0.08966 -0.67694,-0.15872c-0.16187,-0.06982 -0.28412,-0.16589 -0.36508,-0.28174c-0.08173,-0.11826 -0.15552,-0.25708 -0.22537,-0.42218l-4.30777,-12.16537l-19.73331,0l-4.13394,12.09552c-0.04602,0.16193 -0.11588,0.30478 -0.20874,0.4198c-0.09204,0.11908 -0.21979,0.21826 -0.38174,0.30084c-0.16187,0.08252 -0.38882,0.14682 -0.67694,0.19516c-0.29047,0.04688 -0.65475,0.06989 -1.09436,0.06989c-0.48651,0 -0.89209,-0.02301 -1.21585,-0.06989c-0.32455,-0.04913 -0.56271,-0.13251 -0.71188,-0.24838c-0.15237,-0.11584 -0.23331,-0.28094 -0.24286,-0.4928c-0.01349,-0.21271 0.05078,-0.49289 0.19052,-0.84683l15.73584,-43.40057c0.06982,-0.18808 0.17377,-0.3476 0.31265,-0.47696c0.13892,-0.12933 0.31979,-0.22858 0.53964,-0.30078c0.21985,-0.06985 0.48654,-0.12222 0.79919,-0.15793c0.31271,-0.03412 0.66507,-0.05322 1.05869,-0.05322c0.41669,0 0.78253,0.0191 1.09521,0.05322c0.31265,0.03571 0.57852,0.08807 0.79837,0.15793c0.22067,0.0722 0.39359,0.17145 0.52139,0.30078c0.12701,0.12936 0.22455,0.28809 0.29443,0.47696l15.73822,43.40057l0.00006,0z" id="svg_38"/>
    <path stroke="null" fill="#5A4A42" d="m370.91541,288.38049c0,0.327 -0.02463,0.61505 -0.06906,0.86346c-0.04843,0.24442 -0.11829,0.44678 -0.20868,0.59839c-0.09448,0.15237 -0.20874,0.27142 -0.34766,0.35474c-0.13889,0.08255 -0.30237,0.12222 -0.48648,0.12222l-17.19693,0l0,41.07449c0,0.13889 -0.03491,0.27139 -0.10477,0.38651c-0.069,0.11905 -0.18488,0.21191 -0.34674,0.28091c-0.16272,0.07303 -0.37701,0.1286 -0.64209,0.17859c-0.26663,0.04681 -0.60873,0.06982 -1.02533,0.06982c-0.39444,0 -0.73013,-0.02301 -1.00793,-0.06982c-0.2778,-0.04999 -0.49759,-0.10556 -0.66031,-0.17859c-0.16183,-0.06982 -0.27774,-0.16187 -0.34674,-0.28091c-0.06989,-0.11584 -0.10477,-0.24841 -0.10477,-0.38651l0,-42.69586c0,-0.84677 0.22058,-1.43011 0.66025,-1.74673c0.43967,-0.31744 0.86823,-0.47699 1.28571,-0.47699l19.48965,0c0.18411,0 0.3476,0.04367 0.48648,0.12543c0.13892,0.08252 0.25317,0.19839 0.34766,0.35074c0.09039,0.15161 0.16025,0.35318 0.20868,0.59839c0.04443,0.24921 0.06906,0.52698 0.06906,0.83173" id="svg_39"/>
    <path stroke="null" fill="#5A4A42" d="m383.28073,328.92566c0,1.38647 -0.21979,2.30154 -0.66028,2.74988c-0.43967,0.44601 -1.22693,0.67142 -2.36179,0.67142c-1.08887,0 -1.84598,-0.2182 -2.27454,-0.65555c-0.43011,-0.43329 -0.64362,-1.33325 -0.64362,-2.69513c0,-1.38644 0.21982,-2.30304 0.65952,-2.74985c0.44046,-0.44681 1.22772,-0.66901 2.36258,-0.66901c1.08807,0 1.84592,0.21503 2.27609,0.65152c0.42856,0.43414 0.64203,1.33405 0.64203,2.69672" id="svg_40"/>
    <path stroke="null" fill="#5A4A42" d="m442.58466,331.39301c0,0.13882 -0.0365,0.27139 -0.10629,0.38727c-0.06912,0.11829 -0.18497,0.21188 -0.34766,0.28091c-0.16266,0.07385 -0.38019,0.12936 -0.65866,0.17935c-0.2778,0.04688 -0.61429,0.06989 -1.0087,0.06989c-0.41742,0 -0.75793,-0.02301 -1.02298,-0.06989c-0.26746,-0.04999 -0.48254,-0.1055 -0.64526,-0.17935c-0.16263,-0.06903 -0.27774,-0.1619 -0.34756,-0.28091c-0.06985,-0.11588 -0.10236,-0.24844 -0.10236,-0.38727l0,-41.07452l-22.44116,0l0,41.07452c0,0.13882 -0.03732,0.27139 -0.10632,0.38727c-0.06989,0.11829 -0.18576,0.21188 -0.34763,0.28091c-0.16193,0.07385 -0.37698,0.12936 -0.64203,0.17935c-0.26746,0.04688 -0.60873,0.06989 -1.02539,0.06989c-0.39365,0 -0.72772,-0.02301 -1.00629,-0.06989c-0.27774,-0.04999 -0.49924,-0.1055 -0.66187,-0.17935c-0.16113,-0.06903 -0.27777,-0.1619 -0.34683,-0.28091c-0.06985,-0.11588 -0.10318,-0.24844 -0.10318,-0.38727l0,-42.6951c0,-0.84756 0.21747,-1.43008 0.65872,-1.74673c0.43967,-0.31747 0.86984,-0.47699 1.28644,-0.47699l27.02747,0c0.43964,0 0.87299,0.15872 1.30313,0.47699c0.427,0.31665 0.64282,0.89917 0.64282,1.74673l0,42.6951l0.00159,0z" id="svg_41"/>
    <path stroke="null" fill="#5A4A42" d="m468.98593,291.09308l-0.03653,0l-8.4758,24.53949l17.19687,0l-8.68454,-24.53949zm18.65323,39.55945c0.13971,0.35394 0.20557,0.64282 0.19208,0.86353c-0.01035,0.22537 -0.09286,0.39359 -0.24207,0.51263c-0.15158,0.11584 -0.38336,0.19208 -0.6944,0.22855c-0.3143,0.0365 -0.71509,0.0524 -1.20157,0.0524s-0.87375,-0.01663 -1.16187,-0.0524c-0.28967,-0.03647 -0.51505,-0.08966 -0.67776,-0.15872c-0.1619,-0.06982 -0.28485,-0.16589 -0.36426,-0.28174c-0.08252,-0.11826 -0.15875,-0.25708 -0.22775,-0.42218l-4.30774,-12.16537l-19.73175,0l-4.13235,12.09552c-0.05005,0.16193 -0.11905,0.30478 -0.20795,0.4198c-0.09283,0.11908 -0.22217,0.21826 -0.38409,0.30084c-0.16272,0.08252 -0.38727,0.14682 -0.67773,0.19516c-0.28812,0.04688 -0.65479,0.06989 -1.09201,0.06989c-0.48569,0 -0.89282,-0.02301 -1.21744,-0.06989c-0.32382,-0.04913 -0.56189,-0.13251 -0.71106,-0.24838c-0.15164,-0.11584 -0.23175,-0.28094 -0.24527,-0.4928c-0.00949,-0.21271 0.05237,-0.49289 0.19205,-0.84683l15.73907,-43.40057c0.06906,-0.18808 0.17139,-0.3476 0.31107,-0.47696c0.13892,-0.12933 0.31747,-0.22858 0.53891,-0.30078c0.2182,-0.06985 0.48642,-0.12222 0.79758,-0.15793c0.3143,-0.03412 0.66895,-0.05322 1.06265,-0.05322c0.4158,0 0.7793,0.0191 1.09122,0.05322c0.31427,0.03571 0.57852,0.08807 0.80075,0.15793c0.21744,0.0722 0.39444,0.17145 0.51981,0.30078c0.1286,0.12936 0.22778,0.28809 0.29761,0.47696l15.73428,43.40057z" id="svg_42"/>
    <path stroke="null" fill="#5A4A42" d="m517.20459,299.94434c0,-1.97534 -0.38409,-3.64987 -1.14838,-5.02283c-0.76428,-1.37613 -1.6983,-2.39835 -2.79596,-3.0697c-1.10156,-0.66824 -2.24591,-1.09204 -3.44031,-1.26743c-1.19122,-0.17618 -2.31976,-0.26428 -3.38477,-0.26428l-6.39182,0l0,19.81433l6.11325,0c1.9682,0 3.61334,-0.25165 4.93396,-0.75793c1.31976,-0.50635 2.43085,-1.20398 3.33398,-2.09753s1.59198,-1.96902 2.06732,-3.22607c0.47302,-1.2579 0.71271,-2.62689 0.71271,-4.10855m4.47839,-0.38812c0,2.11423 -0.35077,4.05304 -1.05872,5.81644s-1.72052,3.27844 -3.04028,4.54901c-1.31982,1.27057 -2.92767,2.25629 -4.82684,2.96024s-4.19183,1.05865 -6.8783,1.05865l-5.83624,0l0,17.45166c0,0.13968 -0.03729,0.27145 -0.10715,0.3873c-0.06903,0.11905 -0.18411,0.21188 -0.34756,0.28098c-0.1619,0.07217 -0.37781,0.12854 -0.64209,0.17932c-0.26819,0.04605 -0.60867,0.06982 -1.02533,0.06982c-0.39365,0 -0.72852,-0.02377 -1.00635,-0.06982c-0.27774,-0.04999 -0.49911,-0.10715 -0.66104,-0.17932c-0.16269,-0.06985 -0.27856,-0.16193 -0.34766,-0.28098c-0.06979,-0.11584 -0.10233,-0.24841 -0.10233,-0.3873l0,-42.69504c0,-0.84683 0.21823,-1.42935 0.65793,-1.7468c0.44125,-0.31824 0.87057,-0.4762 1.2872,-0.4762l9.13458,0c0.90387,0 1.78326,0.04291 2.64032,0.12463c0.85638,0.08252 1.8595,0.25793 3.00391,0.52615c1.14758,0.27063 2.31573,0.77695 3.51013,1.51819c1.19122,0.73807 2.20703,1.64438 3.04034,2.71338c0.83411,1.0722 1.47534,2.29355 1.93005,3.66891c0.45087,1.37534 0.67542,2.88638 0.67542,4.53076" id="svg_43"/>
    <path stroke="null" fill="#5A4A42" d="m539.72748,291.09308l-0.0365,0l-8.47662,24.53949l17.1969,0l-8.68378,-24.53949zm18.6532,39.55945c0.13885,0.35394 0.20477,0.64282 0.19208,0.86353c-0.01111,0.22537 -0.09283,0.39359 -0.24286,0.51263c-0.15076,0.11584 -0.38251,0.19208 -0.69446,0.22855c-0.31427,0.0365 -0.71417,0.0524 -1.20148,0.0524c-0.48566,0 -0.87292,-0.01663 -1.16107,-0.0524c-0.29126,-0.03647 -0.51581,-0.08966 -0.67773,-0.15872c-0.16272,-0.06982 -0.28412,-0.16589 -0.36432,-0.28174c-0.08252,-0.11826 -0.15784,-0.25708 -0.22772,-0.42218l-4.30774,-12.16537l-19.73175,0l-4.13232,12.09552c-0.05005,0.16193 -0.11829,0.30478 -0.20874,0.4198c-0.0921,0.11908 -0.22144,0.21826 -0.38336,0.30084c-0.16187,0.08252 -0.38647,0.14682 -0.67773,0.19516c-0.28809,0.04688 -0.65479,0.06989 -1.09204,0.06989c-0.48651,0 -0.89282,-0.02301 -1.21735,-0.06989c-0.32385,-0.04913 -0.56195,-0.13251 -0.71112,-0.24838c-0.1524,-0.11584 -0.23175,-0.28094 -0.24524,-0.4928c-0.01031,-0.21271 0.05237,-0.49289 0.19128,-0.84683l15.73822,-43.40057c0.06989,-0.18808 0.17224,-0.3476 0.3111,-0.47696c0.13965,-0.12933 0.31824,-0.22858 0.54047,-0.30078c0.21747,-0.06985 0.48486,-0.12222 0.79675,-0.15793c0.31427,-0.03412 0.66827,-0.05322 1.06189,-0.05322c0.41742,0 0.78094,0.0191 1.09204,0.05322c0.31506,0.03571 0.57849,0.08807 0.80078,0.15793c0.2182,0.0722 0.39355,0.17145 0.51978,0.30078c0.12854,0.12936 0.22778,0.28809 0.29761,0.47696l15.73505,43.40057z" id="svg_44"/>
    <path stroke="null" fill="#5A4A42" d="m588.84845,330.19623c0,0.30478 -0.02295,0.57614 -0.07056,0.81024c-0.04602,0.23495 -0.12146,0.43335 -0.22382,0.59924c-0.10632,0.16583 -0.22858,0.28723 -0.36743,0.37054c-0.13971,0.08258 -0.28809,0.12222 -0.45001,0.12222l-23.89984,0c-0.41583,0 -0.77692,-0.146 -1.0777,-0.44043c-0.30237,-0.29443 -0.44995,-0.78012 -0.44995,-1.46262l0,-0.77698c0,-0.21188 0.00946,-0.42297 0.03247,-0.63568c0.02307,-0.21185 0.07623,-0.43332 0.15564,-0.66821c0.08252,-0.23489 0.20868,-0.49997 0.38324,-0.79446c0.17224,-0.29364 0.41113,-0.638 0.71106,-1.03799l13.82642,-18.58096l-12.60901,-15.40735c-0.27856,-0.3309 -0.49994,-0.61902 -0.66107,-0.86343c-0.16187,-0.24841 -0.29126,-0.48965 -0.38092,-0.72458c-0.09601,-0.23492 -0.15869,-0.47693 -0.19122,-0.72141c-0.03735,-0.24841 -0.05237,-0.52222 -0.05237,-0.83011l0,-0.7746c0,-0.63565 0.13879,-1.11185 0.41583,-1.43008c0.2785,-0.31668 0.64838,-0.47617 1.11182,-0.47617l22.37061,0c0.1626,0 0.31421,0.04364 0.45306,0.12619c0.13892,0.08252 0.25476,0.20477 0.34766,0.36667c0.0921,0.16583 0.16187,0.37061 0.20868,0.61902c0.04602,0.24762 0.06903,0.53568 0.06903,0.86346c0,0.30392 -0.02301,0.57538 -0.06903,0.81027c-0.04681,0.23492 -0.11584,0.43015 -0.20868,0.58252c-0.0929,0.15158 -0.20953,0.27142 -0.34766,0.35318c-0.13885,0.08252 -0.29047,0.12219 -0.45306,0.12219l-18.75879,0l12.43677,15.16049c0.13885,0.16501 0.2547,0.32297 0.3476,0.47614c0.09204,0.15247 0.16821,0.31119 0.22382,0.47696c0.05951,0.1651 0.09918,0.3302 0.12219,0.49283c0.02301,0.1651 0.0365,0.34125 0.0365,0.52856c0,0.14365 -0.01349,0.29526 -0.0365,0.46036c-0.02301,0.1619 -0.06268,0.32065 -0.12219,0.47375c-0.0556,0.15475 -0.13177,0.3143 -0.22382,0.47699c-0.0929,0.16504 -0.20953,0.33011 -0.3476,0.49277l-14.03516,18.89767l20.67139,0c0.16193,0 0.3111,0.04364 0.44995,0.12537c0.13892,0.08334 0.26117,0.19919 0.36743,0.35077c0.10248,0.15475 0.17865,0.35318 0.22382,0.59918c0.04846,0.24847 0.07141,0.5365 0.07141,0.86746" id="svg_45"/>
    <path stroke="null" fill="#5A4A42" d="m626.12476,331.32474c0,0.16187 -0.02222,0.30475 -0.06989,0.4198c-0.04602,0.11908 -0.15149,0.21826 -0.31421,0.30157c-0.16193,0.08258 -0.38013,0.14523 -0.6579,0.19443c-0.27936,0.04688 -0.63971,0.07065 -1.07855,0.07065c-0.41669,0 -0.83728,-0.02377 -1.2674,-0.07065c-0.43018,-0.04999 -0.75793,-0.14914 -0.98883,-0.30072c-0.23175,-0.15164 -0.43018,-0.33496 -0.59283,-0.54602l-18.16675,-23.41019l0,23.41019c0,0.13968 -0.0365,0.27139 -0.10632,0.38647c-0.06982,0.11981 -0.18494,0.21268 -0.3476,0.28174c-0.16193,0.07224 -0.37701,0.12854 -0.64209,0.17853c-0.26819,0.04688 -0.60944,0.07065 -1.02533,0.07065c-0.39362,0 -0.72772,-0.02377 -1.00629,-0.07065c-0.27771,-0.04999 -0.5,-0.10629 -0.66187,-0.17853c-0.16193,-0.06985 -0.27783,-0.16193 -0.34766,-0.28174c-0.07062,-0.11588 -0.10315,-0.24759 -0.10315,-0.38647l0,-44.21326c0,-0.13968 0.03253,-0.26828 0.10315,-0.3873c0.06982,-0.11588 0.18494,-0.21188 0.34766,-0.28174c0.16187,-0.06903 0.38416,-0.12778 0.66187,-0.17538c0.27856,-0.04605 0.61188,-0.0722 1.00629,-0.0722c0.41589,0 0.75714,0.02615 1.02533,0.0722c0.26508,0.04761 0.47937,0.10635 0.64209,0.17538c0.16187,0.07065 0.27777,0.16586 0.3476,0.28174c0.06982,0.11902 0.10632,0.24841 0.10632,0.3873l0,20.73407l17.40247,-20.73407c0.13885,-0.16269 0.29132,-0.30557 0.45392,-0.42065c0.16193,-0.11902 0.34686,-0.21188 0.5556,-0.28409c0.20789,-0.06985 0.4491,-0.12222 0.72693,-0.15796c0.27856,-0.03329 0.62531,-0.05313 1.04199,-0.05313s0.75397,0.02615 1.00867,0.0722c0.25476,0.04761 0.45715,0.11029 0.61029,0.19202c0.14844,0.08255 0.24762,0.17859 0.29449,0.28491c0.04602,0.10559 0.06903,0.22781 0.06903,0.36746c0,0.26108 -0.06592,0.50552 -0.19208,0.74042c-0.12537,0.23495 -0.34045,0.51984 -0.64203,0.8468l-16.36285,19.0032l17.47552,22.24591c0.32379,0.42383 0.51904,0.71823 0.58807,0.88333c0.06982,0.16193 0.10632,0.30392 0.10632,0.42377" id="svg_46"/>
    <path stroke="null" fill="#5A4A42" d="m658.74561,330.19623c0,0.30478 -0.02222,0.57614 -0.06982,0.81024c-0.04602,0.23495 -0.12146,0.43335 -0.22473,0.59924c-0.10626,0.16583 -0.22766,0.28723 -0.36731,0.37054c-0.13892,0.08258 -0.28723,0.12222 -0.44922,0.12222l-21.05151,0c-0.41663,0 -0.84601,-0.15866 -1.28723,-0.47693c-0.43964,-0.31668 -0.65869,-0.89996 -0.65869,-1.74359l0,-41.18005c0,-0.84677 0.21906,-1.43008 0.65869,-1.74756c0.44122,-0.31662 0.87061,-0.47617 1.28723,-0.47617l20.73724,0c0.16193,0 0.31427,0.0437 0.45319,0.12622c0.13885,0.08252 0.2547,0.20474 0.34753,0.36664c0.09131,0.16586 0.16119,0.37061 0.20795,0.61902c0.04688,0.24762 0.06982,0.53571 0.06982,0.86346c0,0.30396 -0.02295,0.57538 -0.06982,0.81027s-0.11584,0.43015 -0.20795,0.58252c-0.09283,0.15158 -0.20947,0.27142 -0.34753,0.35318c-0.13892,0.08252 -0.29126,0.12219 -0.45319,0.12219l-18.44366,0l0,16.043l15.91046,0c0.18408,0 0.34753,0.04053 0.48572,0.12219c0.13959,0.08258 0.25476,0.19846 0.34753,0.35397c0.09283,0.15158 0.16272,0.35004 0.20874,0.59918c0.04681,0.24445 0.06897,0.5325 0.06897,0.86346c0,0.30392 -0.02216,0.569 -0.06897,0.79358c-0.04602,0.22229 -0.11591,0.40402 -0.20874,0.54605c-0.09204,0.13968 -0.20795,0.24597 -0.34753,0.31744c-0.13898,0.06985 -0.30164,0.10632 -0.48572,0.10632l-15.91046,0l0,18.18976l18.75873,0c0.16187,0 0.3111,0.04364 0.44922,0.12537c0.13965,0.08337 0.26111,0.19925 0.36743,0.35077c0.10315,0.15479 0.17938,0.35318 0.22461,0.59924c0.04681,0.24921 0.06903,0.53723 0.06903,0.86819" id="svg_47"/>
    <path stroke="null" fill="#5A4A42" d="m681.67407,314.1167l0,17.2771c0,0.13968 -0.03259,0.27139 -0.10327,0.38651c-0.06891,0.11984 -0.18402,0.21271 -0.34753,0.28171c-0.16187,0.07303 -0.38409,0.12854 -0.66187,0.17853c-0.27856,0.04688 -0.61188,0.07068 -1.00629,0.07068c-0.41577,0 -0.76111,-0.0238 -1.02533,-0.07068c-0.26819,-0.04999 -0.48578,-0.1055 -0.66193,-0.17853c-0.17218,-0.06985 -0.29443,-0.16187 -0.36426,-0.28171c-0.06897,-0.11584 -0.10236,-0.24762 -0.10236,-0.38651l0,-17.2771l-12.92242,-26.1965c-0.16583,-0.3508 -0.25732,-0.63489 -0.27863,-0.8468c-0.02625,-0.20871 0.02698,-0.37381 0.15546,-0.49203c0.12622,-0.11591 0.34131,-0.19843 0.64221,-0.24606c0.30066,-0.04602 0.6817,-0.0722 1.14832,-0.0722c0.50555,0 0.91974,0.01987 1.23083,0.05319c0.31427,0.03571 0.56897,0.08807 0.76434,0.15793c0.1983,0.073 0.34436,0.1651 0.43726,0.28412c0.08881,0.11588 0.18408,0.2579 0.27771,0.42062l6.87836,14.20892c0.64832,1.33963 1.29041,2.72687 1.92535,4.16177c0.63879,1.43323 1.28076,2.87839 1.9292,4.33392l0.06982,0c0.60236,-1.38644 1.21667,-2.78561 1.84283,-4.19431c0.62451,-1.40945 1.26025,-2.80859 1.90857,-4.19507l6.94739,-14.31525c0.06989,-0.16272 0.1524,-0.30554 0.24603,-0.42062c0.09125,-0.11902 0.21747,-0.21191 0.38013,-0.28412c0.16187,-0.06982 0.37695,-0.12222 0.64514,-0.15793c0.26587,-0.03333 0.59686,-0.05319 0.98969,-0.05319c0.55548,0 1.00641,0.02618 1.35315,0.0722c0.3476,0.04764 0.59204,0.13654 0.7309,0.26511c0.13971,0.12936 0.19519,0.29761 0.17297,0.51031c-0.02295,0.21188 -0.11578,0.48169 -0.27844,0.81027l-12.92334,26.19571z" id="svg_48"/>
    <path stroke="null" fill="#5A4A42" d="m733.71552,331.39301c0,0.13882 -0.03656,0.27139 -0.10626,0.38727c-0.06915,0.11829 -0.185,0.21188 -0.34778,0.28091c-0.16174,0.07385 -0.38,0.12936 -0.65784,0.17935c-0.27856,0.04688 -0.61499,0.06989 -1.00873,0.06989c-0.41736,0 -0.75787,-0.02301 -1.02289,-0.06989c-0.2674,-0.04999 -0.48175,-0.1055 -0.64447,-0.17935c-0.16266,-0.06903 -0.27924,-0.1619 -0.34753,-0.28091c-0.06982,-0.11588 -0.10242,-0.24844 -0.10242,-0.38727l0,-21.25949l-22.4411,0l0,21.25949c0,0.13882 -0.03735,0.27139 -0.10632,0.38727c-0.06982,0.11829 -0.185,0.21188 -0.34766,0.28091c-0.16187,0.07385 -0.37775,0.12936 -0.64209,0.17935c-0.26825,0.04688 -0.60944,0.06989 -1.02612,0.06989c-0.39362,0 -0.72778,-0.02301 -1.00549,-0.06989c-0.2785,-0.04999 -0.49921,-0.1055 -0.6618,-0.17935c-0.16199,-0.06903 -0.27856,-0.1619 -0.3476,-0.28091c-0.06989,-0.11588 -0.10327,-0.24844 -0.10327,-0.38727l0,-44.21408c0,-0.13889 0.03339,-0.26746 0.10327,-0.3873c0.06903,-0.11588 0.18481,-0.21188 0.3476,-0.28094c0.1626,-0.06982 0.3833,-0.12936 0.6618,-0.17538c0.27771,-0.04681 0.61188,-0.07379 1.00549,-0.07379c0.41669,0 0.75787,0.02698 1.02612,0.07379c0.26434,0.04602 0.47943,0.10556 0.64209,0.17538c0.16187,0.06906 0.27783,0.16507 0.34766,0.28094c0.06897,0.11984 0.10632,0.24841 0.10632,0.3873l0,19.10953l22.4411,0l0,-19.10953c0,-0.13889 0.03259,-0.26746 0.10242,-0.3873c0.06897,-0.11588 0.18488,-0.21188 0.34753,-0.28094c0.16193,-0.06982 0.37708,-0.12936 0.64447,-0.17538c0.26501,-0.04681 0.60553,-0.07379 1.02289,-0.07379c0.39374,0 0.73108,0.02698 1.00873,0.07379c0.27783,0.04602 0.49609,0.10556 0.65784,0.17538c0.16199,0.06906 0.27863,0.16507 0.34778,0.28094c0.0697,0.11984 0.10626,0.24841 0.10626,0.3873l0,44.21408z" id="svg_49"/>
    <path stroke="null" fill="#5A4A42" d="m769.14905,330.19623c0,0.30478 -0.02307,0.57614 -0.07062,0.81024c-0.04596,0.23495 -0.1214,0.43335 -0.22382,0.59924c-0.10632,0.16583 -0.22778,0.28723 -0.36823,0.37054c-0.13892,0.08258 -0.28656,0.12222 -0.44922,0.12222l-23.89972,0c-0.41589,0 -0.77704,-0.146 -1.07782,-0.44043c-0.30164,-0.29443 -0.44995,-0.78012 -0.44995,-1.46262l0,-0.77698c0,-0.21188 0.00952,-0.42297 0.03247,-0.63568c0.02393,-0.21185 0.07623,-0.43332 0.15564,-0.66821c0.08246,-0.23489 0.20874,-0.49997 0.38324,-0.79446c0.17218,-0.29364 0.41113,-0.638 0.71112,-1.03799l13.82648,-18.58096l-12.60913,-15.40735c-0.27844,-0.3309 -0.49988,-0.61902 -0.66095,-0.86343c-0.16193,-0.24841 -0.29132,-0.48965 -0.38104,-0.72458c-0.09589,-0.23492 -0.15869,-0.47693 -0.19122,-0.72141c-0.03723,-0.24841 -0.05237,-0.52222 -0.05237,-0.83011l0,-0.7746c0,-0.63565 0.13885,-1.11185 0.41577,-1.43008c0.27856,-0.31668 0.64844,-0.47617 1.11188,-0.47617l22.37061,0c0.16266,0 0.31421,0.04364 0.45313,0.12619c0.13971,0.08252 0.2547,0.20477 0.34766,0.36667c0.09283,0.16583 0.16107,0.37061 0.20862,0.61902c0.04608,0.24762 0.06915,0.53568 0.06915,0.86346c0,0.30392 -0.02307,0.57538 -0.06915,0.81027c-0.04755,0.23492 -0.11578,0.43015 -0.20862,0.58252c-0.09296,0.15158 -0.20874,0.27142 -0.34766,0.35318c-0.13892,0.08252 -0.29047,0.12219 -0.45313,0.12219l-18.75879,0l12.43677,15.16049c0.13892,0.16501 0.25482,0.32297 0.34766,0.47614c0.09137,0.15247 0.16821,0.31119 0.22461,0.47696c0.05872,0.1651 0.09912,0.3302 0.12134,0.49283c0.02386,0.1651 0.03656,0.34125 0.03656,0.52856c0,0.14365 -0.0127,0.29526 -0.03656,0.46036c-0.02222,0.1619 -0.06262,0.32065 -0.12134,0.47375c-0.0564,0.15475 -0.13324,0.3143 -0.22461,0.47699c-0.09283,0.16504 -0.20953,0.33011 -0.34766,0.49277l-14.03442,18.89767l20.67065,0c0.16266,0 0.3111,0.04364 0.44928,0.12537c0.14038,0.08334 0.26184,0.19919 0.36816,0.35077c0.10236,0.15475 0.17865,0.35318 0.22382,0.59918c0.04834,0.24847 0.07141,0.5365 0.07141,0.86746" id="svg_50"/>
   </g>
  </g>
 </g>
</svg>