<svg width="450" height="550" xmlns="http://www.w3.org/2000/svg">
 <g>
  <title>Layer 1</title>
  <g stroke="null" id="Page-1" fill="none" fill-rule="evenodd">
   <g stroke="#C2B59C" id="Group" fill="#C2B59C">
    <path stroke="null" d="m28.96484,27.25712l116.45717,0l-4.94968,195.30189l-54.65629,-3.39095l0,112.41724l50.20284,0l-5.026,191.10934l-102.02802,0.62982l0,-496.06734l-0.00002,0z" id="Path-1"/>
    <path stroke="null" d="m166.90343,26.99308l117.45439,-0.01749l-5.87054,198.10757l-111.78107,-3.25258l0.19722,-194.8375z" id="Path-2"/>
    <path stroke="null" d="m315.03879,27.11715l103.89526,0.7237l-0.13983,200.77802l-108.58423,-2.22832l4.8288,-199.2734z" id="Path-3"/>
    <path stroke="null" d="m166.88751,331.73157l107.48669,0l-4.27689,191.47998l-103.15413,0.83026l-0.05568,-192.31024z" id="Path-4"/>
    <path stroke="null" d="m306.64725,331.97498l112.80374,-0.79681l-0.40714,191.54669l-117.91568,0.17664l5.51907,-190.92651z" id="Path-5"/>
   </g>
  </g>
 </g>
</svg>