<svg width="320" height="400" xmlns="http://www.w3.org/2000/svg">
 <g>
  <title>Layer 1</title>
  <g stroke="null" id="Page-1" fill="none" fill-rule="evenodd">
   <g stroke="#C2B59C" id="Group" fill="#C2B59C">
    <path stroke="null" d="m23.96484,25.1706l80.66881,0l-3.4286,135.28382l-37.85991,-2.34888l0,77.87038l34.77505,0l-3.48146,132.3797l-70.67387,0.43625l0,-343.62127l-0.00002,0z" id="Path-1"/>
    <path stroke="null" d="m119.51363,24.9877l81.35958,-0.01212l-4.06648,137.22729l-77.42971,-2.25304l0.13661,-134.96214z" id="Path-2"/>
    <path stroke="null" d="m222.12564,25.07364l71.96729,0.5013l-0.09686,139.07708l-75.21529,-1.54353l3.34486,-138.03485z" id="Path-3"/>
    <path stroke="null" d="m119.5026,236.07724l74.45504,0l-2.96255,132.63641l-71.45391,0.57513l-0.03857,-133.21155z" id="Path-4"/>
    <path stroke="null" d="m216.31288,236.24585l78.13811,-0.55194l-0.28201,132.68262l-81.67911,0.12234l3.82301,-132.25302z" id="Path-5"/>
   </g>
  </g>
 </g>
</svg>