<svg width="980" height="450" xmlns="http://www.w3.org/2000/svg">
 <g>
  <title>Layer 1</title>
  <g stroke="null" id="Page-1" fill="none" fill-rule="evenodd">
   <g stroke="#C2B59C" id="Group" fill="#C2B59C">
    <path stroke="null" d="m31.96484,34.19315l89.99457,0l-3.82495,150.92337l-42.23672,-2.62042l0,86.87265l38.79523,0l-3.88394,147.6835l-78.84416,0.48669l0,-383.34579l-0.00002,0z" id="Path-1"/>
    <path stroke="null" d="m138.5596,33.98911l90.7652,-0.01352l-4.53659,153.09152l-86.38101,-2.51349l0.1524,-150.56451z" id="Path-2"/>
    <path stroke="null" d="m253.03409,34.08498l80.28714,0.55925l-0.10809,155.15518l-83.91058,-1.72198l3.73154,-153.99245z" id="Path-3"/>
    <path stroke="null" d="m138.5473,269.48178l83.06247,0l-3.30505,147.96988l-79.71439,0.64166l-0.04303,-148.61154z" id="Path-4"/>
    <path stroke="null" d="m246.54938,269.66986l87.17133,-0.61575l-0.31464,148.02145l-91.12164,0.13654l4.26495,-147.54224z" id="Path-5"/>
   </g>
  </g>
  <g stroke="null" id="svg_11">
   <path stroke="null" fill="#5A4A42" d="m411.99121,90.99559c0,0.37648 -0.02832,0.70894 -0.08508,0.9984c-0.05963,0.28944 -0.15161,0.53683 -0.27972,0.74025c-0.12903,0.20143 -0.27771,0.35495 -0.44879,0.4547c-0.17114,0.1017 -0.35791,0.15256 -0.5564,0.15256l-25.94073,0c-0.51337,0 -1.04144,-0.19559 -1.58411,-0.58673c-0.54175,-0.39114 -0.81262,-1.10695 -0.81262,-2.15033l0,-50.7403c0,-1.04239 0.27087,-1.75917 0.81262,-2.15129c0.5426,-0.39116 1.07074,-0.58476 1.58411,-0.58476l25.55542,0c0.19855,0 0.38531,0.05083 0.5564,0.15059c0.1712,0.10268 0.31201,0.25523 0.42834,0.45667c0.11249,0.20436 0.19751,0.45665 0.2572,0.76077c0.0567,0.30313 0.08502,0.65811 0.08502,1.0639c0,0.37746 -0.02832,0.70897 -0.08502,0.9984c-0.05969,0.29141 -0.14471,0.53003 -0.2572,0.71777c-0.11633,0.18971 -0.25714,0.33443 -0.42834,0.43417c-0.17108,0.10168 -0.35785,0.15253 -0.5564,0.15253l-22.73041,0l0,19.76556l19.6062,0c0.22583,0 0.42828,0.05084 0.59937,0.15253c0.17114,0.1017 0.31201,0.24643 0.42834,0.43417c0.11145,0.18971 0.19757,0.43417 0.25623,0.7383c0.05573,0.30508 0.08606,0.66005 0.08606,1.06586c0,0.37453 -0.0304,0.70113 -0.08606,0.97592c-0.05865,0.27574 -0.14478,0.49968 -0.25623,0.67276c-0.11633,0.17503 -0.2572,0.30606 -0.42834,0.39113c-0.17108,0.08803 -0.37354,0.13104 -0.59937,0.13104l-19.6062,0l0,22.4165l23.11572,0c0.19849,0 0.38525,0.05086 0.5564,0.15062c0.17108,0.10268 0.31976,0.24741 0.44879,0.43709c0.12811,0.18678 0.22009,0.43416 0.27972,0.73732c0.05579,0.30411 0.08508,0.6581 0.08508,1.0639" id="svg_12"/>
   <path stroke="null" fill="#5A4A42" d="m463.38177,91.56081c0.17114,0.43416 0.24841,0.78815 0.23468,1.0639c-0.01471,0.27675 -0.12024,0.48503 -0.3197,0.62976c-0.2005,0.14471 -0.50757,0.24054 -0.92218,0.28357c-0.41364,0.04205 -0.93286,0.06453 -1.56067,0.06453s-1.11279,-0.02248 -1.45508,-0.06453c-0.34222,-0.04303 -0.60724,-0.10854 -0.79401,-0.19557c-0.18579,-0.088 -0.30609,-0.20241 -0.36279,-0.34909c-0.05963,-0.14278 -0.12805,-0.31781 -0.21411,-0.51924l-17.38055,-49.56885l-0.04303,0l-16.90723,49.56885c-0.05676,0.20143 -0.12811,0.37646 -0.21417,0.51924c-0.08502,0.14668 -0.22778,0.26109 -0.42828,0.34909c-0.19946,0.08704 -0.47034,0.15254 -0.81262,0.19557c-0.34229,0.04205 -0.81354,0.06453 -1.41302,0.06453c-0.62781,0 -1.14111,-0.02835 -1.5401,-0.08702c-0.3999,-0.05771 -0.69916,-0.15157 -0.89966,-0.28163c-0.19952,-0.13007 -0.29919,-0.31779 -0.29919,-0.56424c0,-0.24741 0.08508,-0.61604 0.25616,-1.10887l19.21893,-53.47833c0.08606,-0.23079 0.21411,-0.42635 0.38531,-0.58478c0.17108,-0.15938 0.39404,-0.28357 0.66492,-0.36865c0.27087,-0.088 0.59943,-0.15352 0.98468,-0.19653c0.38531,-0.04401 0.81946,-0.06454 1.3045,-0.06454c0.34222,0 0.65613,0.00586 0.94165,0.02054c0.28558,0.01564 0.54175,0.04401 0.77057,0.08702c0.22778,0.04303 0.42731,0.09389 0.59845,0.15352c0.17108,0.05672 0.32855,0.13007 0.47131,0.21613c0.14276,0.08702 0.25623,0.19458 0.34229,0.32561c0.08508,0.13007 0.15643,0.26892 0.21417,0.4117l19.17877,53.47833z" id="svg_13"/>
   <path stroke="null" fill="#5A4A42" d="m512.56042,91.56081c0.17212,0.43416 0.25323,0.78815 0.23663,1.0639c-0.0127,0.27675 -0.12219,0.48503 -0.32269,0.62976c-0.19946,0.14471 -0.50458,0.24054 -0.91626,0.28357c-0.41656,0.04205 -0.93774,0.06453 -1.56653,0.06453c-0.62775,0 -1.11279,-0.02248 -1.45502,-0.06453c-0.34326,-0.04303 -0.60339,-0.10854 -0.79114,-0.19557c-0.18677,-0.088 -0.30603,-0.20241 -0.36273,-0.34909c-0.05774,-0.14278 -0.1311,-0.31781 -0.21613,-0.51924l-17.3786,-49.56885l-0.04205,0l-16.9082,49.56885c-0.0567,0.20143 -0.12811,0.37646 -0.21417,0.51924c-0.08502,0.14668 -0.22778,0.26109 -0.42828,0.34909c-0.19946,0.08704 -0.4704,0.15254 -0.81262,0.19557c-0.3432,0.04205 -0.8136,0.06453 -1.41296,0.06453c-0.62787,0 -1.14117,-0.02835 -1.54114,-0.08702c-0.39899,-0.05771 -0.69922,-0.15157 -0.89868,-0.28163c-0.19952,-0.13007 -0.29926,-0.31779 -0.29926,-0.56424c0,-0.24741 0.08514,-0.61604 0.25623,-1.10887l19.21893,-53.47833c0.08606,-0.23079 0.21411,-0.42635 0.38525,-0.58478c0.17212,-0.15938 0.3941,-0.28357 0.66492,-0.36865c0.27094,-0.088 0.59949,-0.15352 0.98474,-0.19653c0.38525,-0.04401 0.81946,-0.06454 1.30444,-0.06454c0.34326,0 0.65717,0.00586 0.94171,0.02054c0.28546,0.01564 0.54266,0.04401 0.77051,0.08702c0.22882,0.04303 0.42828,0.09389 0.59943,0.15352c0.17114,0.05672 0.32861,0.13007 0.4704,0.21613c0.14276,0.08702 0.2572,0.19458 0.3432,0.32561c0.086,0.13007 0.15643,0.26892 0.21417,0.4117l19.17584,53.47833l0.00006,0z" id="svg_14"/>
   <path stroke="null" fill="#5A4A42" d="m560.80621,92.47314c0,0.17308 -0.04498,0.33247 -0.13007,0.47719c-0.08606,0.14473 -0.22784,0.26109 -0.42828,0.34811c-0.19952,0.08606 -0.46942,0.15842 -0.81165,0.21613c-0.3432,0.05963 -0.75787,0.088 -1.24286,0.088c-0.51239,0 -0.93384,-0.02837 -1.25952,-0.088c-0.33051,-0.05771 -0.59448,-0.13007 -0.79498,-0.21613c-0.20044,-0.08702 -0.3432,-0.20338 -0.42828,-0.34811s-0.12616,-0.30411 -0.12616,-0.47719l0,-26.19595l-27.65002,0l0,26.19595c0,0.17308 -0.04498,0.33247 -0.13196,0.47719c-0.08514,0.14473 -0.22693,0.26109 -0.42834,0.34811c-0.19952,0.08606 -0.46448,0.15842 -0.7901,0.21613c-0.33148,0.05963 -0.75104,0.088 -1.26434,0.088c-0.48511,0 -0.89777,-0.02837 -1.23999,-0.088c-0.34229,-0.05771 -0.61505,-0.13007 -0.81555,-0.21613c-0.19946,-0.08702 -0.34222,-0.20338 -0.42731,-0.34811c-0.08704,-0.14471 -0.12708,-0.30411 -0.12708,-0.47719l0,-54.47672c0,-0.17308 0.04004,-0.33246 0.12708,-0.47917c0.08508,-0.1447 0.22687,-0.25813 0.42731,-0.34615c0.2005,-0.08801 0.47327,-0.15939 0.81555,-0.21806c0.34222,-0.05769 0.75397,-0.08604 1.23999,-0.08604c0.51331,0 0.93286,0.02835 1.26434,0.08604c0.32562,0.05867 0.59058,0.13005 0.7901,0.21806c0.20044,0.08801 0.3432,0.20145 0.42834,0.34615c0.08698,0.14671 0.13196,0.30608 0.13196,0.47917l0,23.54593l27.65002,0l0,-23.54593c0,-0.17308 0.0401,-0.33246 0.12616,-0.47917c0.08606,-0.1447 0.22784,-0.25813 0.42828,-0.34615c0.19946,-0.08801 0.46448,-0.15939 0.79498,-0.21806c0.32568,-0.05769 0.74713,-0.08604 1.25952,-0.08604c0.48499,0 0.90063,0.02835 1.24286,0.08604c0.34222,0.05867 0.61212,0.13005 0.81165,0.21806c0.19946,0.08801 0.34222,0.20145 0.42828,0.34615c0.08508,0.14671 0.13007,0.30608 0.13007,0.47917l0,54.47672z" id="svg_15"/>
   <path stroke="null" fill="#5A4A42" d="m616.74976,90.7795c0,0.52022 -0.07721,0.95439 -0.23273,1.30251c-0.15845,0.34714 -0.35791,0.62975 -0.59845,0.84781c-0.24445,0.21609 -0.51337,0.36963 -0.81555,0.45471c-0.29724,0.088 -0.57892,0.13103 -0.83508,0.13103l-1.06879,0c-0.57104,0 -1.09131,-0.07237 -1.56165,-0.21611c-0.47235,-0.14471 -0.92896,-0.39799 -1.37,-0.76077c-0.44293,-0.36279 -0.883,-0.84779 -1.32697,-1.45505c-0.44489,-0.60922 -0.93384,-1.39052 -1.47656,-2.3459l-19.51813,-35.10135c-0.97009,-1.7103 -1.94885,-3.46945 -2.93457,-5.27948c-0.98376,-1.80907 -1.9176,-3.56822 -2.8006,-5.27655l-0.04596,0c0.02832,2.11316 0.04596,4.27814 0.04596,6.49399l0,6.49399l0,36.40483c0,0.17407 -0.04596,0.33249 -0.13104,0.47722c-0.08606,0.1447 -0.22888,0.26109 -0.42834,0.34908c-0.19946,0.0851 -0.46442,0.15842 -0.79108,0.21611c-0.32953,0.05869 -0.75098,0.08702 -1.26343,0.08702c-0.48499,0 -0.89667,-0.02834 -1.23993,-0.08702c-0.34222,-0.05769 -0.61505,-0.13101 -0.81549,-0.21611c-0.19946,-0.088 -0.34222,-0.20438 -0.42737,-0.34908c-0.086,-0.14471 -0.12714,-0.30315 -0.12714,-0.47722l0,-52.60899c0,-1.04143 0.26801,-1.75919 0.81165,-2.15131c0.54175,-0.39113 1.07178,-0.58475 1.58417,-0.58475l2.14056,0c0.68549,0 1.25555,0.05768 1.71222,0.17308c0.45667,0.11635 0.86835,0.31194 1.23895,0.58769c0.37256,0.27477 0.73438,0.66594 1.09326,1.17149c0.35394,0.50847 0.75006,1.1519 1.17731,1.93225l14.93689,26.89122c0.94171,1.68193 1.83441,3.29539 2.67834,4.84531c0.83899,1.54893 1.65845,3.06949 2.45837,4.56171c0.79791,1.49126 1.58899,2.96097 2.37616,4.40822c0.78717,1.44919 1.56171,2.91109 2.33221,4.38864l0.04401,0c-0.02734,-2.4339 -0.04401,-4.96754 -0.04401,-7.60286l0,-7.60291l0,-32.71242c0,-0.1731 0.04401,-0.3315 0.1311,-0.47623c0.086,-0.14473 0.22681,-0.26892 0.42828,-0.37158c0.19946,-0.09976 0.46545,-0.17308 0.7901,-0.21613c0.33148,-0.04205 0.75195,-0.06451 1.2644,-0.06451c0.45758,0 0.85754,0.02246 1.19983,0.06451c0.34222,0.04305 0.61115,0.11636 0.81061,0.21613c0.19946,0.10268 0.3501,0.22685 0.45276,0.37158c0.09778,0.14471 0.14667,0.30313 0.14667,0.47623l0,52.60997l-0.00098,0z" id="svg_16"/>
   <path stroke="null" fill="#5A4A42" d="m638.15509,92.47314c0,0.17308 -0.04498,0.33247 -0.13,0.47719c-0.08606,0.14473 -0.22882,0.26109 -0.42828,0.34811c-0.19855,0.08606 -0.46454,0.15842 -0.79114,0.21613c-0.32953,0.05963 -0.75,0.088 -1.26337,0.088c-0.48511,0 -0.89673,-0.02837 -1.23901,-0.088c-0.34418,-0.05771 -0.61597,-0.13007 -0.81549,-0.21613c-0.19946,-0.08702 -0.34326,-0.20338 -0.42834,-0.34811c-0.08502,-0.14471 -0.12616,-0.30411 -0.12616,-0.47719l0,-54.47672c0,-0.17308 0.04895,-0.33246 0.14673,-0.47917c0.10168,-0.1447 0.25623,-0.25813 0.47235,-0.34615c0.21112,-0.08801 0.48499,-0.15939 0.81061,-0.21806c0.33051,-0.05769 0.72162,-0.08604 1.17834,-0.08604c0.51337,0 0.93384,0.02835 1.26337,0.08604c0.3266,0.05867 0.59161,0.13005 0.79108,0.21806c0.19952,0.08801 0.34326,0.20145 0.42834,0.34615c0.08502,0.14671 0.13007,0.30608 0.13007,0.47917l0,54.47672l0.00092,0z" id="svg_17"/>
   <path stroke="null" fill="#5A4A42" d="m688.06427,92.38612c0,0.2034 -0.0274,0.3765 -0.08508,0.52219c-0.05774,0.14473 -0.18774,0.26695 -0.38721,0.36865s-0.46844,0.18091 -0.81073,0.23859c-0.34418,0.05869 -0.78717,0.08704 -1.32892,0.08704c-0.51331,0 -1.03162,-0.02835 -1.56158,-0.08704c-0.53003,-0.05768 -0.9339,-0.17992 -1.21844,-0.36961c-0.28558,-0.18678 -0.53003,-0.41168 -0.73047,-0.67276l-22.38422,-28.84598l0,28.84598c0,0.17308 -0.04498,0.33148 -0.13007,0.4772c-0.08704,0.14374 -0.22882,0.2601 -0.42834,0.3481c-0.19946,0.08607 -0.46448,0.15842 -0.79102,0.21613c-0.33057,0.05867 -0.75104,0.08704 -1.26343,0.08704c-0.48505,0 -0.89673,-0.02837 -1.23993,-0.08704c-0.34229,-0.05771 -0.61603,-0.13005 -0.81555,-0.21613c-0.19946,-0.088 -0.34229,-0.20436 -0.42834,-0.3481c-0.08606,-0.14571 -0.1261,-0.30412 -0.1261,-0.4772l0,-54.47675c0,-0.17404 0.04004,-0.33246 0.1261,-0.47914c0.08606,-0.14473 0.22791,-0.25912 0.42834,-0.34714c0.19952,-0.08704 0.47327,-0.15842 0.81555,-0.21808c0.3432,-0.05672 0.75391,-0.08508 1.23993,-0.08508c0.51239,0 0.93286,0.02837 1.26343,0.08508c0.32654,0.05965 0.59058,0.13103 0.79102,0.21808c0.19952,0.08801 0.34229,0.20241 0.42834,0.34714c0.08508,0.14668 0.13007,0.3051 0.13007,0.47914l0,25.54373l21.44257,-25.54373c0.17108,-0.20241 0.35889,-0.37744 0.55933,-0.52217c0.19946,-0.14471 0.42731,-0.26111 0.68353,-0.34616c0.25812,-0.08801 0.55444,-0.15353 0.89771,-0.19655c0.34222,-0.04401 0.76953,-0.06454 1.28394,-0.06454s0.92993,0.02837 1.24286,0.08508c0.31287,0.05965 0.56226,0.13885 0.75098,0.24055c0.18286,0.1017 0.30511,0.21609 0.36273,0.34616c0.0567,0.13103 0.08514,0.28357 0.08514,0.45763c0,0.31783 -0.08118,0.62291 -0.23663,0.9104c-0.15454,0.2914 -0.41956,0.63853 -0.79016,1.04436l-20.16254,23.41492l21.53058,27.41341c0.39996,0.52022 0.6405,0.88301 0.72559,1.08443c0.08606,0.20438 0.13104,0.37746 0.13104,0.52219" id="svg_18"/>
   <path stroke="null" fill="#5A4A42" d="m736.64838,92.47314c0,0.17308 -0.04596,0.33247 -0.13098,0.47719c-0.08606,0.14473 -0.22791,0.26109 -0.42834,0.34811c-0.19946,0.08606 -0.46936,0.15842 -0.81158,0.21613c-0.34229,0.05963 -0.75787,0.088 -1.24286,0.088c-0.51245,0 -0.9339,-0.02837 -1.25861,-0.088c-0.33148,-0.05771 -0.59552,-0.13007 -0.79498,-0.21613c-0.20044,-0.08702 -0.34222,-0.20338 -0.42828,-0.34811c-0.08606,-0.14471 -0.12616,-0.30411 -0.12616,-0.47719l0,-26.19595l-27.65002,0l0,26.19595c0,0.17308 -0.04498,0.33247 -0.13104,0.47719s-0.22784,0.26109 -0.42828,0.34811c-0.2005,0.08606 -0.46545,0.15842 -0.79108,0.21613c-0.33057,0.05963 -0.75104,0.088 -1.26343,0.088c-0.48499,0 -0.89771,-0.02837 -1.24091,-0.088c-0.34229,-0.05771 -0.61505,-0.13007 -0.81451,-0.21613c-0.2005,-0.08702 -0.34326,-0.20338 -0.42834,-0.34811c-0.08606,-0.14471 -0.12616,-0.30411 -0.12616,-0.47719l0,-54.47672c0,-0.17308 0.0401,-0.33246 0.12616,-0.47917c0.08508,-0.1447 0.22687,-0.25813 0.42834,-0.34615c0.19946,-0.08801 0.47223,-0.15939 0.81451,-0.21806c0.3432,-0.05769 0.75488,-0.08604 1.24091,-0.08604c0.51239,0 0.93286,0.02835 1.26343,0.08604c0.32562,0.05867 0.59058,0.13005 0.79108,0.21806c0.19946,0.08801 0.34222,0.20145 0.42828,0.34615c0.08606,0.14671 0.13104,0.30608 0.13104,0.47917l0,23.54593l27.65002,0l0,-23.54593c0,-0.17308 0.0401,-0.33246 0.12616,-0.47917c0.08704,-0.1447 0.22784,-0.25813 0.42828,-0.34615c0.19946,-0.08801 0.46454,-0.15939 0.79498,-0.21806c0.32471,-0.05769 0.74615,-0.08604 1.25861,-0.08604c0.48499,0 0.90155,0.02835 1.24286,0.08604c0.34222,0.05867 0.61212,0.13005 0.81158,0.21806c0.19952,0.08801 0.34229,0.20145 0.42834,0.34615c0.08502,0.14671 0.13098,0.30608 0.13098,0.47917l0,54.47672z" id="svg_19"/>
   <path stroke="null" fill="#5A4A42" d="m411.99121,197.76059c0,0.3765 -0.02832,0.70895 -0.08508,0.99841c-0.05963,0.28946 -0.15161,0.53586 -0.27972,0.74023c-0.12903,0.20145 -0.27771,0.354 -0.44879,0.45471c-0.17114,0.10172 -0.35791,0.15259 -0.5564,0.15259l-25.94073,0c-0.51337,0 -1.04144,-0.19559 -1.58411,-0.58676c-0.54175,-0.39212 -0.81262,-1.10696 -0.81262,-2.15033l0,-50.7403c0,-1.04239 0.27087,-1.75916 0.81262,-2.15128c0.5426,-0.39117 1.07074,-0.58481 1.58411,-0.58481l25.55542,0c0.19855,0 0.38531,0.05087 0.5564,0.15063c0.1712,0.10165 0.31201,0.25519 0.42834,0.45663c0.11249,0.20438 0.19751,0.45667 0.2572,0.7608c0.0567,0.30313 0.08502,0.65808 0.08502,1.06387c0,0.3765 -0.02832,0.70895 -0.08502,0.99841c-0.05969,0.29141 -0.14471,0.53003 -0.2572,0.71774c-0.11633,0.18872 -0.25714,0.33444 -0.42834,0.43417c-0.17108,0.10172 -0.35785,0.15256 -0.5564,0.15256l-22.73041,0l0,19.7655l19.6062,0c0.22583,0 0.42828,0.05087 0.59937,0.15256c0.17114,0.10172 0.31201,0.24643 0.42834,0.43417c0.11145,0.18973 0.19757,0.43417 0.25623,0.73831c0.05573,0.30508 0.08606,0.66003 0.08606,1.06586c0,0.37451 -0.0304,0.70114 -0.08606,0.97589c-0.05865,0.27576 -0.14478,0.49973 -0.25623,0.67282c-0.11633,0.17502 -0.2572,0.30505 -0.42834,0.39111c-0.17108,0.08801 -0.37354,0.13101 -0.59937,0.13101l-19.6062,0l0,22.41653l23.11572,0c0.19849,0 0.38525,0.05087 0.5564,0.1506c0.17108,0.10266 0.31976,0.2464 0.44879,0.4361c0.12811,0.18777 0.22009,0.43417 0.27972,0.73828c0.05579,0.30316 0.08508,0.65811 0.08508,1.06393" id="svg_20"/>
   <path stroke="null" fill="#5A4A42" d="m440.24164,177.95102l0,21.28806c0,0.1731 -0.04303,0.33151 -0.12811,0.47623c-0.08606,0.14474 -0.22882,0.26108 -0.42828,0.34912c-0.19952,0.08505 -0.47137,0.15842 -0.8136,0.21609c-0.34222,0.05865 -0.75592,0.08704 -1.24091,0.08704c-0.51337,0 -0.93384,-0.02838 -1.26147,-0.08704c-0.32855,-0.05768 -0.59937,-0.13104 -0.81354,-0.21609c-0.21417,-0.08804 -0.36475,-0.20438 -0.45081,-0.34912c-0.08508,-0.14471 -0.12805,-0.30313 -0.12805,-0.47623l0,-21.28806l-15.92352,-32.27826c-0.19952,-0.43417 -0.3139,-0.78033 -0.34229,-1.04141c-0.02832,-0.26111 0.03522,-0.46252 0.1936,-0.60727c0.15552,-0.14468 0.42047,-0.24738 0.79114,-0.30606c0.37158,-0.05673 0.84192,-0.08508 1.41296,-0.08508c0.62781,0 1.13531,0.02054 1.52063,0.06458c0.38428,0.04303 0.69617,0.10852 0.94061,0.19653c0.24158,0.08508 0.42053,0.20142 0.53497,0.34616c0.1134,0.14474 0.22778,0.31976 0.34222,0.52118l8.47516,17.50668c0.79889,1.65161 1.59198,3.36188 2.37616,5.12692c0.78522,1.767 1.57635,3.54871 2.37524,5.34406l0.08508,0c0.74225,-1.7103 1.49805,-3.43231 2.26862,-5.17096c0.77063,-1.73669 1.55579,-3.45871 2.35474,-5.16898l8.56213,-17.63773c0.08606,-0.20142 0.18384,-0.37643 0.30023,-0.52118c0.11151,-0.14474 0.26886,-0.26108 0.47034,-0.34616c0.19751,-0.08801 0.46252,-0.15347 0.79108,-0.19653c0.32758,-0.04401 0.7334,-0.06458 1.22137,-0.06458c0.68451,0 1.24182,0.02835 1.66919,0.08511c0.42828,0.05869 0.72754,0.16721 0.89868,0.32657c0.17108,0.15842 0.24054,0.36868 0.21411,0.62976c-0.0293,0.26108 -0.14471,0.59454 -0.34326,0.99838l-15.92444,32.27826z" id="svg_21"/>
   <path stroke="null" fill="#5A4A42" d="m476.74426,149.58423l-0.04303,0l-10.44452,30.2355l21.19025,0l-10.7027,-30.2355zm22.98755,48.7406c0.17212,0.43417 0.24835,0.78912 0.23669,1.0639c-0.01666,0.27771 -0.11444,0.48502 -0.30219,0.62973c-0.18384,0.14572 -0.46844,0.24057 -0.85565,0.2836c-0.38428,0.04303 -0.87714,0.06549 -1.47656,0.06549s-1.0766,-0.02246 -1.43549,-0.06549c-0.35687,-0.04303 -0.63464,-0.10757 -0.83508,-0.19559c-0.2005,-0.08801 -0.34717,-0.20242 -0.44891,-0.34909c-0.10065,-0.14178 -0.19165,-0.31781 -0.27667,-0.51926l-5.30786,-14.9877l-24.31458,0l-5.09363,14.89969c-0.05774,0.20441 -0.14276,0.37747 -0.2572,0.52219c-0.11444,0.14474 -0.27087,0.26697 -0.47131,0.36868c-0.19946,0.10263 -0.47821,0.18188 -0.83313,0.23859c-0.35889,0.05865 -0.80676,0.08798 -1.34949,0.08798c-0.59943,0 -1.09808,-0.02933 -1.49805,-0.08798c-0.39899,-0.0567 -0.69336,-0.15842 -0.87616,-0.30414c-0.18774,-0.14374 -0.28748,-0.34616 -0.29926,-0.60724c-0.01666,-0.26111 0.06262,-0.60919 0.2337,-1.04337l19.39001,-53.47833c0.08514,-0.2298 0.21417,-0.42636 0.38525,-0.58475s0.3941,-0.2836 0.66504,-0.36868c0.27081,-0.08798 0.59937,-0.15253 0.9837,-0.19556c0.38525,-0.04498 0.81946,-0.06552 1.30444,-0.06552c0.51434,0 0.96417,0.02054 1.34949,0.06552c0.38525,0.04303 0.71381,0.10757 0.98468,0.19556c0.27087,0.08508 0.48499,0.21024 0.64246,0.36868c0.15643,0.15839 0.27673,0.35495 0.36273,0.58475l19.39301,53.47833z" id="svg_22"/>
   <path stroke="null" fill="#5A4A42" d="m537.57025,146.23895c0,0.40582 -0.02838,0.75784 -0.08508,1.06393c-0.05865,0.30313 -0.14276,0.55054 -0.25714,0.7373c-0.11444,0.1897 -0.25824,0.33441 -0.42841,0.43417c-0.17108,0.10266 -0.37054,0.1535 -0.59937,0.1535l-21.18536,0l0,50.61026c0,0.1731 -0.04504,0.33246 -0.1311,0.4772c-0.08502,0.14471 -0.22778,0.2601 -0.42731,0.34811c-0.20044,0.08606 -0.46545,0.15939 -0.79205,0.21613c-0.33051,0.05865 -0.75,0.08798 -1.26343,0.08798c-0.48499,0 -0.89667,-0.02933 -1.23993,-0.08798c-0.3432,-0.05673 -0.61505,-0.13007 -0.81458,-0.21613c-0.20038,-0.08801 -0.34418,-0.2034 -0.42828,-0.34811c-0.08606,-0.14474 -0.1261,-0.30411 -0.1261,-0.4772l0,-52.60999c0,-1.04141 0.26886,-1.75919 0.81061,-2.1503c0.54272,-0.39114 1.07269,-0.58478 1.58612,-0.58478l24.01044,0c0.22876,0 0.42828,0.05087 0.59943,0.1506c0.17108,0.10168 0.31384,0.2464 0.42828,0.43417c0.11346,0.1897 0.19849,0.43417 0.2572,0.74023c0.05768,0.30313 0.08606,0.64438 0.08606,1.02087" id="svg_23"/>
   <path stroke="null" fill="#5A4A42" d="m574.29681,146.23895c0,0.40582 -0.02936,0.75784 -0.08698,1.06393c-0.05676,0.30313 -0.14282,0.55054 -0.2572,0.7373c-0.11346,0.1897 -0.25623,0.33441 -0.42737,0.43417c-0.17212,0.10266 -0.37158,0.1535 -0.59937,0.1535l-21.1864,0l0,50.61026c0,0.1731 -0.04401,0.33246 -0.13007,0.4772c-0.08508,0.14471 -0.22784,0.2601 -0.42828,0.34811c-0.20044,0.08606 -0.46545,0.15939 -0.79108,0.21613c-0.33057,0.05865 -0.75104,0.08798 -1.26343,0.08798c-0.48505,0 -0.89771,-0.02933 -1.24097,-0.08798c-0.34222,-0.05673 -0.61499,-0.13007 -0.81549,-0.21613c-0.19849,-0.08801 -0.34222,-0.2034 -0.42828,-0.34811c-0.08508,-0.14474 -0.12518,-0.30411 -0.12518,-0.4772l0,-52.60999c0,-1.04141 0.26697,-1.75919 0.81067,-2.1503c0.54175,-0.39114 1.07172,-0.58478 1.58606,-0.58478l24.01044,0c0.22784,0 0.42834,0.05087 0.59943,0.1506c0.1712,0.10168 0.31293,0.2464 0.42737,0.43417c0.11438,0.1897 0.20044,0.43417 0.25714,0.74023c0.05963,0.30313 0.08899,0.64438 0.08899,1.02087" id="svg_24"/>
   <path stroke="null" fill="#5A4A42" d="m612.94971,197.76059c0,0.3765 -0.02832,0.70895 -0.08606,0.99841s-0.15057,0.53586 -0.27667,0.74023c-0.13013,0.20145 -0.28168,0.354 -0.45276,0.45471c-0.17114,0.10172 -0.354,0.15259 -0.55444,0.15259l-25.93781,0c-0.51337,0 -1.0434,-0.19559 -1.58514,-0.58676c-0.54364,-0.39212 -0.81158,-1.10696 -0.81158,-2.15033l0,-50.7403c0,-1.04239 0.26794,-1.75916 0.81158,-2.15128c0.54175,-0.39117 1.07178,-0.58481 1.58514,-0.58481l25.55157,0c0.20044,0 0.38721,0.05087 0.55737,0.15063c0.17206,0.10165 0.3139,0.25519 0.42828,0.45663c0.11444,0.20438 0.19946,0.45667 0.2572,0.7608c0.05768,0.30313 0.08502,0.65808 0.08502,1.06387c0,0.3765 -0.02734,0.70895 -0.08502,0.99841c-0.05774,0.29141 -0.14276,0.53003 -0.2572,0.71774c-0.11438,0.18872 -0.25714,0.33444 -0.42828,0.43417c-0.17108,0.10172 -0.35693,0.15256 -0.55737,0.15256l-22.72656,0l0,19.7655l19.60425,0c0.22882,0 0.42828,0.05087 0.59943,0.15256s0.31293,0.24643 0.42828,0.43417c0.11346,0.18973 0.19952,0.43417 0.25714,0.73831c0.05774,0.30508 0.08606,0.66003 0.08606,1.06586c0,0.37451 -0.02832,0.70114 -0.08606,0.97589c-0.05762,0.27576 -0.14276,0.49973 -0.25714,0.67282c-0.11444,0.17502 -0.2572,0.30505 -0.42828,0.39111c-0.17114,0.08801 -0.37061,0.13101 -0.59943,0.13101l-19.60425,0l0,22.41653l23.11377,0c0.2005,0 0.38434,0.05087 0.5545,0.1506c0.17108,0.10266 0.32263,0.2464 0.4527,0.4361c0.12616,0.18777 0.22003,0.43417 0.27673,0.73828c0.0567,0.30316 0.08502,0.65811 0.08502,1.06393" id="svg_25"/>
   <path stroke="null" fill="#5A4A42" d="m664.34326,198.32483c0.17108,0.43417 0.24841,0.78912 0.23663,1.0639c-0.01758,0.27771 -0.12219,0.48502 -0.32269,0.62973c-0.19946,0.14572 -0.50653,0.24057 -0.92108,0.2836c-0.41174,0.04303 -0.9339,0.06549 -1.56171,0.06549c-0.62878,0 -1.11377,-0.02246 -1.45508,-0.06549s-0.60724,-0.10757 -0.79108,-0.19559c-0.18677,-0.08801 -0.30902,-0.20242 -0.3667,-0.34909c-0.05768,-0.14178 -0.1261,-0.31781 -0.21216,-0.51926l-17.37762,-49.56882l-0.04498,0l-16.90527,49.56882c-0.06165,0.20145 -0.13104,0.37747 -0.21613,0.51926c-0.08606,0.14667 -0.22882,0.26108 -0.42828,0.34909c-0.19952,0.08801 -0.46838,0.15256 -0.81067,0.19559c-0.34222,0.04303 -0.81555,0.06549 -1.41492,0.06549c-0.62781,0 -1.1402,-0.02933 -1.54016,-0.08798c-0.39899,-0.0567 -0.70215,-0.1506 -0.89667,-0.28165c-0.20447,-0.13004 -0.30219,-0.31781 -0.30219,-0.56421s0.08502,-0.61508 0.25714,-1.10889l19.21985,-53.47833c0.08606,-0.2298 0.21228,-0.42636 0.38434,-0.58475c0.17114,-0.15845 0.3902,-0.2836 0.66498,-0.36868c0.26886,-0.08798 0.59845,-0.15253 0.98175,-0.19556c0.38721,-0.04498 0.82336,-0.06552 1.30841,-0.06552c0.3432,0 0.65613,0.00589 0.94165,0.02054c0.28558,0.01663 0.5437,0.04498 0.77155,0.08801c0.22784,0.04202 0.42828,0.0929 0.59845,0.15253c0.17114,0.05673 0.32568,0.13007 0.46844,0.21613c0.14276,0.08704 0.25714,0.19556 0.34314,0.32562c0.08514,0.13101 0.15851,0.26892 0.21613,0.41168l19.17493,53.47836l0,-0.00003z" id="svg_26"/>
   <path stroke="null" fill="#5A4A42" d="m679.71136,199.23813c0,0.1731 -0.04504,0.33246 -0.13104,0.4772c-0.08508,0.14471 -0.22693,0.2601 -0.42731,0.34811c-0.19952,0.08508 -0.46552,0.15939 -0.79205,0.21613c-0.33057,0.05865 -0.75006,0.08798 -1.26343,0.08798c-0.48505,0 -0.89673,-0.02933 -1.23993,-0.08798c-0.34326,-0.05673 -0.61511,-0.13104 -0.81458,-0.21613c-0.20044,-0.08801 -0.34418,-0.2034 -0.42828,-0.34811c-0.08606,-0.14474 -0.12616,-0.30411 -0.12616,-0.4772l0,-54.47672c0,-0.17307 0.04889,-0.33246 0.14673,-0.47916c0.10168,-0.14471 0.2561,-0.25912 0.47223,-0.34714c0.21222,-0.08704 0.48505,-0.15842 0.81067,-0.2171c0.33051,-0.05768 0.72168,-0.08603 1.17834,-0.08603c0.51337,0 0.93292,0.02835 1.26337,0.08603c0.32666,0.05869 0.59167,0.13007 0.79205,0.2171c0.19952,0.08801 0.34229,0.20242 0.42737,0.34714c0.08606,0.1467 0.13104,0.30609 0.13104,0.47916l0,54.47672l0.00098,0z" id="svg_27"/>
   <path stroke="null" fill="#5A4A42" d="m729.62048,199.15012c0,0.20343 -0.02838,0.37747 -0.08508,0.52219c-0.05865,0.14374 -0.18774,0.26599 -0.38721,0.36868c-0.2005,0.10168 -0.46838,0.18088 -0.81165,0.23859c-0.34229,0.05865 -0.78619,0.08704 -1.32794,0.08704c-0.51337,0 -1.03259,-0.02838 -1.56165,-0.08704c-0.53094,-0.05771 -0.93286,-0.17993 -1.21838,-0.36963c-0.28558,-0.1868 -0.53009,-0.41074 -0.73047,-0.67181l-22.38525,-28.84595l0,28.84595c0,0.1731 -0.04401,0.33246 -0.13007,0.47623c-0.08508,0.14471 -0.22687,0.26108 -0.42737,0.34909c-0.20038,0.08508 -0.46643,0.15842 -0.79205,0.21613c-0.33044,0.05865 -0.75,0.08704 -1.26434,0.08704c-0.48505,0 -0.89667,-0.02838 -1.23895,-0.08704c-0.34326,-0.05771 -0.61609,-0.13104 -0.81555,-0.21613c-0.19946,-0.08801 -0.3432,-0.20438 -0.42828,-0.34909c-0.08508,-0.14377 -0.12616,-0.30313 -0.12616,-0.47623l0,-54.47769c0,-0.1731 0.04108,-0.33148 0.12616,-0.47815c0.08606,-0.14474 0.22882,-0.25916 0.42828,-0.34717c0.19946,-0.08701 0.47229,-0.15936 0.81555,-0.21805c0.34229,-0.0567 0.75391,-0.08508 1.23895,-0.08508c0.51434,0 0.9339,0.02835 1.26434,0.08508c0.32562,0.05869 0.59064,0.13104 0.79205,0.21805c0.19952,0.08801 0.34229,0.20242 0.42737,0.34717c0.08606,0.14667 0.13007,0.30505 0.13007,0.47815l0,25.54373l21.44452,-25.54373c0.17114,-0.20145 0.35693,-0.37646 0.55737,-0.52118c0.19952,-0.14474 0.42828,-0.26111 0.68451,-0.34619c0.2572,-0.08798 0.55444,-0.15353 0.89667,-0.19653c0.34424,-0.04401 0.77063,-0.06454 1.28497,-0.06454c0.51239,0 0.92798,0.02835 1.24286,0.08508c0.31384,0.05869 0.56226,0.13885 0.75098,0.24057c0.18384,0.10168 0.30609,0.21606 0.36182,0.34711c0.05768,0.13007 0.08606,0.28259 0.08606,0.45569c0,0.31882 -0.08118,0.62387 -0.23566,0.91138c-0.15552,0.29141 -0.42145,0.63855 -0.79211,1.04337l-20.16254,23.41589l21.53351,27.41241c0.39899,0.52023 0.63959,0.88303 0.72559,1.08447c0.08411,0.20435 0.12909,0.37744 0.12909,0.52216" id="svg_28"/>
   <path stroke="null" fill="#5A4A42" d="m778.20557,199.23813c0,0.1731 -0.04596,0.33246 -0.13098,0.4772c-0.08606,0.14471 -0.22791,0.2601 -0.42841,0.34811c-0.19946,0.08508 -0.4693,0.15939 -0.81152,0.21613c-0.34326,0.05865 -0.75787,0.08798 -1.24286,0.08798c-0.51245,0 -0.93292,-0.02933 -1.25952,-0.08798c-0.33057,-0.05673 -0.59454,-0.13104 -0.79498,-0.21613c-0.19952,-0.08801 -0.34229,-0.2034 -0.42834,-0.34811c-0.08508,-0.14474 -0.12616,-0.30411 -0.12616,-0.4772l0,-26.19595l-27.65002,0l0,26.19595c0,0.1731 -0.04498,0.33246 -0.13202,0.4772c-0.08508,0.14471 -0.22687,0.2601 -0.42828,0.34811c-0.19946,0.08508 -0.46448,0.15939 -0.7901,0.21613c-0.33148,0.05865 -0.75104,0.08798 -1.2644,0.08798c-0.48499,0 -0.89673,-0.02933 -1.23993,-0.08798c-0.34222,-0.05673 -0.61505,-0.13104 -0.81451,-0.21613c-0.2005,-0.08801 -0.34326,-0.2034 -0.42834,-0.34811c-0.086,-0.14474 -0.12714,-0.30411 -0.12714,-0.4772l0,-54.47672c0,-0.17307 0.04114,-0.33246 0.12714,-0.47916c0.08508,-0.14471 0.22687,-0.25912 0.42834,-0.34714c0.19946,-0.08704 0.47229,-0.15842 0.81451,-0.2171c0.3432,-0.05768 0.75391,-0.08603 1.23993,-0.08603c0.51337,0 0.93292,0.02835 1.2644,0.08603c0.32562,0.05869 0.59064,0.13007 0.7901,0.2171c0.20044,0.08801 0.3432,0.20242 0.42828,0.34714c0.08704,0.1467 0.13202,0.30609 0.13202,0.47916l0,23.54593l27.65002,0l0,-23.54593c0,-0.17307 0.04108,-0.33246 0.12616,-0.47916c0.08704,-0.14471 0.22882,-0.25912 0.42834,-0.34714c0.19946,-0.08704 0.46442,-0.15842 0.79498,-0.2171c0.3266,-0.05768 0.74707,-0.08603 1.25952,-0.08603c0.48499,0 0.90051,0.02835 1.24286,0.08603c0.34222,0.05869 0.61206,0.13007 0.81152,0.2171c0.19952,0.08801 0.34235,0.20242 0.42841,0.34714c0.08502,0.1467 0.13098,0.30609 0.13098,0.47916l0,54.47672z" id="svg_29"/>
   <path stroke="null" fill="#5A4A42" d="m411.99121,304.52655c0,0.37646 -0.02832,0.71088 -0.08508,0.99936c-0.05963,0.28848 -0.15161,0.53391 -0.27972,0.7373c-0.12903,0.20441 -0.27771,0.35498 -0.44879,0.4567c-0.17114,0.10168 -0.35791,0.15057 -0.5564,0.15057l-25.94073,0c-0.51337,0 -1.04144,-0.19559 -1.58411,-0.58771c-0.54175,-0.39017 -0.81262,-1.10892 -0.81262,-2.14737l0,-50.74033c0,-1.04434 0.27087,-1.76309 0.81262,-2.15424c0.5426,-0.39014 1.07074,-0.58673 1.58411,-0.58673l25.55542,0c0.19855,0 0.38531,0.05383 0.5564,0.15552s0.31201,0.25229 0.42834,0.45175c0.11249,0.20438 0.19751,0.45667 0.2572,0.76273c0.0567,0.30511 0.08502,0.6601 0.08502,1.06393c0,0.37451 -0.02832,0.70993 -0.08502,0.99838c-0.05969,0.29044 -0.14471,0.53098 -0.2572,0.71777c-0.11633,0.18674 -0.25714,0.33441 -0.42834,0.43518c-0.17108,0.10165 -0.35785,0.15054 -0.5564,0.15054l-22.73041,0l0,19.76752l19.6062,0c0.22583,0 0.42828,0.04984 0.59937,0.1506c0.17114,0.10165 0.31201,0.24445 0.42834,0.4361c0.11145,0.18777 0.19757,0.43222 0.25623,0.73828c0.05573,0.30215 0.08606,0.65616 0.08606,1.0639c0,0.37451 -0.0304,0.70114 -0.08606,0.97787c-0.05865,0.2728 -0.14478,0.49872 -0.25623,0.67279c-0.11633,0.17209 -0.2572,0.30313 -0.42834,0.39114c-0.17108,0.08603 -0.37354,0.13199 -0.59937,0.13199l-19.6062,0l0,22.4126l23.11572,0c0.19849,0 0.38525,0.0528 0.5564,0.15353c0.17108,0.10266 0.31976,0.24542 0.44879,0.43222c0.12811,0.19168 0.22009,0.43613 0.27972,0.73828c0.05579,0.30804 0.08508,0.66202 0.08508,1.06979" id="svg_30"/>
   <path stroke="null" fill="#5A4A42" d="m458.8631,305.91705c0,0.19949 -0.02832,0.37552 -0.08606,0.51828c-0.05865,0.14572 -0.18677,0.26794 -0.38525,0.37061c-0.19946,0.10168 -0.4704,0.17896 -0.81262,0.24054c-0.34229,0.05673 -0.78717,0.08606 -1.32697,0.08606c-0.51337,0 -1.03552,-0.02933 -1.5636,-0.08606c-0.52704,-0.06158 -0.93579,-0.18381 -1.21844,-0.37061c-0.28748,-0.18774 -0.52997,-0.41266 -0.72845,-0.67374l-22.38818,-28.845l0,28.845c0,0.17209 -0.04205,0.33444 -0.12811,0.4772c-0.08502,0.14667 -0.22784,0.26108 -0.42828,0.34616c-0.19946,0.09094 -0.46448,0.15842 -0.7901,0.22098c-0.32855,0.05673 -0.75006,0.08606 -1.2644,0.08606c-0.48492,0 -0.89862,-0.02933 -1.24084,-0.08606c-0.34235,-0.06158 -0.61407,-0.13004 -0.8136,-0.22098c-0.19952,-0.08606 -0.34229,-0.19949 -0.42828,-0.34616c-0.08508,-0.14276 -0.12811,-0.30609 -0.12811,-0.4772l0,-54.47769c0,-0.17111 0.04303,-0.33054 0.12811,-0.4772c0.086,-0.14276 0.22876,-0.26108 0.42828,-0.34616c0.19952,-0.08508 0.47125,-0.15842 0.8136,-0.21707c0.34229,-0.05673 0.75592,-0.08801 1.24084,-0.08801c0.51434,0 0.93585,0.03128 1.2644,0.08801c0.32562,0.05865 0.59064,0.13199 0.7901,0.21707c0.20044,0.08606 0.34326,0.20438 0.42828,0.34616c0.08606,0.14667 0.12811,0.30609 0.12811,0.4772l0,25.54764l21.44647,-25.54764c0.17212,-0.20047 0.35498,-0.37552 0.55737,-0.51727c0.19757,-0.14673 0.42828,-0.26208 0.68451,-0.3501c0.2572,-0.08704 0.55646,-0.15155 0.89868,-0.19656c0.34326,-0.04007 0.77057,-0.06357 1.28394,-0.06357c0.51434,0 0.92603,0.03131 1.24188,0.08804c0.3139,0.05865 0.56226,0.13589 0.74811,0.2366c0.18475,0.10172 0.30603,0.22101 0.36469,0.35107c0.0567,0.13007 0.08508,0.28162 0.08508,0.45276c0,0.32169 -0.07922,0.62289 -0.23566,0.91333c-0.15741,0.29041 -0.42242,0.6395 -0.79108,1.04239l-20.1626,23.41589l21.53253,27.41046c0.39899,0.52118 0.64148,0.88397 0.7276,1.08737c0.08502,0.20047 0.12805,0.37454 0.12805,0.52219" id="svg_31"/>
   <path stroke="null" fill="#5A4A42" d="m503.0791,305.91705c0,0.19949 -0.02838,0.37552 -0.08508,0.51828c-0.05865,0.14572 -0.18774,0.26794 -0.38824,0.37061c-0.19946,0.10168 -0.46838,0.17896 -0.81061,0.24054c-0.34229,0.05673 -0.78717,0.08606 -1.32794,0.08606c-0.51337,0 -1.03259,-0.02933 -1.56262,-0.08606c-0.52997,-0.06158 -0.93292,-0.18381 -1.21741,-0.37061c-0.28656,-0.18774 -0.53101,-0.41266 -0.73047,-0.67374l-22.38721,-28.845l0,28.845c0,0.17209 -0.04205,0.33444 -0.12811,0.4772c-0.08508,0.14667 -0.22784,0.26108 -0.42828,0.34616c-0.19946,0.09094 -0.46448,0.15842 -0.7901,0.22098c-0.32855,0.05673 -0.75006,0.08606 -1.2644,0.08606c-0.48499,0 -0.89868,-0.02933 -1.24091,-0.08606c-0.34222,-0.06158 -0.61407,-0.13004 -0.8136,-0.22098c-0.19946,-0.08606 -0.34222,-0.19949 -0.42828,-0.34616c-0.08508,-0.14276 -0.12811,-0.30609 -0.12811,-0.4772l0,-54.47769c0,-0.17111 0.04303,-0.33054 0.12811,-0.4772c0.08606,-0.14276 0.22882,-0.26108 0.42828,-0.34616c0.19952,-0.08508 0.47137,-0.15842 0.8136,-0.21707c0.34222,-0.05673 0.75592,-0.08801 1.24091,-0.08801c0.51434,0 0.93585,0.03128 1.2644,0.08801c0.32562,0.05865 0.59064,0.13199 0.7901,0.21707c0.20044,0.08606 0.3432,0.20438 0.42828,0.34616c0.08606,0.14667 0.12811,0.30609 0.12811,0.4772l0,25.54764l21.44452,-25.54764c0.17206,-0.20047 0.35889,-0.37552 0.55835,-0.51727c0.2005,-0.14673 0.42828,-0.26208 0.68549,-0.3501c0.2572,-0.08704 0.55444,-0.15155 0.89667,-0.19656c0.34326,-0.04007 0.77063,-0.06357 1.28394,-0.06357c0.51434,0 0.92999,0.03131 1.2439,0.08804c0.31384,0.05865 0.56226,0.13589 0.75,0.2366c0.18384,0.10172 0.30609,0.22101 0.36279,0.35107c0.05768,0.13007 0.08502,0.28162 0.08502,0.45276c0,0.32169 -0.08112,0.62289 -0.23462,0.91333c-0.15552,0.29041 -0.42145,0.6395 -0.79211,1.04239l-20.16254,23.41589l21.53253,27.41046c0.39899,0.52118 0.63953,0.88397 0.72559,1.08737c0.08502,0.20047 0.13007,0.37454 0.13007,0.52219" id="svg_32"/>
   <path stroke="null" fill="#5A4A42" d="m552.60486,305.08881c0.17114,0.43616 0.24841,0.79208 0.23663,1.06491c-0.01758,0.27673 -0.12219,0.48502 -0.32269,0.63168c-0.19946,0.14279 -0.50549,0.23663 -0.92114,0.28165c-0.41168,0.04498 -0.93384,0.06549 -1.56165,0.06549c-0.62878,0 -1.11377,-0.02051 -1.45502,-0.06549s-0.6073,-0.1105 -0.7901,-0.19559c-0.18781,-0.08606 -0.31,-0.20435 -0.36774,-0.34616c-0.05768,-0.14667 -0.12714,-0.31778 -0.21216,-0.52121l-17.37762,-49.56589l-0.04498,0l-16.90527,49.56589c-0.06165,0.20343 -0.13104,0.37454 -0.21606,0.52121c-0.0871,0.14276 -0.22888,0.26108 -0.42841,0.34616c-0.19946,0.08508 -0.46832,0.15057 -0.81061,0.19559c-0.34326,0.04498 -0.81549,0.06549 -1.41498,0.06549c-0.62775,0 -1.14117,-0.02933 -1.5401,-0.08603c-0.39899,-0.06161 -0.70209,-0.15549 -0.89667,-0.28555c-0.20441,-0.13104 -0.30219,-0.31778 -0.30219,-0.56226s0.08502,-0.61508 0.25623,-1.10989l19.22083,-53.47537c0.08606,-0.23276 0.21222,-0.42828 0.38428,-0.58865c0.1712,-0.15845 0.3902,-0.28067 0.66492,-0.37064c0.26898,-0.08606 0.59845,-0.1506 0.98181,-0.19458c0.38727,-0.04205 0.82336,-0.06555 1.30841,-0.06555c0.34222,0 0.65613,0.00882 0.94171,0.0235c0.28552,0.01273 0.54364,0.04205 0.77148,0.08603c0.22784,0.04501 0.42834,0.0939 0.59845,0.1506c0.17114,0.06161 0.3266,0.13007 0.46838,0.22101c0.14282,0.08505 0.25818,0.19556 0.34424,0.32562c0.08508,0.12613 0.15936,0.26498 0.21613,0.41266l19.17389,53.47537z" id="svg_33"/>
   <path stroke="null" fill="#5A4A42" d="m600.8468,306.00311c0,0.17111 -0.04596,0.33444 -0.13104,0.47623c-0.08606,0.14667 -0.22784,0.26208 -0.42834,0.34616c-0.19946,0.08997 -0.46936,0.15939 -0.81158,0.22003c-0.34326,0.05865 -0.75787,0.08603 -1.24286,0.08603c-0.51245,0 -0.93292,-0.02737 -1.25952,-0.08603c-0.33051,-0.06064 -0.59448,-0.13007 -0.79498,-0.22003c-0.2005,-0.08508 -0.34229,-0.19949 -0.42828,-0.34616c-0.08606,-0.14276 -0.12616,-0.30606 -0.12616,-0.47623l0,-26.19693l-27.65009,0l0,26.19693c0,0.17111 -0.04498,0.33444 -0.13202,0.47623c-0.08502,0.14667 -0.22681,0.26208 -0.42828,0.34616c-0.19946,0.08997 -0.46442,0.15939 -0.7901,0.22003c-0.33154,0.05865 -0.75098,0.08603 -1.2644,0.08603c-0.48499,0 -0.89667,-0.02737 -1.23993,-0.08603c-0.34222,-0.06064 -0.61505,-0.13007 -0.81549,-0.22003c-0.19946,-0.08508 -0.34222,-0.19949 -0.42737,-0.34616c-0.08606,-0.14276 -0.12714,-0.30606 -0.12714,-0.47623l0,-54.47867c0,-0.17209 0.04108,-0.33051 0.12714,-0.4772c0.08514,-0.14276 0.22687,-0.26205 0.42737,-0.34613c0.20044,-0.08609 0.47327,-0.15942 0.81549,-0.21613c0.34326,-0.05673 0.75397,-0.08997 1.23993,-0.08997c0.51343,0 0.93286,0.03323 1.2644,0.08997c0.32568,0.0567 0.59064,0.13004 0.7901,0.21613c0.2005,0.08505 0.34326,0.20337 0.42828,0.34613c0.08704,0.1467 0.13202,0.30609 0.13202,0.4772l0,23.54498l27.65009,0l0,-23.54498c0,-0.17209 0.0401,-0.33051 0.12616,-0.4772c0.08704,-0.14276 0.22778,-0.26205 0.42828,-0.34613c0.19946,-0.08609 0.46448,-0.15942 0.79498,-0.21613c0.3266,-0.05673 0.74707,-0.08997 1.25952,-0.08997c0.48499,0 0.90057,0.03323 1.24286,0.08997c0.34222,0.0567 0.61212,0.13004 0.81158,0.21613c0.19952,0.08505 0.34229,0.20337 0.42834,0.34613c0.08508,0.1467 0.13104,0.30609 0.13104,0.4772l0,54.47867z" id="svg_34"/>
   <path stroke="null" fill="#5A4A42" d="m644.50635,304.52655c0,0.37646 -0.0274,0.71088 -0.08508,0.99936c-0.05768,0.28848 -0.15057,0.53391 -0.27771,0.7373c-0.13104,0.20441 -0.28162,0.35498 -0.45276,0.4567c-0.17108,0.10168 -0.354,0.15057 -0.55353,0.15057l-29.4483,0c-0.51434,0 -0.95825,-0.17993 -1.32892,-0.54175c-0.37152,-0.36276 -0.55347,-0.96222 -0.55347,-1.80319l0,-0.95734c0,-0.26108 0.01178,-0.52118 0.04016,-0.78226c0.02734,-0.26208 0.09387,-0.53391 0.19067,-0.82434c0.10266,-0.28946 0.25812,-0.61606 0.47327,-0.97885c0.21124,-0.36276 0.50555,-0.78619 0.87616,-1.27905l17.03729,-22.89468l-15.53723,-18.98422c-0.34229,-0.40775 -0.61511,-0.76273 -0.81458,-1.0639c-0.2005,-0.30609 -0.35889,-0.60333 -0.46838,-0.89279c-0.11835,-0.28946 -0.19562,-0.5867 -0.23663,-0.88791c-0.04504,-0.30606 -0.06458,-0.6434 -0.06458,-1.0238l0,-0.95441c0,-0.78229 0.17212,-1.37 0.51337,-1.76212c0.34229,-0.39017 0.79895,-0.5867 1.37,-0.5867l27.56396,0c0.2005,0 0.38721,0.05377 0.55841,0.15549s0.3139,0.25232 0.42828,0.45181c0.11444,0.20432 0.19946,0.45663 0.25812,0.76273c0.05676,0.30508 0.08514,0.66003 0.08514,1.0639c0,0.37451 -0.02838,0.7099 -0.08514,0.99838c-0.05865,0.29044 -0.14276,0.53098 -0.25812,0.71777c-0.11346,0.18677 -0.25714,0.33441 -0.42828,0.43515c-0.1712,0.10168 -0.35791,0.15057 -0.55841,0.15057l-23.11371,0l15.32404,18.68011c0.1712,0.2034 0.31396,0.39798 0.42737,0.5867c0.11438,0.18774 0.20923,0.38333 0.27771,0.58771c0.07336,0.20438 0.12225,0.4068 0.15057,0.60724c0.02844,0.20438 0.04498,0.4205 0.04498,0.65128c0,0.177 -0.01654,0.36472 -0.04498,0.56714c-0.02832,0.20047 -0.07721,0.39508 -0.15057,0.5838c-0.06848,0.19165 -0.16333,0.38724 -0.27771,0.58768c-0.11243,0.2034 -0.25616,0.4068 -0.42737,0.60727l-17.29443,23.28586l25.47131,0c0.19952,0 0.38336,0.05276 0.55353,0.1535c0.17114,0.10269 0.32172,0.24545 0.45276,0.43222c0.12714,0.19165 0.22095,0.43613 0.27771,0.73828c0.05774,0.30707 0.08508,0.66104 0.08508,1.06882" id="svg_35"/>
   <path stroke="null" fill="#5A4A42" d="m661.92889,306.00311c0,0.17111 -0.04498,0.33444 -0.13,0.47623c-0.08606,0.14667 -0.22882,0.26208 -0.42828,0.34616c-0.19952,0.08997 -0.46552,0.15939 -0.79211,0.22003c-0.32953,0.05865 -0.75,0.08603 -1.26337,0.08603c-0.48505,0 -0.89673,-0.02737 -1.23901,-0.08603c-0.34418,-0.06064 -0.61603,-0.13007 -0.81549,-0.22003c-0.2005,-0.08508 -0.34326,-0.19949 -0.42828,-0.34616c-0.08606,-0.14276 -0.12616,-0.30606 -0.12616,-0.47623l0,-54.47867c0,-0.17209 0.04889,-0.33051 0.14667,-0.4772c0.10175,-0.14276 0.25616,-0.26205 0.47229,-0.34613c0.21124,-0.08609 0.48505,-0.15942 0.81061,-0.21613c0.33057,-0.05673 0.72174,-0.08997 1.17834,-0.08997c0.51343,0 0.9339,0.03323 1.26343,0.08997c0.32666,0.0567 0.59161,0.13004 0.79205,0.21613c0.19849,0.08505 0.34229,0.20337 0.42834,0.34613c0.08502,0.1467 0.13007,0.30609 0.13007,0.4772l0,54.47867l0.00092,0z" id="svg_36"/>
   <path stroke="null" fill="#5A4A42" d="m694.46045,256.34531l-0.04498,0l-10.4436,30.23645l21.18933,0l-10.70074,-30.23645zm22.9837,48.7435c0.17114,0.43616 0.25232,0.79208 0.23663,1.06491c-0.0127,0.27673 -0.11438,0.48502 -0.29822,0.63168c-0.18677,0.14279 -0.47235,0.23663 -0.85565,0.28165c-0.38721,0.04498 -0.88104,0.06549 -1.48145,0.06549c-0.59753,0 -1.07562,-0.02051 -1.42963,-0.06549c-0.35986,-0.04501 -0.63562,-0.1105 -0.83508,-0.19559c-0.2005,-0.08606 -0.35107,-0.20435 -0.44885,-0.34616c-0.10168,-0.14667 -0.19556,-0.31778 -0.2807,-0.52121l-5.3078,-14.98965l-24.31262,0l-5.09167,14.90359c-0.06165,0.2005 -0.14673,0.37552 -0.2572,0.51828c-0.11346,0.14572 -0.27289,0.26794 -0.47235,0.37061c-0.20044,0.10172 -0.47717,0.17993 -0.83508,0.24054c-0.35492,0.05673 -0.80676,0.08609 -1.34656,0.08609c-0.59845,0 -1.1001,-0.02936 -1.49902,-0.08609c-0.39899,-0.06158 -0.69232,-0.16327 -0.87616,-0.30603c-0.18677,-0.14279 -0.28552,-0.34619 -0.30121,-0.60727c-0.01367,-0.26108 0.0636,-0.60727 0.23572,-1.04337l19.39099,-53.4754c0.08704,-0.23273 0.21313,-0.42831 0.38434,-0.58868c0.17108,-0.15839 0.39111,-0.28064 0.66492,-0.37061c0.26886,-0.08603 0.59845,-0.15057 0.98175,-0.19461c0.38721,-0.04202 0.82532,-0.06549 1.30933,-0.06549c0.51343,0 0.9613,0.02347 1.3446,0.06549c0.38824,0.04404 0.71387,0.10858 0.98761,0.19461c0.26794,0.08997 0.48505,0.21222 0.63953,0.37061c0.15845,0.16037 0.2807,0.35498 0.3667,0.58868l19.38715,53.47342z" id="svg_37"/>
   <path stroke="null" fill="#5A4A42" d="m398.63361,363.10638l-0.04205,0l-10.44458,30.23651l21.19031,0l-10.70367,-30.23651zm22.98761,48.74347c0.17206,0.4361 0.24835,0.79205 0.23468,1.06396c-0.01471,0.27771 -0.11444,0.48499 -0.30023,0.63165c-0.18481,0.14276 -0.47034,0.23669 -0.85559,0.28162s-0.87622,0.06458 -1.47565,0.06458c-0.59943,0 -1.07855,-0.02051 -1.43451,-0.06458c-0.35693,-0.04492 -0.6366,-0.11047 -0.83411,-0.19556c-0.19946,-0.08606 -0.3501,-0.20441 -0.44983,-0.34717c-0.10071,-0.14569 -0.19165,-0.31677 -0.27771,-0.5202l-5.30786,-14.98962l-24.31451,0l-5.09369,14.90356c-0.0567,0.19952 -0.14276,0.37555 -0.2572,0.51727c-0.1134,0.14673 -0.27081,0.26892 -0.47034,0.37067c-0.19946,0.10168 -0.47913,0.18091 -0.83411,0.24048c-0.35791,0.05774 -0.80676,0.08612 -1.34845,0.08612c-0.59943,0 -1.09918,-0.02838 -1.49811,-0.08612c-0.3999,-0.06055 -0.69336,-0.16327 -0.87714,-0.30603c-0.18774,-0.14276 -0.28748,-0.34619 -0.29926,-0.60724c-0.0166,-0.26208 0.06256,-0.6073 0.23474,-1.0434l19.38904,-53.47635c0.08606,-0.23175 0.21411,-0.42831 0.38525,-0.58768c0.17114,-0.15939 0.39404,-0.28165 0.66492,-0.37064c0.27087,-0.08606 0.59949,-0.1506 0.98474,-0.19458c0.38531,-0.04205 0.81946,-0.06558 1.30444,-0.06558c0.51343,0 0.96423,0.02353 1.34949,0.06558c0.38525,0.04398 0.71283,0.10852 0.9837,0.19458c0.27191,0.08899 0.48499,0.21124 0.64246,0.37064c0.15649,0.15936 0.27667,0.35495 0.36279,0.58768l19.39197,53.47635l0.00006,0z" id="svg_38"/>
   <path stroke="null" fill="#5A4A42" d="m459.46252,359.76404c0,0.40289 -0.03033,0.75784 -0.08508,1.06393c-0.05969,0.30115 -0.14575,0.55051 -0.25714,0.7373c-0.11639,0.18774 -0.2572,0.33441 -0.42834,0.4371c-0.17114,0.10168 -0.37256,0.15057 -0.59943,0.15057l-21.18933,0l0,50.61023c0,0.17114 -0.04303,0.33441 -0.12909,0.47626c-0.08502,0.14667 -0.22778,0.26111 -0.42725,0.34613c-0.2005,0.08997 -0.46454,0.15845 -0.79114,0.22003c-0.32855,0.05768 -0.75006,0.08606 -1.26337,0.08606c-0.48602,0 -0.89966,-0.02838 -1.24194,-0.08606c-0.34229,-0.06158 -0.6131,-0.13007 -0.8136,-0.22003c-0.1994,-0.08606 -0.34222,-0.19946 -0.42725,-0.34613c-0.08612,-0.14276 -0.12909,-0.30609 -0.12909,-0.47626l0,-52.608c0,-1.04337 0.27179,-1.76212 0.81354,-2.15225c0.54175,-0.39114 1.06976,-0.58774 1.58417,-0.58774l24.01434,0c0.22687,0 0.42828,0.05383 0.59943,0.15454c0.17114,0.10168 0.31195,0.24448 0.42834,0.43219c0.11139,0.1868 0.19745,0.43515 0.25714,0.7373c0.05475,0.30707 0.08508,0.64932 0.08508,1.02481" id="svg_39"/>
   <path stroke="null" fill="#5A4A42" d="m474.69855,409.72205c0,1.70837 -0.27081,2.83588 -0.81354,3.38831c-0.54175,0.54956 -1.51178,0.82727 -2.9101,0.82727c-1.34167,0 -2.27454,-0.26886 -2.80261,-0.80774c-0.52997,-0.53387 -0.79303,-1.64276 -0.79303,-3.3208c0,-1.70831 0.27087,-2.83771 0.81262,-3.38824c0.54272,-0.55054 1.51276,-0.82434 2.91107,-0.82434c1.3407,0 2.27448,0.26495 2.8045,0.8028c0.52808,0.53491 0.79108,1.64374 0.79108,3.32275" id="svg_40"/>
   <path stroke="null" fill="#5A4A42" d="m547.77032,412.76221c0,0.17108 -0.04498,0.33441 -0.13098,0.47717c-0.08514,0.14575 -0.22791,0.26111 -0.42834,0.34613c-0.20044,0.091 -0.46844,0.15942 -0.81158,0.22101c-0.34229,0.05774 -0.7569,0.08612 -1.24286,0.08612c-0.51434,0 -0.9339,-0.02838 -1.2605,-0.08612c-0.32953,-0.06158 -0.59454,-0.13 -0.79504,-0.22101c-0.20038,-0.08502 -0.34222,-0.19946 -0.42828,-0.34613c-0.08606,-0.14276 -0.1261,-0.30609 -0.1261,-0.47717l0,-50.61026l-27.65106,0l0,50.61026c0,0.17108 -0.04596,0.33441 -0.13098,0.47717c-0.08612,0.14575 -0.22888,0.26111 -0.42834,0.34613c-0.19952,0.091 -0.46448,0.15942 -0.79108,0.22101c-0.32953,0.05774 -0.75006,0.08612 -1.26343,0.08612c-0.48505,0 -0.89667,-0.02838 -1.23993,-0.08612c-0.34222,-0.06158 -0.61511,-0.13 -0.81549,-0.22101c-0.19855,-0.08502 -0.34229,-0.19946 -0.42737,-0.34613c-0.08606,-0.14276 -0.12714,-0.30609 -0.12714,-0.47717l0,-52.60706c0,-1.04434 0.26794,-1.76212 0.81165,-2.15225c0.54175,-0.39117 1.07178,-0.58774 1.58508,-0.58774l33.30212,0c0.54169,0 1.07562,0.19559 1.60565,0.58774c0.52612,0.39014 0.79205,1.10791 0.79205,2.15225l0,52.60706l0.00195,0z" id="svg_41"/>
   <path stroke="null" fill="#5A4A42" d="m580.30084,363.10638l-0.04498,0l-10.44354,30.23651l21.18927,0l-10.70074,-30.23651zm22.9837,48.74347c0.17218,0.4361 0.2533,0.79205 0.23669,1.06396c-0.01276,0.27771 -0.11444,0.48499 -0.29828,0.63165c-0.18677,0.14276 -0.47235,0.23669 -0.85559,0.28162c-0.38727,0.04498 -0.8811,0.06458 -1.48053,0.06458s-1.0766,-0.02051 -1.43158,-0.06458c-0.35693,-0.04492 -0.63464,-0.11047 -0.83514,-0.19556c-0.19946,-0.08606 -0.35095,-0.20441 -0.44879,-0.34717c-0.10168,-0.14569 -0.19562,-0.31677 -0.28064,-0.5202l-5.3078,-14.98962l-24.31262,0l-5.09174,14.90356c-0.06165,0.19952 -0.14667,0.37555 -0.25623,0.51727c-0.11438,0.14673 -0.27374,0.26892 -0.47327,0.37067c-0.2005,0.10168 -0.47717,0.18091 -0.83508,0.24048c-0.35498,0.05774 -0.80676,0.08612 -1.34552,0.08612c-0.59845,0 -1.1001,-0.02838 -1.50006,-0.08612c-0.39899,-0.06055 -0.69232,-0.16327 -0.87616,-0.30603c-0.18683,-0.14276 -0.28552,-0.34619 -0.30219,-0.60724c-0.01172,-0.26208 0.06451,-0.6073 0.23663,-1.0434l19.39301,-53.47635c0.08508,-0.23175 0.21118,-0.42831 0.3833,-0.58768c0.17114,-0.15939 0.39117,-0.28165 0.664,-0.37064c0.26886,-0.08606 0.59937,-0.1506 0.98273,-0.19458c0.38727,-0.04205 0.82428,-0.06558 1.30939,-0.06558c0.51233,0 0.96021,0.02353 1.34454,0.06558c0.38721,0.04398 0.71283,0.10852 0.98663,0.19458c0.26794,0.08899 0.48602,0.21124 0.6405,0.37064c0.15845,0.15936 0.28064,0.35495 0.3667,0.58768l19.38708,53.47635z" id="svg_42"/>
   <path stroke="null" fill="#5A4A42" d="m639.71381,374.01251c0,-2.43393 -0.47327,-4.49722 -1.41498,-6.1889c-0.94171,-1.69562 -2.09259,-2.95514 -3.44501,-3.78238c-1.3573,-0.82336 -2.76733,-1.34555 -4.23901,-1.56165c-1.46777,-0.21707 -2.85834,-0.32565 -4.17059,-0.32565l-7.87573,0l0,24.41437l7.53247,0c2.42517,0 4.45227,-0.31006 6.07947,-0.9339c1.6261,-0.6239 2.99518,-1.48346 4.10797,-2.58447s1.96155,-2.42615 2.5473,-3.97504c0.58282,-1.54993 0.87811,-3.23676 0.87811,-5.06238m5.51813,-0.47821c0,2.60504 -0.43225,4.99396 -1.3045,7.16675s-2.12,4.03955 -3.74615,5.6051c-1.62622,1.56555 -3.60736,2.78009 -5.94739,3.64746s-5.16504,1.30444 -8.47516,1.30444l-7.19116,0l0,21.50317c0,0.17212 -0.04596,0.33447 -0.13202,0.47723c-0.08508,0.14667 -0.22687,0.26105 -0.42828,0.34619c-0.19946,0.08893 -0.46552,0.15839 -0.79114,0.22095c-0.33044,0.05676 -0.75,0.08606 -1.26337,0.08606c-0.48505,0 -0.89764,-0.0293 -1.23999,-0.08606c-0.34222,-0.06158 -0.61499,-0.13202 -0.81451,-0.22095c-0.20044,-0.08606 -0.3432,-0.19952 -0.42834,-0.34619c-0.086,-0.14276 -0.1261,-0.30609 -0.1261,-0.47723l0,-52.60699c0,-1.04343 0.26892,-1.7612 0.81067,-2.15231c0.5437,-0.39212 1.07269,-0.58676 1.58606,-0.58676l11.25525,0c1.11371,0 2.19727,0.05286 3.2533,0.15356c1.05518,0.10168 2.29114,0.31781 3.70123,0.64832c1.414,0.33344 2.85339,0.95731 4.32507,1.87064c1.46777,0.90942 2.71942,2.02615 3.74615,3.34332c1.02777,1.32111 1.81787,2.82602 2.37817,4.52069c0.55548,1.69461 0.83221,3.55646 0.83221,5.58261" id="svg_43"/>
   <path stroke="null" fill="#5A4A42" d="m667.46558,363.10638l-0.04498,0l-10.44452,30.23651l21.18927,0l-10.69977,-30.23651zm22.9837,48.74347c0.17108,0.4361 0.25226,0.79205 0.23663,1.06396c-0.01367,0.27771 -0.11438,0.48499 -0.29926,0.63165c-0.18573,0.14276 -0.47131,0.23669 -0.85565,0.28162c-0.38721,0.04498 -0.88,0.06458 -1.48041,0.06458c-0.59845,0 -1.07562,-0.02051 -1.43066,-0.06458c-0.35889,-0.04492 -0.63556,-0.11047 -0.83508,-0.19556c-0.20044,-0.08606 -0.35004,-0.20441 -0.44885,-0.34717c-0.10168,-0.14569 -0.19452,-0.31677 -0.28058,-0.5202l-5.30786,-14.98962l-24.31262,0l-5.09167,14.90356c-0.06165,0.19952 -0.14575,0.37555 -0.2572,0.51727c-0.11346,0.14673 -0.27283,0.26892 -0.47235,0.37067c-0.19946,0.10168 -0.4762,0.18091 -0.83508,0.24048c-0.35492,0.05774 -0.80676,0.08612 -1.34552,0.08612c-0.59949,0 -1.1001,-0.02838 -1.5,-0.08612c-0.39905,-0.06055 -0.69238,-0.16327 -0.87622,-0.30603c-0.18774,-0.14276 -0.28552,-0.34619 -0.30212,-0.60724c-0.01276,-0.26208 0.06451,-0.6073 0.23566,-1.0434l19.39197,-53.47635c0.08612,-0.23175 0.21222,-0.42831 0.3833,-0.58768c0.17212,-0.15939 0.39215,-0.28165 0.66595,-0.37064c0.26794,-0.08606 0.59747,-0.1506 0.98175,-0.19458c0.38721,-0.04205 0.82343,-0.06558 1.30841,-0.06558c0.51434,0 0.96222,0.02353 1.34552,0.06558c0.38824,0.04398 0.71283,0.10852 0.98669,0.19458c0.26892,0.08899 0.48499,0.21124 0.64044,0.37064c0.15845,0.15936 0.2807,0.35495 0.3667,0.58768l19.38812,53.47635z" id="svg_44"/>
   <path stroke="null" fill="#5A4A42" d="m727.99036,411.2876c0,0.37555 -0.02832,0.7099 -0.08698,0.99835c-0.0567,0.28949 -0.14966,0.53394 -0.27576,0.73834c-0.13104,0.20435 -0.28168,0.35394 -0.45276,0.4566c-0.17212,0.10175 -0.35498,0.15057 -0.55444,0.15057l-29.44836,0c-0.51239,0 -0.95734,-0.17987 -1.32794,-0.54266c-0.37256,-0.36279 -0.55438,-0.96124 -0.55438,-1.80219l0,-0.95734c0,-0.26111 0.01166,-0.52118 0.04004,-0.78326c0.02838,-0.26105 0.09387,-0.53394 0.19171,-0.82336c0.10168,-0.28943 0.25714,-0.61603 0.47223,-0.97888c0.21222,-0.36182 0.50659,-0.78613 0.87616,-1.27899l17.03632,-22.89465l-15.53625,-18.98428c-0.34326,-0.40775 -0.61603,-0.76273 -0.81458,-1.0639c-0.19946,-0.30609 -0.35889,-0.60333 -0.46936,-0.89279c-0.11829,-0.28946 -0.19556,-0.58765 -0.2356,-0.88889c-0.04602,-0.30606 -0.06458,-0.64343 -0.06458,-1.02283l0,-0.95441c0,-0.78323 0.17108,-1.37 0.51239,-1.76212c0.3432,-0.39017 0.79889,-0.5867 1.36993,-0.5867l27.56409,0c0.20038,0 0.38721,0.05377 0.55829,0.15549c0.17114,0.10168 0.3139,0.25232 0.42834,0.45181c0.11346,0.20432 0.19946,0.45663 0.25714,0.76273c0.0567,0.30508 0.08508,0.66003 0.08508,1.0639c0,0.37451 -0.02838,0.70895 -0.08508,0.99838c-0.05768,0.28946 -0.14276,0.53003 -0.25714,0.71777c-0.11444,0.18677 -0.25818,0.33441 -0.42834,0.43515c-0.17108,0.10168 -0.35791,0.15057 -0.55829,0.15057l-23.11377,0l15.3241,18.68011c0.17108,0.20331 0.31384,0.39795 0.42828,0.58667c0.1134,0.18787 0.20728,0.38342 0.27576,0.58771c0.07336,0.20343 0.12219,0.40686 0.15057,0.60724c0.02832,0.20343 0.04498,0.42047 0.04498,0.65125c0,0.177 -0.01666,0.36383 -0.04498,0.56726c-0.02838,0.19946 -0.07721,0.39508 -0.15057,0.58374c-0.06848,0.19067 -0.16235,0.38727 -0.27576,0.58771c-0.11444,0.20337 -0.25818,0.40674 -0.42828,0.60718l-17.29352,23.28491l25.4704,0c0.19946,0 0.3833,0.05377 0.55438,0.15448c0.1712,0.10266 0.32178,0.24542 0.45276,0.43219c0.12622,0.19067 0.22009,0.43518 0.27576,0.73828c0.05969,0.30615 0.08801,0.66107 0.08801,1.06885" id="svg_45"/>
   <path stroke="null" fill="#5A4A42" d="m773.92059,412.6781c0,0.19946 -0.02734,0.37549 -0.08606,0.51727c-0.0567,0.14673 -0.18671,0.26892 -0.38721,0.37158c-0.19946,0.10175 -0.46838,0.17896 -0.81061,0.23956c-0.34424,0.05774 -0.78821,0.08704 -1.32898,0.08704c-0.51337,0 -1.03162,-0.0293 -1.56158,-0.08704c-0.53003,-0.06158 -0.9339,-0.18378 -1.21844,-0.37054c-0.28552,-0.18683 -0.53003,-0.41272 -0.73047,-0.67279l-22.38428,-28.84503l0,28.84503c0,0.17212 -0.04492,0.33441 -0.13098,0.4762c-0.08606,0.14764 -0.22791,0.26208 -0.42828,0.34717c-0.19952,0.08899 -0.46454,0.15839 -0.79114,0.21997c-0.33051,0.05774 -0.75098,0.08704 -1.26337,0.08704c-0.48505,0 -0.89673,-0.0293 -1.23993,-0.08704c-0.34222,-0.06158 -0.61609,-0.13098 -0.81555,-0.21997c-0.19952,-0.08606 -0.34229,-0.19952 -0.42834,-0.34717c-0.08704,-0.14276 -0.12708,-0.30505 -0.12708,-0.4762l0,-54.47769c0,-0.17209 0.04004,-0.33054 0.12708,-0.4772c0.08606,-0.14276 0.22784,-0.26108 0.42834,-0.34714c0.19946,-0.08505 0.47333,-0.15744 0.81555,-0.21609c0.3432,-0.05673 0.75391,-0.08899 1.23993,-0.08899c0.51239,0 0.93286,0.03226 1.26337,0.08899c0.3266,0.05865 0.59064,0.13104 0.79114,0.21609c0.19946,0.08704 0.34222,0.20438 0.42828,0.34714c0.08606,0.14667 0.13098,0.30609 0.13098,0.4772l0,25.54764l21.44263,-25.54764c0.17108,-0.20044 0.35889,-0.3765 0.55927,-0.51828c0.19952,-0.14667 0.42737,-0.26108 0.68457,-0.35007c0.25616,-0.08606 0.55341,-0.15057 0.89569,-0.19461c0.34326,-0.04105 0.77051,-0.06549 1.28394,-0.06549s0.92896,0.03226 1.24286,0.08899c0.3139,0.05865 0.56323,0.13589 0.75195,0.23657c0.18286,0.10172 0.30511,0.22006 0.36285,0.35107c0.0567,0.1301 0.08502,0.2807 0.08502,0.45276c0,0.32172 -0.08118,0.62289 -0.23663,0.91232c-0.15448,0.28949 -0.41949,0.6405 -0.79108,1.0434l-20.16162,23.41495l21.53259,27.41046c0.39899,0.52222 0.63953,0.88495 0.72461,1.08838c0.086,0.19952 0.13098,0.37451 0.13098,0.52216" id="svg_46"/>
   <path stroke="null" fill="#5A4A42" d="m814.11462,411.2876c0,0.37555 -0.02734,0.7099 -0.08606,0.99835c-0.05664,0.28949 -0.14966,0.53394 -0.27686,0.73834c-0.13098,0.20435 -0.28052,0.35394 -0.45264,0.4566c-0.17114,0.10175 -0.35388,0.15057 -0.55347,0.15057l-25.93878,0c-0.51337,0 -1.04242,-0.1955 -1.58606,-0.58765c-0.54175,-0.3902 -0.81165,-1.10889 -0.81165,-2.14838l0,-50.7403c0,-1.04337 0.2699,-1.76212 0.81165,-2.15326c0.54364,-0.39014 1.07269,-0.58673 1.58606,-0.58673l25.55157,0c0.19946,0 0.38721,0.05383 0.55835,0.15552c0.17114,0.10168 0.31384,0.25229 0.42822,0.45175c0.11255,0.20438 0.19861,0.45667 0.25623,0.76273c0.05774,0.30511 0.08606,0.6601 0.08606,1.06393c0,0.37451 -0.02832,0.70895 -0.08606,0.99838s-0.1427,0.53 -0.25623,0.71777c-0.11438,0.18677 -0.25806,0.33441 -0.42822,0.43515c-0.17114,0.10168 -0.35889,0.15057 -0.55835,0.15057l-22.72552,0l0,19.76749l19.60419,0c0.22681,0 0.42822,0.04993 0.59851,0.15057c0.172,0.10175 0.31384,0.24451 0.42822,0.43616c0.11438,0.18677 0.20044,0.43127 0.2572,0.73828c0.05762,0.30121 0.08496,0.65613 0.08496,1.0639c0,0.37451 -0.02734,0.70111 -0.08496,0.97784c-0.05676,0.27386 -0.14282,0.4978 -0.2572,0.67279c-0.1134,0.17212 -0.25623,0.3031 -0.42822,0.39117c-0.17126,0.08606 -0.3717,0.13098 -0.59851,0.13098l-19.60419,0l0,22.41266l23.11371,0c0.19946,0 0.3833,0.05377 0.55347,0.15448c0.17212,0.10272 0.32178,0.24548 0.45276,0.43219c0.12708,0.19073 0.22107,0.43518 0.27673,0.73834c0.05774,0.30707 0.08508,0.66199 0.08508,1.06976" id="svg_47"/>
   <path stroke="null" fill="#5A4A42" d="m842.36609,391.4751l0,21.28809c0,0.17212 -0.04016,0.33441 -0.1272,0.47626c-0.08496,0.14764 -0.22681,0.26208 -0.42822,0.34711c-0.19946,0.08997 -0.47327,0.15839 -0.81555,0.21997c-0.34326,0.05774 -0.75391,0.0871 -1.23987,0.0871c-0.51233,0 -0.93787,-0.02936 -1.26343,-0.0871c-0.33044,-0.06158 -0.59851,-0.13 -0.81555,-0.21997c-0.21216,-0.08606 -0.36279,-0.19946 -0.44885,-0.34711c-0.08496,-0.14276 -0.1261,-0.30511 -0.1261,-0.47626l0,-21.28809l-15.92249,-32.27823c-0.20435,-0.43222 -0.31702,-0.78229 -0.34326,-1.04337c-0.03235,-0.25717 0.0332,-0.4606 0.19153,-0.60629c0.15552,-0.14279 0.42053,-0.24448 0.79126,-0.30316c0.37048,-0.0567 0.83997,-0.08899 1.41492,-0.08899c0.62292,0 1.1333,0.02448 1.5166,0.06555c0.38721,0.04398 0.70105,0.10852 0.94177,0.19458c0.24438,0.08997 0.42432,0.20343 0.53882,0.3501c0.10938,0.14276 0.22681,0.31778 0.34216,0.51825l8.47522,17.50766c0.79883,1.65063 1.58997,3.35992 2.37231,5.12793c0.78711,1.76599 1.57813,3.54663 2.37708,5.34009l0.08606,0c0.74219,-1.70831 1.49915,-3.43231 2.27063,-5.16803c0.76953,-1.73669 1.55286,-3.46063 2.35168,-5.16901l8.5603,-17.63864c0.08606,-0.20047 0.18774,-0.37646 0.3031,-0.51825c0.11243,-0.14667 0.26794,-0.26111 0.46838,-0.3501c0.19946,-0.08603 0.46448,-0.1506 0.79492,-0.19458c0.32764,-0.04108 0.73547,-0.06555 1.21948,-0.06555c0.68445,0 1.23999,0.03229 1.66724,0.08899c0.42834,0.05869 0.72949,0.16821 0.90063,0.32663c0.17212,0.15939 0.24048,0.3667 0.21313,0.62878c-0.02832,0.26108 -0.1427,0.59354 -0.34314,0.99838l-15.92358,32.27725z" id="svg_48"/>
   <path stroke="null" fill="#5A4A42" d="m906.48938,412.76221c0,0.17108 -0.04504,0.33441 -0.13098,0.47717c-0.08521,0.14575 -0.22791,0.26111 -0.42847,0.34613c-0.19934,0.091 -0.46826,0.15942 -0.81055,0.22101c-0.34326,0.05774 -0.75781,0.08612 -1.24292,0.08612c-0.51428,0 -0.93384,-0.02838 -1.26038,-0.08612c-0.32947,-0.06158 -0.59363,-0.13 -0.79407,-0.22101c-0.20044,-0.08502 -0.34412,-0.19946 -0.42822,-0.34613c-0.08606,-0.14276 -0.12622,-0.30609 -0.12622,-0.47717l0,-26.19501l-27.651,0l0,26.19501c0,0.17108 -0.04602,0.33441 -0.13098,0.47717c-0.08606,0.14575 -0.22791,0.26111 -0.42834,0.34613c-0.19946,0.091 -0.46545,0.15942 -0.79114,0.22101c-0.33057,0.05774 -0.75098,0.08612 -1.2644,0.08612c-0.48499,0 -0.89673,-0.02838 -1.23889,-0.08612c-0.34314,-0.06158 -0.61511,-0.13 -0.81543,-0.22101c-0.19958,-0.08502 -0.34326,-0.19946 -0.42834,-0.34613c-0.08606,-0.14276 -0.1272,-0.30609 -0.1272,-0.47717l0,-54.4787c0,-0.17111 0.04114,-0.32953 0.1272,-0.4772c0.08508,-0.14276 0.22778,-0.26108 0.42834,-0.34616c0.20032,-0.08603 0.47229,-0.15939 0.81543,-0.21609c0.34216,-0.05771 0.75391,-0.09094 1.23889,-0.09094c0.51343,0 0.93384,0.03323 1.2644,0.09094c0.32568,0.0567 0.5907,0.13007 0.79114,0.21609c0.19946,0.08508 0.34229,0.2034 0.42834,0.34616c0.08496,0.14767 0.13098,0.30609 0.13098,0.4772l0,23.54596l27.651,0l0,-23.54596c0,-0.17111 0.04016,-0.32953 0.12622,-0.4772c0.08496,-0.14276 0.22778,-0.26108 0.42822,-0.34616c0.19946,-0.08603 0.4646,-0.15939 0.79407,-0.21609c0.32654,-0.05771 0.74609,-0.09094 1.26038,-0.09094c0.48511,0 0.90076,0.03323 1.24292,0.09094c0.34229,0.0567 0.61121,0.13007 0.81055,0.21609c0.19958,0.08508 0.34326,0.2034 0.42847,0.34616c0.08594,0.14767 0.13098,0.30609 0.13098,0.4772l0,54.4787z" id="svg_49"/>
   <path stroke="null" fill="#5A4A42" d="m950.14905,411.2876c0,0.37555 -0.02844,0.7099 -0.08704,0.99835c-0.05664,0.28949 -0.14954,0.53394 -0.27576,0.73834c-0.13098,0.20435 -0.28064,0.35394 -0.45374,0.4566c-0.17114,0.10175 -0.35303,0.15057 -0.55347,0.15057l-29.44824,0c-0.51245,0 -0.9574,-0.17987 -1.328,-0.54266c-0.3717,-0.36279 -0.55444,-0.96124 -0.55444,-1.80219l0,-0.95734c0,-0.26111 0.01172,-0.52118 0.04004,-0.78326c0.02942,-0.26105 0.09387,-0.53394 0.19177,-0.82336c0.10156,-0.28943 0.2572,-0.61603 0.47217,-0.97888c0.21216,-0.36182 0.50659,-0.78613 0.87622,-1.27899l17.03638,-22.89465l-15.53638,-18.98428c-0.34314,-0.40775 -0.61597,-0.76273 -0.81445,-1.0639c-0.19946,-0.30609 -0.35889,-0.60333 -0.46948,-0.89279c-0.11816,-0.28946 -0.19556,-0.58765 -0.2356,-0.88889c-0.0459,-0.30606 -0.06458,-0.64343 -0.06458,-1.02283l0,-0.95441c0,-0.78323 0.17114,-1.37 0.51233,-1.76212c0.34326,-0.39017 0.79895,-0.5867 1.37,-0.5867l27.56409,0c0.20044,0 0.38721,0.05377 0.55835,0.15549c0.17212,0.10168 0.31384,0.25232 0.42834,0.45181c0.11438,0.20432 0.19849,0.45663 0.25708,0.76273c0.05676,0.30508 0.08521,0.66003 0.08521,1.0639c0,0.37451 -0.02844,0.70895 -0.08521,0.99838c-0.05859,0.28946 -0.1427,0.53003 -0.25708,0.71777c-0.1145,0.18677 -0.2572,0.33441 -0.42834,0.43515c-0.17114,0.10168 -0.35791,0.15057 -0.55835,0.15057l-23.11377,0l15.3241,18.68011c0.17114,0.20331 0.31396,0.39795 0.42834,0.58667c0.11255,0.18787 0.20728,0.38342 0.27673,0.58771c0.07239,0.20343 0.12219,0.40686 0.14954,0.60724c0.02942,0.20343 0.04504,0.42047 0.04504,0.65125c0,0.177 -0.01563,0.36383 -0.04504,0.56726c-0.02734,0.19946 -0.07715,0.39508 -0.14954,0.58374c-0.06946,0.19067 -0.16418,0.38727 -0.27673,0.58771c-0.11438,0.20337 -0.25818,0.40674 -0.42834,0.60718l-17.2926,23.28491l25.46948,0c0.20044,0 0.3833,0.05377 0.55359,0.15448c0.17297,0.10266 0.32263,0.24542 0.45361,0.43219c0.1261,0.19067 0.22009,0.43518 0.27576,0.73828c0.05957,0.30615 0.08801,0.66107 0.08801,1.06885" id="svg_50"/>
  </g>
 </g>
</svg>